<svg width="149" height="55" viewBox="0 0 149 55" fill="none" xmlns="http://www.w3.org/2000/svg">
<rect width="55" height="55" rx="9" fill="#8565C6"/>
<path d="M37.9413 44L37.8485 26.7796L29.4935 40.7973H25.4089L17.1004 27.2437V44H8.60623V11.5086H16.1721L27.5905 30.2608L38.7304 11.5086H46.2962L46.3891 44H37.9413Z" fill="white"/>
<path d="M88.6556 31.4676C88.6556 31.5295 88.6092 32.2567 88.5164 33.6492H70.2284C70.5997 34.9488 71.3114 35.9545 72.3635 36.6662C73.4466 37.347 74.7926 37.6874 76.4017 37.6874C77.6086 37.6874 78.6452 37.5172 79.5116 37.1768C80.409 36.8364 81.3064 36.2794 82.2038 35.5058L86.8454 40.3331C84.4008 43.0562 80.8268 44.4177 76.1232 44.4177C73.1835 44.4177 70.5997 43.8608 68.3717 42.7468C66.1437 41.6328 64.4109 40.0856 63.1731 38.1051C61.9663 36.1247 61.3629 33.8813 61.3629 31.3748C61.3629 28.8992 61.9508 26.6867 63.1267 24.7373C64.3335 22.7568 65.989 21.2096 68.0932 20.0956C70.1974 18.9816 72.5647 18.4246 75.1949 18.4246C77.7014 18.4246 79.9758 18.9507 82.0181 20.0028C84.0604 21.024 85.6695 22.5247 86.8454 24.5052C88.0522 26.4547 88.6556 28.7755 88.6556 31.4676ZM75.2413 24.6908C73.8798 24.6908 72.7349 25.0776 71.8065 25.8512C70.9091 26.6249 70.3367 27.677 70.0891 29.0076H80.3935C80.146 27.677 79.558 26.6249 78.6297 25.8512C77.7323 25.0776 76.6029 24.6908 75.2413 24.6908Z" fill="#8565C6"/>
<path d="M95.3444 31.4676C95.3444 31.5295 95.3908 32.2567 95.4836 33.6492H113.772C113.4 34.9488 112.689 35.9545 111.636 36.6662C110.553 37.347 109.207 37.6874 107.598 37.6874C106.391 37.6874 105.355 37.5172 104.488 37.1768C103.591 36.8364 102.694 36.2794 101.796 35.5058L97.1546 40.3331C99.5992 43.0562 103.173 44.4177 107.877 44.4177C110.816 44.4177 113.4 43.8608 115.628 42.7468C117.856 41.6328 119.589 40.0856 120.827 38.1051C122.034 36.1247 122.637 33.8813 122.637 31.3748C122.637 28.8992 122.049 26.6867 120.873 24.7373C119.666 22.7568 118.011 21.2096 115.907 20.0956C113.803 18.9816 111.435 18.4246 108.805 18.4246C106.299 18.4246 104.024 18.9507 101.982 20.0028C99.9396 21.024 98.3305 22.5247 97.1546 24.5052C95.9478 26.4547 95.3444 28.7755 95.3444 31.4676ZM108.759 24.6908C110.12 24.6908 111.265 25.0776 112.193 25.8512C113.091 26.6249 113.663 27.677 113.911 29.0076H103.606C103.854 27.677 104.442 26.6249 105.37 25.8512C106.268 25.0776 107.397 24.6908 108.759 24.6908Z" fill="#8565C6"/>
<path d="M148.311 42.9788C147.568 43.443 146.655 43.7989 145.572 44.0464C144.52 44.294 143.391 44.4177 142.184 44.4177C138.904 44.4177 136.382 43.6132 134.618 42.0041C132.854 40.395 131.972 37.9968 131.972 34.8096V26.3618H128.305V19.7707H131.972V13.226H140.791V19.7707H146.547V26.3618H140.791V34.7168C140.791 35.6141 141.024 36.3258 141.488 36.8519C141.983 37.347 142.633 37.5946 143.437 37.5946C144.458 37.5946 145.356 37.3315 146.129 36.8055L148.311 42.9788Z" fill="#8565C6"/>
</svg>
