<svg width="453" height="257" viewBox="0 0 453 257" fill="none" xmlns="http://www.w3.org/2000/svg">
<path opacity="0.41" d="M29.1426 34.1626C52.7441 -16.7948 -15.7852 0.853317 -53 16.047L-53 317L418.452 317C481.505 274.633 460.68 175.581 312.303 204.216C163.926 232.85 187.065 152.206 229.004 115.975C270.943 79.7439 230.16 34.1626 156.406 66.0111C82.6509 97.8596 -0.359339 97.8594 29.1426 34.1626Z" fill="#9174CA"/>
<mask id="mask0" mask-type="alpha" maskUnits="userSpaceOnUse" x="-53" y="0" width="506" height="317">
<path opacity="0.9" d="M29.1834 34.1626C52.7966 -16.7948 -15.7667 0.853316 -53 16.047L-53 317L418.686 317C481.771 274.633 460.935 175.581 312.484 204.215C164.033 232.85 187.184 152.206 229.144 115.975C271.103 79.7439 230.301 34.1626 156.51 66.0111C82.7183 97.8596 -0.333197 97.8594 29.1834 34.1626Z" fill="#9174CA"/>
</mask>
<g mask="url(#mask0)">
<g opacity="0.1">
<path d="M12.3086 366.872C42.8066 310.514 102.385 173.211 96.7171 74.8584" stroke="white" stroke-width="5"/>
<path d="M84.7028 366.125C103.186 298.629 135.41 144.783 116.433 69.373" stroke="white" stroke-width="5"/>
<path d="M153.4 366.125C163.053 293.724 174.78 131.067 144.466 59.6475" stroke="white" stroke-width="5"/>
<path d="M214.088 362.883C217.682 283.25 197.391 109.671 166.339 52.415" stroke="white" stroke-width="5"/>
<path d="M278.473 359.641C263.583 273.276 225.856 90.2703 194.064 49.1738" stroke="white" stroke-width="5"/>
<path d="M337.312 360.638C314.002 279.094 257.463 103.287 217.785 52.415" stroke="white" stroke-width="5"/>
<path d="M390.915 359.642C364.011 282.503 296.094 111.468 239.657 44.4365" stroke="white" stroke-width="5"/>
<path d="M440.512 355.651C402.826 261.555 309.956 71.717 275.7 49.1738" stroke="white" stroke-width="5"/>
<path d="M484.257 354.903C455.813 278.762 357.521 105.233 295.416 49.1738" stroke="white" stroke-width="5"/>
<path d="M-89.0431 100.793C-66.7601 98.2995 -17.0803 73.3624 3.37489 -6.43652" stroke="white" stroke-width="5"/>
<path d="M-83.19 162.637C-51.1517 136.869 15.1428 66.1802 24.0149 -10.4268" stroke="white" stroke-width="5"/>
<path d="M-72.4079 215.005C-40.7804 190.899 24.8159 120.792 34.1809 33.2129" stroke="white" stroke-width="5"/>
<path d="M-51.4598 267.125C-18.3947 229.553 47.3659 136.255 45.8872 63.6377" stroke="white" stroke-width="5"/>
<path d="M-54.5403 348.42C-16.7516 303.699 61.2287 187.376 70.8401 79.8467" stroke="white" stroke-width="5"/>
</g>
</g>
<g opacity="0.1">
<mask id="mask1" mask-type="alpha" maskUnits="userSpaceOnUse" x="-53" y="-1" width="506" height="318">
<path opacity="0.9" d="M29.4019 33.8638C53.0152 -17.0936 -15.5481 0.554487 -52.7814 15.7482L-52.7814 316.701L418.905 316.701C481.989 274.334 461.154 175.282 312.703 203.917C164.252 232.551 187.402 151.907 229.362 115.676C271.322 79.4451 230.52 33.8638 156.728 65.7123C82.9368 97.5607 -0.11463 97.5605 29.4019 33.8638Z" fill="#9174CA"/>
</mask>
<g mask="url(#mask1)">
<g opacity="0.1">
<path d="M12.3086 366.872C42.8066 310.514 102.385 173.211 96.7171 74.8584" stroke="white" stroke-width="5"/>
<path d="M84.7028 366.125C103.186 298.629 135.41 144.783 116.433 69.373" stroke="white" stroke-width="5"/>
<path d="M153.4 366.125C163.053 293.724 174.78 131.067 144.466 59.6475" stroke="white" stroke-width="5"/>
<path d="M214.088 362.883C217.682 283.25 197.391 109.671 166.339 52.415" stroke="white" stroke-width="5"/>
<path d="M278.473 359.641C263.583 273.276 225.856 90.2703 194.064 49.1738" stroke="white" stroke-width="5"/>
<path d="M337.312 360.638C314.002 279.094 257.463 103.287 217.785 52.415" stroke="white" stroke-width="5"/>
<path d="M390.915 359.642C364.011 282.503 296.094 111.468 239.657 44.4365" stroke="white" stroke-width="5"/>
<path d="M440.512 355.651C402.826 261.555 309.956 71.717 275.7 49.1738" stroke="white" stroke-width="5"/>
<path d="M484.257 354.903C455.813 278.762 357.521 105.233 295.416 49.1738" stroke="white" stroke-width="5"/>
<path d="M-89.0431 100.793C-66.7601 98.2995 -17.0803 73.3624 3.37489 -6.43652" stroke="white" stroke-width="5"/>
<path d="M-83.19 162.637C-51.1517 136.869 15.1428 66.1802 24.0149 -10.4268" stroke="white" stroke-width="5"/>
<path d="M-72.4079 215.005C-40.7804 190.899 24.8159 120.792 34.1809 33.2129" stroke="white" stroke-width="5"/>
<path d="M-51.4598 267.125C-18.3947 229.553 47.3659 136.255 45.8872 63.6377" stroke="white" stroke-width="5"/>
<path d="M-54.5403 348.42C-16.7516 303.699 61.2287 187.376 70.8401 79.8467" stroke="white" stroke-width="5"/>
</g>
</g>
</g>
</svg>
