<svg width="507" height="111" viewBox="0 0 507 111" fill="none" xmlns="http://www.w3.org/2000/svg">
<g opacity="0.1">
<path d="M435.604 78.5208C571.668 167.118 411.785 329.956 379.265 342.843C346.744 355.731 291.593 362.461 258.386 285.118C216.876 188.439 165.556 225.254 70.1443 189.284C-25.2672 153.314 70.3683 -78.8701 170.789 49.798C271.21 178.466 299.54 -10.0768 435.604 78.5208Z" fill="#F8EBFC"/>
<mask id="mask0" mask-type="alpha" maskUnits="userSpaceOnUse" x="30" y="11" width="460" height="340">
<path d="M435.604 78.5208C571.668 167.118 411.785 329.956 379.265 342.843C346.744 355.731 291.593 362.461 258.386 285.118C216.876 188.439 165.556 225.254 70.1443 189.284C-25.2672 153.314 70.3683 -78.8701 170.789 49.798C271.21 178.466 299.54 -10.0768 435.604 78.5208Z" fill="black"/>
</mask>
<g mask="url(#mask0)">
<circle cx="59.1746" cy="21.9696" r="5.33261" transform="rotate(9.3463 59.1746 21.9696)" fill="white"/>
<circle cx="52.6799" cy="61.4335" r="5.33261" transform="rotate(9.3463 52.6799 61.4335)" fill="white"/>
<circle cx="46.1846" cy="100.898" r="5.33261" transform="rotate(9.3463 46.1846 100.898)" fill="white"/>
<circle cx="44.0881" cy="39.7538" r="5.33261" transform="rotate(9.3463 44.0881 39.7538)" fill="white"/>
<circle cx="37.5931" cy="79.2167" r="5.33261" transform="rotate(9.3463 37.5931 79.2167)" fill="white"/>
<circle cx="82.8533" cy="25.8681" r="5.33261" transform="rotate(9.3463 82.8533 25.8681)" fill="white"/>
<circle cx="76.3577" cy="65.331" r="5.33261" transform="rotate(9.3463 76.3577 65.331)" fill="white"/>
<circle cx="69.8622" cy="104.794" r="5.33261" transform="rotate(9.3463 69.8622 104.794)" fill="white"/>
<circle cx="67.7665" cy="43.6503" r="5.33261" transform="rotate(9.3463 67.7665 43.6503)" fill="white"/>
<circle cx="61.2716" cy="83.1151" r="5.33261" transform="rotate(9.3463 61.2716 83.1151)" fill="white"/>
<circle cx="106.532" cy="29.7646" r="5.33261" transform="rotate(9.3463 106.532 29.7646)" fill="white"/>
<circle cx="100.036" cy="69.2284" r="5.33261" transform="rotate(9.3463 100.036 69.2284)" fill="white"/>
<circle cx="93.5413" cy="108.692" r="5.33261" transform="rotate(9.3463 93.5413 108.692)" fill="white"/>
<circle cx="97.9397" cy="8.08487" r="5.33261" transform="rotate(9.3463 97.9397 8.08487)" fill="white"/>
<circle cx="91.4444" cy="47.5478" r="5.33261" transform="rotate(9.3463 91.4444 47.5478)" fill="white"/>
<circle cx="84.9495" cy="87.0116" r="5.33261" transform="rotate(9.3463 84.9495 87.0116)" fill="white"/>
<circle cx="130.209" cy="33.661" r="5.33261" transform="rotate(9.3463 130.209 33.661)" fill="white"/>
<circle cx="123.714" cy="73.1259" r="5.33261" transform="rotate(9.3463 123.714 73.1259)" fill="white"/>
<circle cx="117.219" cy="112.589" r="5.33261" transform="rotate(9.3463 117.219 112.589)" fill="white"/>
<circle cx="121.618" cy="11.9814" r="5.33261" transform="rotate(9.3463 121.618 11.9814)" fill="white"/>
<circle cx="115.123" cy="51.4442" r="5.33261" transform="rotate(9.3463 115.123 51.4442)" fill="white"/>
<circle cx="108.627" cy="90.9091" r="5.33261" transform="rotate(9.3463 108.627 90.9091)" fill="white"/>
<circle cx="153.888" cy="37.5595" r="5.33261" transform="rotate(9.3463 153.888 37.5595)" fill="white"/>
<circle cx="147.393" cy="77.0224" r="5.33261" transform="rotate(9.3463 147.393 77.0224)" fill="white"/>
<circle cx="140.898" cy="116.486" r="5.33261" transform="rotate(9.3463 140.898 116.486)" fill="white"/>
<circle cx="145.296" cy="15.8778" r="5.33261" transform="rotate(9.3463 145.296 15.8778)" fill="white"/>
<circle cx="138.801" cy="55.3427" r="5.33261" transform="rotate(9.3463 138.801 55.3427)" fill="white"/>
<circle cx="132.306" cy="94.8056" r="5.33261" transform="rotate(9.3463 132.306 94.8056)" fill="white"/>
<circle cx="177.566" cy="41.456" r="5.33261" transform="rotate(9.3463 177.566 41.456)" fill="white"/>
<circle cx="171.07" cy="80.9189" r="5.33261" transform="rotate(9.3463 171.07 80.9189)" fill="white"/>
<circle cx="168.974" cy="19.7753" r="5.33261" transform="rotate(9.3463 168.974 19.7753)" fill="white"/>
<circle cx="162.479" cy="59.2392" r="5.33261" transform="rotate(9.3463 162.479 59.2392)" fill="white"/>
<circle cx="155.984" cy="98.7021" r="5.33261" transform="rotate(9.3463 155.984 98.7021)" fill="white"/>
<circle cx="207.739" cy="5.88858" r="5.33261" transform="rotate(9.3463 207.739 5.88858)" fill="white"/>
<circle cx="201.244" cy="45.3534" r="5.33261" transform="rotate(9.3463 201.244 45.3534)" fill="white"/>
<circle cx="194.748" cy="84.8163" r="5.33261" transform="rotate(9.3463 194.748 84.8163)" fill="white"/>
<circle cx="192.652" cy="23.6728" r="5.33261" transform="rotate(9.3463 192.652 23.6728)" fill="white"/>
<circle cx="186.157" cy="63.1356" r="5.33261" transform="rotate(9.3463 186.157 63.1356)" fill="white"/>
<circle cx="179.662" cy="102.6" r="5.33261" transform="rotate(9.3463 179.662 102.6)" fill="white"/>
<circle cx="231.417" cy="9.78701" r="5.33261" transform="rotate(9.3463 231.417 9.78701)" fill="white"/>
<circle cx="224.922" cy="49.2499" r="5.33261" transform="rotate(9.3463 224.922 49.2499)" fill="white"/>
<circle cx="218.427" cy="88.7138" r="5.33261" transform="rotate(9.3463 218.427 88.7138)" fill="white"/>
<circle cx="216.331" cy="27.5702" r="5.33261" transform="rotate(9.3463 216.331 27.5702)" fill="white"/>
<circle cx="209.835" cy="67.0331" r="5.33261" transform="rotate(9.3463 209.835 67.0331)" fill="white"/>
<circle cx="203.34" cy="106.497" r="5.33261" transform="rotate(9.3463 203.34 106.497)" fill="white"/>
<circle cx="255.095" cy="13.6835" r="5.33261" transform="rotate(9.3463 255.095 13.6835)" fill="white"/>
<circle cx="248.6" cy="53.1464" r="5.33261" transform="rotate(9.3463 248.6 53.1464)" fill="white"/>
<circle cx="242.105" cy="92.6103" r="5.33261" transform="rotate(9.3463 242.105 92.6103)" fill="white"/>
<circle cx="240.009" cy="31.4667" r="5.33261" transform="rotate(9.3463 240.009 31.4667)" fill="white"/>
<circle cx="233.513" cy="70.9306" r="5.33261" transform="rotate(9.3463 233.513 70.9306)" fill="white"/>
<circle cx="227.018" cy="110.393" r="5.33261" transform="rotate(9.3463 227.018 110.393)" fill="white"/>
<circle cx="278.773" cy="17.581" r="5.33261" transform="rotate(9.3463 278.773 17.581)" fill="white"/>
<circle cx="272.278" cy="57.0448" r="5.33261" transform="rotate(9.3463 272.278 57.0448)" fill="white"/>
<circle cx="265.783" cy="96.5077" r="5.33261" transform="rotate(9.3463 265.783 96.5077)" fill="white"/>
<circle cx="263.687" cy="35.3632" r="5.33261" transform="rotate(9.3463 263.687 35.3632)" fill="white"/>
<circle cx="257.192" cy="74.828" r="5.33261" transform="rotate(9.3463 257.192 74.828)" fill="white"/>
<circle cx="250.696" cy="114.291" r="5.33261" transform="rotate(9.3463 250.696 114.291)" fill="white"/>
<circle cx="302.452" cy="21.4774" r="5.33261" transform="rotate(9.3463 302.452 21.4774)" fill="white"/>
<circle cx="295.957" cy="60.9413" r="5.33261" transform="rotate(9.3463 295.957 60.9413)" fill="white"/>
<circle cx="289.462" cy="100.405" r="5.33261" transform="rotate(9.3463 289.462 100.405)" fill="white"/>
<circle cx="287.365" cy="39.2616" r="5.33261" transform="rotate(9.3463 287.365 39.2616)" fill="white"/>
<circle cx="280.87" cy="78.7245" r="5.33261" transform="rotate(9.3463 280.87 78.7245)" fill="white"/>
<circle cx="326.13" cy="25.3749" r="5.33261" transform="rotate(9.3463 326.13 25.3749)" fill="white"/>
<circle cx="319.634" cy="64.8388" r="5.33261" transform="rotate(9.3463 319.634 64.8388)" fill="white"/>
<circle cx="313.139" cy="104.303" r="5.33261" transform="rotate(9.3463 313.139 104.303)" fill="white"/>
<circle cx="311.043" cy="43.1581" r="5.33261" transform="rotate(9.3463 311.043 43.1581)" fill="white"/>
<circle cx="304.548" cy="82.621" r="5.33261" transform="rotate(9.3463 304.548 82.621)" fill="white"/>
<circle cx="349.808" cy="29.2724" r="5.33261" transform="rotate(9.3463 349.808 29.2724)" fill="white"/>
<circle cx="343.312" cy="68.7353" r="5.33261" transform="rotate(9.3463 343.312 68.7353)" fill="white"/>
<circle cx="336.818" cy="108.199" r="5.33261" transform="rotate(9.3463 336.818 108.199)" fill="white"/>
<circle cx="334.721" cy="47.0556" r="5.33261" transform="rotate(9.3463 334.721 47.0556)" fill="white"/>
<circle cx="328.226" cy="86.5194" r="5.33261" transform="rotate(9.3463 328.226 86.5194)" fill="white"/>
<circle cx="373.486" cy="33.1688" r="5.33261" transform="rotate(9.3463 373.486 33.1688)" fill="white"/>
<circle cx="366.991" cy="72.6327" r="5.33261" transform="rotate(9.3463 366.991 72.6327)" fill="white"/>
<circle cx="360.496" cy="112.096" r="5.33261" transform="rotate(9.3463 360.496 112.096)" fill="white"/>
<circle cx="358.399" cy="50.9521" r="5.33261" transform="rotate(9.3463 358.399 50.9521)" fill="white"/>
<circle cx="351.904" cy="90.4159" r="5.33261" transform="rotate(9.3463 351.904 90.4159)" fill="white"/>
<circle cx="397.164" cy="37.0653" r="5.33261" transform="rotate(9.3463 397.164 37.0653)" fill="white"/>
<circle cx="390.669" cy="76.5302" r="5.33261" transform="rotate(9.3463 390.669 76.5302)" fill="white"/>
<circle cx="384.173" cy="115.993" r="5.33261" transform="rotate(9.3463 384.173 115.993)" fill="white"/>
<circle cx="382.078" cy="54.8495" r="5.33261" transform="rotate(9.3463 382.078 54.8495)" fill="white"/>
<circle cx="375.582" cy="94.3134" r="5.33261" transform="rotate(9.3463 375.582 94.3134)" fill="white"/>
<circle cx="420.843" cy="40.9638" r="5.33261" transform="rotate(9.3463 420.843 40.9638)" fill="white"/>
<circle cx="414.347" cy="80.4267" r="5.33261" transform="rotate(9.3463 414.347 80.4267)" fill="white"/>
<circle cx="405.756" cy="58.747" r="5.33261" transform="rotate(9.3463 405.756 58.747)" fill="white"/>
<circle cx="399.26" cy="98.2099" r="5.33261" transform="rotate(9.3463 399.26 98.2099)" fill="white"/>
<circle cx="444.52" cy="44.8603" r="5.33261" transform="rotate(9.3463 444.52 44.8603)" fill="white"/>
<circle cx="438.025" cy="84.3232" r="5.33261" transform="rotate(9.3463 438.025 84.3232)" fill="white"/>
<circle cx="429.434" cy="62.6435" r="5.33261" transform="rotate(9.3463 429.434 62.6435)" fill="white"/>
<circle cx="422.939" cy="102.107" r="5.33261" transform="rotate(9.3463 422.939 102.107)" fill="white"/>
<circle cx="468.199" cy="48.7587" r="5.33261" transform="rotate(9.3463 468.199 48.7587)" fill="white"/>
<circle cx="461.704" cy="88.2216" r="5.33261" transform="rotate(9.3463 461.704 88.2216)" fill="white"/>
<circle cx="453.112" cy="66.5399" r="5.33261" transform="rotate(9.3463 453.112 66.5399)" fill="white"/>
<circle cx="446.617" cy="106.005" r="5.33261" transform="rotate(9.3463 446.617 106.005)" fill="white"/>
<circle cx="491.877" cy="52.6542" r="5.33261" transform="rotate(9.3463 491.877 52.6542)" fill="white"/>
<circle cx="485.382" cy="92.1181" r="5.33261" transform="rotate(9.3463 485.382 92.1181)" fill="white"/>
<circle cx="476.79" cy="70.4374" r="5.33261" transform="rotate(9.3463 476.79 70.4374)" fill="white"/>
<circle cx="470.295" cy="109.901" r="5.33261" transform="rotate(9.3463 470.295 109.901)" fill="white"/>
<circle cx="493.973" cy="113.798" r="5.33261" transform="rotate(9.3463 493.973 113.798)" fill="white"/>
</g>
</g>
</svg>
