<svg width="1600" height="687" viewBox="0 0 1600 687" fill="none" xmlns="http://www.w3.org/2000/svg">
<rect y="138" width="1600" height="549" fill="#8565C6"/>
<g opacity="0.3">
<path d="M1576.13 165.058L1571.7 181.611M1565.64 171.117L1582.19 175.552" stroke="white" stroke-width="2"/>
<path d="M1370.83 162.807L1375.27 146.253M1381.33 156.748L1364.77 152.312" stroke="white" stroke-width="2"/>
<path d="M1528.63 192.483L1524.19 209.037M1518.13 198.542L1534.69 202.978" stroke="white" stroke-width="2"/>
<path d="M1418.33 135.382L1422.77 118.828M1428.83 129.323L1412.27 124.887" stroke="white" stroke-width="2"/>
<path d="M1548.08 226.176L1543.65 242.73M1537.59 232.235L1554.14 236.671" stroke="white" stroke-width="2"/>
<path d="M1398.88 101.688L1403.31 85.1342M1409.37 95.6289L1392.82 91.1933" stroke="white" stroke-width="2"/>
<path d="M1562.27 195.894L1557.83 212.447M1551.77 201.953L1568.33 206.388" stroke="white" stroke-width="2"/>
<path d="M1609.77 168.468L1605.33 185.022M1599.27 174.527L1615.83 178.962" stroke="white" stroke-width="2"/>
<path d="M1384.7 131.971L1389.13 115.417M1395.19 125.912L1378.64 121.476" stroke="white" stroke-width="2"/>
<path d="M1337.19 159.397L1341.63 142.843M1347.69 153.338L1331.13 148.902" stroke="white" stroke-width="2"/>
<path d="M1514.76 223.319L1510.33 239.873M1504.27 229.378L1520.82 233.814" stroke="white" stroke-width="2"/>
<path d="M1534.22 257.012L1529.78 273.566M1523.72 263.071L1540.28 267.507" stroke="white" stroke-width="2"/>
<path d="M1556.68 131.364L1552.24 147.918M1546.18 137.423L1562.74 141.858" stroke="white" stroke-width="2"/>
<path d="M1390.28 196.5L1394.72 179.947M1400.78 190.441L1384.22 186.006" stroke="white" stroke-width="2"/>
<path d="M1509.18 158.79L1504.74 175.343M1498.68 164.849L1515.24 169.284" stroke="white" stroke-width="2"/>
<path d="M1437.79 169.075L1442.22 152.521M1448.28 163.016L1431.73 158.58" stroke="white" stroke-width="2"/>
<path d="M1542.81 162.199L1538.38 178.753M1532.32 168.258L1548.87 172.694" stroke="white" stroke-width="2"/>
<path d="M1590.32 134.774L1585.88 151.328M1579.82 140.834L1596.38 145.269" stroke="white" stroke-width="2"/>
<path d="M1404.15 165.665L1408.58 149.111M1414.64 159.605L1398.09 155.17" stroke="white" stroke-width="2"/>
<path d="M1356.65 193.09L1361.08 176.537M1367.14 187.031L1350.59 182.596" stroke="white" stroke-width="2"/>
<path d="M1495.31 189.625L1490.88 206.179M1484.82 195.684L1501.37 200.12" stroke="white" stroke-width="2"/>
<path d="M1537.23 97.6704L1532.79 114.224M1526.73 103.73L1543.29 108.165" stroke="white" stroke-width="2"/>
<path d="M1409.74 230.194L1414.17 213.641M1420.23 224.135L1403.68 219.7" stroke="white" stroke-width="2"/>
<path d="M1489.72 125.096L1485.29 141.65M1479.23 131.155L1495.78 135.591" stroke="white" stroke-width="2"/>
<path d="M1457.24 202.769L1461.67 186.215M1467.73 196.71L1451.18 192.274" stroke="white" stroke-width="2"/>
<path d="M1523.36 128.506L1518.93 145.06M1512.87 134.565L1529.42 139.001" stroke="white" stroke-width="2"/>
<path d="M1570.86 101.08L1566.43 117.634M1560.37 107.139L1576.92 111.575" stroke="white" stroke-width="2"/>
<path d="M1423.6 199.359L1428.04 182.805M1434.1 193.3L1417.54 188.864" stroke="white" stroke-width="2"/>
<path d="M1376.1 226.784L1380.53 210.23M1386.59 220.725L1370.04 216.289" stroke="white" stroke-width="2"/>
<path d="M1475.86 155.932L1471.42 172.485M1465.36 161.991L1481.92 166.426" stroke="white" stroke-width="2"/>
<path d="M1517.77 63.9771L1513.34 80.5309M1507.28 70.0362L1523.83 74.4718" stroke="white" stroke-width="2"/>
<path d="M1429.19 263.888L1433.62 247.334M1439.68 257.829L1423.13 253.393" stroke="white" stroke-width="2"/>
<path d="M1470.27 91.4019L1465.83 107.956M1459.78 97.461L1476.33 101.897" stroke="white" stroke-width="2"/>
<path d="M1476.69 236.462L1481.13 219.908M1487.19 230.403L1470.63 225.967" stroke="white" stroke-width="2"/>
<path d="M1450.82 57.7085L1446.38 74.2623M1440.32 63.7676L1456.88 68.2032" stroke="white" stroke-width="2"/>
<path d="M1496.14 270.156L1500.58 253.602M1506.64 264.097L1490.09 259.662" stroke="white" stroke-width="2"/>
<path d="M1503.91 94.8125L1499.47 111.366M1493.41 100.872L1509.97 105.307" stroke="white" stroke-width="2"/>
<path d="M1551.41 67.3867L1546.97 83.9405M1540.92 73.4458L1557.47 77.8814" stroke="white" stroke-width="2"/>
<path d="M1443.05 233.052L1447.49 216.498M1453.55 226.993L1437 222.558" stroke="white" stroke-width="2"/>
<path d="M1395.55 260.478L1399.99 243.924M1406.05 254.419L1389.49 249.983" stroke="white" stroke-width="2"/>
<path d="M1456.41 122.238L1451.97 138.792M1445.91 128.297L1462.46 132.733" stroke="white" stroke-width="2"/>
<path d="M1484.45 61.1191L1480.02 77.673M1473.96 67.1783L1490.51 71.6138" stroke="white" stroke-width="2"/>
<path d="M1531.96 33.6934L1527.52 50.2472M1521.46 39.7525L1538.02 44.1881" stroke="white" stroke-width="2"/>
<path d="M1462.51 266.746L1466.94 250.192M1473 260.686L1456.45 256.251" stroke="white" stroke-width="2"/>
<path d="M1415 294.171L1419.44 277.618M1425.5 288.112L1408.95 283.677" stroke="white" stroke-width="2"/>
<path d="M1436.95 88.5444L1432.52 105.098M1426.46 94.6036L1443.01 99.0391" stroke="white" stroke-width="2"/>
<path d="M1417.5 54.8511L1413.06 71.4049M1407 60.9102L1423.56 65.3458" stroke="white" stroke-width="2"/>
</g>
</svg>
