<svg width="76" height="76" viewBox="0 0 76 76" fill="none" xmlns="http://www.w3.org/2000/svg">
<circle cx="38" cy="38" r="38" fill="#E3EAF1"/>
<path d="M67.4204 29L59.1775 34.1176H57.0588V27.2941C57.0588 27.144 57.0247 27.0058 57.0145 26.8574C62.9202 25.3562 67.2941 20.0185 67.2941 13.6471C67.2941 6.11047 61.1836 0 53.6471 0C46.1105 0 39.9983 6.11047 39.9983 13.6471C39.9983 16.1428 40.7011 18.4611 41.8731 20.4706H34.7459C34.8261 19.9111 34.8824 19.3447 34.8824 18.7647C34.8824 12.1698 29.5361 6.82353 22.9412 6.82353C16.3479 6.82353 11 12.1698 11 18.7647C11 23.5241 13.7942 27.6234 17.8235 29.5408V47.7647C17.8235 51.533 20.8788 54.5882 24.6471 54.5882H50.2353C54.0036 54.5882 57.0588 51.533 57.0588 47.7647V42.6471H59.1775L67.4204 47.7647H69V29H67.4204ZM58.299 5.07841C61.3048 6.71435 63.3501 9.88729 63.3894 13.5413L57.3659 12.5382C57.1748 11.8968 56.8371 11.3185 56.3714 10.8631L58.299 5.07841ZM56.7637 15.8971L62.823 16.907C61.6971 20.0748 58.9779 22.4682 55.6344 23.1659C55.0032 22.3419 54.1964 21.6732 53.2598 21.2075L54.326 17.4716C55.2745 17.2789 56.1615 16.7006 56.7637 15.8971ZM53.6471 3.89794C54.1281 3.89794 54.5972 3.944 55.0595 4.01224L53.1302 9.79859C52.441 9.89071 51.8132 10.1568 51.2861 10.5594L45.8341 7.83341C47.6116 5.45029 50.4451 3.89794 53.6471 3.89794ZM43.8979 13.6471C43.8979 12.6866 44.0429 11.7604 44.3005 10.8835L49.7491 13.6078L49.7457 13.6471C49.7457 14.7678 50.2796 15.7709 51.0609 16.4822L49.9214 20.4706H46.7297C44.9897 18.7135 43.8979 16.3151 43.8979 13.6471ZM28.3949 12.9903C29.9319 14.442 30.9025 16.4839 30.9025 18.7647C30.9025 19.3515 30.8292 19.9196 30.7098 20.4706H26.5235C26.7709 19.952 26.921 19.3771 26.921 18.7647C26.921 17.9493 26.6736 17.1919 26.2523 16.5607L28.3949 12.9903ZM22.9412 10.8034C23.8265 10.8034 24.6641 10.9825 25.4591 11.2486L23.3165 14.8207C23.1919 14.8088 23.0691 14.7832 22.9412 14.7832C22.1258 14.7832 21.3684 15.0305 20.7372 15.4519L17.1668 13.311C18.6185 11.774 20.6604 10.8034 22.9412 10.8034ZM14.9798 18.7647C14.9798 17.8794 15.1589 17.0418 15.4251 16.2451L18.9989 18.3894C18.9869 18.5139 18.9614 18.6351 18.9614 18.7647C18.9614 20.0441 19.5755 21.17 20.5137 21.8984C19.4492 22.7155 18.6424 23.8329 18.2056 25.1311C16.2592 23.6794 14.9798 21.3798 14.9798 18.7647Z" fill="#31373D"/>
<path d="M50.2353 34.118C52.1195 34.118 53.647 32.5905 53.647 30.7062C53.647 28.8219 52.1195 27.2944 50.2353 27.2944C48.351 27.2944 46.8235 28.8219 46.8235 30.7062C46.8235 32.5905 48.351 34.118 50.2353 34.118Z" fill="#8899A6"/>
<path d="M24.6469 34.118C26.5311 34.118 28.0586 32.5905 28.0586 30.7062C28.0586 28.8219 26.5311 27.2944 24.6469 27.2944C22.7626 27.2944 21.2351 28.8219 21.2351 30.7062C21.2351 32.5905 22.7626 34.118 24.6469 34.118Z" fill="#8899A6"/>
<path d="M50.2355 44.3527C50.2355 42.4694 48.707 40.9409 46.8237 40.9409H28.059C26.1757 40.9409 24.6472 42.4694 24.6472 44.3527V54.588C24.6472 56.4713 26.1757 57.9997 28.059 57.9997H46.8237C48.707 57.9997 50.2355 56.4713 50.2355 54.588V44.3527Z" fill="#8899A6"/>
</svg>
