<svg width="84" height="85" viewBox="0 0 84 85" fill="none" xmlns="http://www.w3.org/2000/svg">
<circle cx="38" cy="47" r="38" fill="#E3EAF1"/>
<path d="M71.4965 15.1971C71.4965 14.9304 71.2813 14.7134 71.0128 14.7134H70.1392C69.8725 14.7134 69.6555 14.9304 69.6555 15.1971V36.3015C69.6555 36.5681 69.8707 36.7851 70.1392 36.7851H71.0128C71.2795 36.7851 71.4965 36.57 71.4965 36.3015V15.1971Z" fill="#66757F"/>
<path d="M70.5769 38.6225C72.1005 38.6225 73.3356 37.3873 73.3356 35.8637C73.3356 34.3401 72.1005 33.105 70.5769 33.105C69.0532 33.105 67.8181 34.3401 67.8181 35.8637C67.8181 37.3873 69.0532 38.6225 70.5769 38.6225Z" fill="#F19020"/>
<path d="M70.5768 42.3004C71.5926 42.3004 72.416 41.477 72.416 40.4612C72.416 39.4455 71.5926 38.6221 70.5768 38.6221C69.5611 38.6221 68.7377 39.4455 68.7377 40.4612C68.7377 41.477 69.5611 42.3004 70.5768 42.3004Z" fill="#F19020"/>
<path d="M80.6923 14.7133H73.0984L37.8325 0.0735664L37.8288 0.0717273H37.827C37.7976 0.0588532 37.7681 0.0625315 37.7405 0.0533357C37.6541 0.0275874 37.5677 0 37.472 0H37.4683C37.347 0 37.2293 0.0257482 37.1189 0.0698881C37.0361 0.106671 36.9644 0.161846 36.8945 0.220699C36.8725 0.237252 36.8467 0.246448 36.8265 0.266678C36.74 0.35128 36.6702 0.454273 36.6242 0.568301V0.57014C36.6168 0.586692 36.6187 0.606923 36.6131 0.623475L26.4223 14.9873C26.4168 14.9947 26.4168 15.0057 26.4113 15.0131C25.8872 15.3368 25.5175 15.8903 25.5175 16.5524V20.2308C25.5175 21.246 26.3414 22.0699 27.3566 22.0699H30.1062L23.2755 62.0717H20V65.75H54.8668V62.0717H51.6667L44.8379 22.0699H80.6923C81.7094 22.0699 82.5315 21.246 82.5315 20.2308V16.5524C82.5315 15.5372 81.7094 14.7133 80.6923 14.7133ZM40.6556 22.0699L37.472 24.6245L34.2903 22.0699H40.6556ZM37.472 38.7143L44.2162 43.1357L37.472 46.814L30.7278 43.1357L37.472 38.7143ZM30.7793 40.0201L31.6511 34.8999L35.083 37.1492L30.7793 40.0201ZM39.8611 37.1492L43.3003 34.8962L44.1776 40.0257L39.8611 37.1492ZM37.472 35.5565L32.2709 32.0897L37.472 27.8191L42.6732 32.0897L37.472 35.5565ZM32.7583 28.4077L33.424 24.4958L35.5041 26.2025L32.7583 28.4077ZM39.4399 26.2044L41.5219 24.4958L42.1913 28.4132L39.4399 26.2044ZM28.8703 14.7133L36.5524 3.88431V11.035H32.8741C31.8589 11.035 31.035 11.8589 31.035 12.8741V14.7133H28.8703ZM29.845 45.4972L34.8659 48.2357L28.8151 51.5351L29.845 45.4972ZM47.9424 62.0717H27.0201L28.2817 54.6709L37.472 49.6573L46.6789 54.6801L47.9424 62.0717ZM45.1101 45.4916L46.1437 51.5443L40.0781 48.2357L45.1101 45.4916ZM43.9091 14.7133V12.8741C43.9091 11.8589 43.0851 11.035 42.0699 11.035H38.3916V2.29711L68.3019 14.7133H43.9091ZM47.5874 20.2308H45.454V16.5524H47.5874V20.2308ZM53.1049 20.2308H49.4266V16.5524H53.1049V20.2308ZM58.6224 20.2308H54.9441V16.5524H58.6224V20.2308ZM64.1399 20.2308H60.4615V16.5524H64.1399V20.2308ZM69.6573 20.2308H65.979V16.5524H69.6573V20.2308ZM75.1748 20.2308H71.4965V16.5524H75.1748V20.2308ZM80.6923 19.3112C80.6923 19.8188 80.2803 20.2308 79.7727 20.2308H77.014V16.5524H79.7727C80.2803 16.5524 80.6923 16.9644 80.6923 17.472V19.3112Z" fill="#BD2032"/>
<path d="M42.07 12.874H38.3917C37.3764 12.874 36.5525 13.698 36.5525 14.7132V18.3915C36.5525 19.4067 37.3764 20.2307 38.3917 20.2307H43.9091V12.874H42.07Z" fill="#4B545D"/>
<path d="M40.2307 12.874H43.909V20.2307H40.2307V12.874Z" fill="#CDD7DF"/>
<path d="M83.6239 43.68V41.8408H57.5299V43.68H59.0822V48.2209H57.5299V50.06H83.6239V48.2209H82.0717V43.68H83.6239Z" fill="#66757F"/>
</svg>
