<svg width="84" height="76" viewBox="0 0 84 76" fill="none" xmlns="http://www.w3.org/2000/svg">
<circle cx="38" cy="38" r="38" fill="#E3EAF1"/>
<path d="M56 54.4256C56 57.0028 53.9105 59.0923 51.3333 59.0923H25.6667C23.0895 59.0923 21 57.0028 21 54.4256V21.759C21 19.1818 23.0895 17.0923 25.6667 17.0923H51.3333C53.9105 17.0923 56 19.1818 56 21.759V54.4256Z" fill="#CCD6DD"/>
<path d="M51 45.1832C51 45.8367 50.492 46.365 49.8636 46.365H27.1364C26.5091 46.365 26 45.8367 26 45.1832C26 44.5296 26.5091 44.0014 27.1364 44.0014H49.8636C50.492 44.0014 51 44.5296 51 45.1832ZM32.8182 49.9105C32.8182 50.564 32.3091 51.0923 31.6818 51.0923H27.1364C26.5091 51.0923 26 50.564 26 49.9105C26 49.2569 26.5091 48.7286 27.1364 48.7286H31.6818C32.3091 48.7286 32.8182 49.2569 32.8182 49.9105ZM51 26.2741C51 26.9265 50.492 27.4559 49.8636 27.4559H27.1364C26.5091 27.4559 26 26.9265 26 26.2741C26 25.6217 26.5091 25.0923 27.1364 25.0923H49.8636C50.492 25.0923 51 25.6217 51 26.2741ZM51 31.0014C51 31.6549 50.492 32.1832 49.8636 32.1832H27.1364C26.5091 32.1832 26 31.6549 26 31.0014C26 30.3478 26.5091 29.8196 27.1364 29.8196H49.8636C50.492 29.8196 51 30.3478 51 31.0014ZM51 35.7286C51 36.3822 50.492 36.9105 49.8636 36.9105H27.1364C26.5091 36.9105 26 36.3822 26 35.7286C26 35.0751 26.5091 34.5468 27.1364 34.5468H49.8636C50.492 34.5468 51 35.0751 51 35.7286ZM51 40.4559C51 41.1095 50.492 41.6377 49.8636 41.6377H27.1364C26.5091 41.6377 26 41.1095 26 40.4559C26 39.8024 26.5091 39.2741 27.1364 39.2741H49.8636C50.492 39.2741 51 39.8024 51 40.4559Z" fill="#99AAB5"/>
<path d="M75.7034 14.894C74.2791 13.9726 72.5397 13.8969 71.3617 14.8544L69.9977 15.967L67.4419 18.0526L67.2697 18.1904L63.1777 21.528L42.7211 38.2095C41.9685 38.8243 41.3554 40.3089 40.701 41.7814C40.05 43.2452 39.0321 46.6931 38.2158 49.3436C37.9609 49.7742 36.3816 52.5229 37.2669 53.5682C38.1624 54.6274 41.2727 53.5855 41.6895 53.4374C44.4899 53.1377 48.1151 52.795 49.6944 52.4385C51.2857 52.0751 52.8874 51.7582 53.64 51.1434C53.6538 51.133 53.6572 51.1124 53.6693 51.1037L74.0914 34.4567L75.4554 33.3442L75.7034 33.141V14.894Z" fill="#66757F"/>
<path d="M53.5641 42.8872C53.5641 42.8872 51.37 39.6477 49.9181 38.4904C48.7608 37.0386 45.5282 34.8462 45.5282 34.8462C44.7566 34.0781 43.477 34.0195 42.7227 34.7721C41.9701 35.5265 41.357 37.1247 40.7025 38.7177C39.8896 40.6914 38.505 45.8718 37.6576 48.624C37.5147 49.0924 38.548 47.849 38.5239 48.2623C38.5067 48.5843 38.5704 48.9408 38.6513 49.2629L38.3999 49.5367L38.7581 49.6521C38.8012 49.7933 38.8442 49.9173 38.8752 50.0138L39.1491 49.7623C39.4711 49.8433 39.8276 49.907 40.148 49.8898C40.5613 49.8657 39.3161 50.9007 39.7863 50.7561C42.5384 49.907 47.7206 48.5241 49.6925 47.7112C51.2838 47.055 52.8855 46.4436 53.6381 45.6893C54.3942 44.9401 54.3373 43.6605 53.5641 42.8872Z" fill="#D99E82"/>
<path d="M65.9074 11.5862C64.3987 13.0932 64.3987 15.5353 65.9074 17.0422L71.3617 22.4982C72.8703 24.0034 75.3124 24.0034 76.8177 22.4982L82.2754 17.0422C83.7806 15.5353 83.7806 13.0932 82.2754 11.5862L76.8177 6.13021C75.3124 4.62326 72.8703 4.62326 71.3617 6.13021L65.9074 11.5862Z" fill="#EA596E"/>
<path d="M42.7211 34.7742L48.1805 40.2336L53.6313 45.6862L74.0931 25.2279L63.1793 14.3159L42.7211 34.7742Z" fill="#FFCC4D"/>
<path d="M41.772 50.1483C41.772 50.1483 38.2242 52.0996 37.2667 51.1403C36.3074 50.1793 38.2673 46.6436 38.2673 46.6436C38.2673 46.6436 41.6274 46.7056 41.772 50.1483Z" fill="#292F33"/>
<path d="M63.1794 14.3137L69.9994 7.49365L80.9114 18.4074L74.0914 25.2274L63.1794 14.3137Z" fill="#CCD6DD"/>
<path d="M67.2695 10.22L68.6335 8.85596L79.5455 19.7662L78.1815 21.1302L67.2695 10.22ZM64.5432 12.948L65.9055 11.5857L76.8175 22.496L75.4535 23.86L64.5432 12.948Z" fill="#99AAB5"/>
</svg>
