<svg width="76" height="76" viewBox="0 0 76 76" fill="none" xmlns="http://www.w3.org/2000/svg">
<circle cx="38" cy="38" r="38" fill="#E3EAF1"/>
<path d="M29.2689 55.6529C28.8946 58.6488 26.1617 59.7216 23.1658 59.7216C20.1699 59.7216 18.0447 57.2926 18.419 54.2966L19.7752 42.0905C20.1495 39.0946 22.8824 36.6655 25.8783 36.6655C28.8742 36.6655 34.6504 36.6655 30.6251 42.0905C26.5998 47.5154 29.2689 55.6529 29.2689 55.6529Z" fill="#BE1931"/>
<path d="M60.3499 33.953C60.3499 43.3137 58.2559 50.906 55.6709 50.906C53.0872 50.906 27.9358 43.3137 27.9358 33.953C27.9358 24.5909 53.0872 17 55.6709 17C58.2559 17 60.3499 24.5909 60.3499 33.953Z" fill="#CCD6DD"/>
<path d="M55.6708 50.906C58.255 50.906 60.3499 43.3159 60.3499 33.953C60.3499 24.5901 58.255 17 55.6708 17C53.0867 17 50.9918 24.5901 50.9918 33.953C50.9918 43.3159 53.0867 50.906 55.6708 50.906Z" fill="#66757F"/>
<path d="M36.0732 43.4468L17.0859 42.0906C10.3047 42.0906 10.3047 25.8157 17.0859 25.8157L36.0732 24.4595C32.0045 28.5282 32.0045 39.3781 36.0732 43.4468Z" fill="#DD2E44"/>
<path d="M54.2469 39.8495C55.3704 39.8495 56.2812 37.2094 56.2812 33.9526C56.2812 30.6958 55.3704 28.0557 54.2469 28.0557C53.1233 28.0557 52.2125 30.6958 52.2125 33.9526C52.2125 37.2094 53.1233 39.8495 54.2469 39.8495Z" fill="#99AAB5"/>
</svg>
