<svg width="86" height="76" viewBox="0 0 86 76" fill="none" xmlns="http://www.w3.org/2000/svg">
<circle cx="38" cy="38" r="38" fill="#E3EAF1"/>
<path d="M38.3639 16C24.356 16 13 25.7341 13 37.7397C13 39.2418 13.1775 40.7086 13.5171 42.1248C16.0239 46.438 17.7585 43.7157 25.6819 39.7533C33.7519 35.7176 25.6819 45.3897 22.8637 51.0261C21.9971 52.7593 22.4664 54.2262 23.6528 55.4281C27.804 57.9702 32.874 59.4807 38.3639 59.4807C52.3718 59.4807 63.7277 49.748 63.7277 37.7397C63.7277 25.7341 52.3718 16 38.3639 16ZM42.3784 50.4484C41.8218 52.345 38.912 53.1595 35.8782 52.2675C32.8444 51.377 30.8364 49.1196 31.393 47.2215C31.9496 45.3249 34.8594 44.5104 37.8932 45.4038C40.927 46.2929 42.935 48.5503 42.3784 50.4484Z" fill="#D99E82"/>
<path d="M27.0911 31.2984C29.4258 31.2984 31.3184 29.4057 31.3184 27.0711C31.3184 24.7364 29.4258 22.8438 27.0911 22.8438C24.7564 22.8438 22.8638 24.7364 22.8638 27.0711C22.8638 29.4057 24.7564 31.2984 27.0911 31.2984Z" fill="#5C913B"/>
<path d="M41.182 28.4805C43.5167 28.4805 45.4093 26.5879 45.4093 24.2532C45.4093 21.9185 43.5167 20.0259 41.182 20.0259C38.8473 20.0259 36.9547 21.9185 36.9547 24.2532C36.9547 26.5879 38.8473 28.4805 41.182 28.4805Z" fill="#226699"/>
<path d="M53.864 36.9346C56.1987 36.9346 58.0913 35.042 58.0913 32.7073C58.0913 30.3726 56.1987 28.48 53.864 28.48C51.5294 28.48 49.6367 30.3726 49.6367 32.7073C49.6367 35.042 51.5294 36.9346 53.864 36.9346Z" fill="#DD2E44"/>
<path d="M52.4549 49.6172C54.7895 49.6172 56.6822 47.7246 56.6822 45.3899C56.6822 43.0552 54.7895 41.1626 52.4549 41.1626C50.1202 41.1626 48.2275 43.0552 48.2275 45.3899C48.2275 47.7246 50.1202 49.6172 52.4549 49.6172Z" fill="#FFCC4D"/>
<path d="M60.2407 31.3937C63.6232 29.3599 68.2161 26.8176 72.1394 22.8943C80.5895 14.4453 87.4398 2.49619 85.7389 0.795349C84.0393 -0.904289 72.0901 5.94595 63.64 14.3949C59.7155 18.3194 57.1744 22.9111 55.1406 26.2935L60.2407 31.3937Z" fill="#3B88C3"/>
<path d="M43.2419 39.893C43.2419 39.893 51.7413 41.5926 57.6913 35.6427C60.2407 33.0932 60.2407 29.6939 60.2407 29.6939L56.8403 26.2935C56.8403 26.2935 52.5912 27.1445 50.8903 28.8441C49.1907 30.5438 47.8637 33.931 47.4189 35.573C46.6064 38.5804 43.2419 39.893 43.2419 39.893Z" fill="#C1694F"/>
<path d="M64.2217 28.5748L58.0097 22.3628C57.5397 21.8928 56.8582 21.971 56.4832 22.5371L55.1333 24.5865C54.7595 25.1527 54.8076 25.9592 55.2379 26.3907L60.1926 31.3466C60.6229 31.7769 61.4306 31.8238 61.9968 31.4512L64.0462 30.1001C64.6136 29.7263 64.6905 29.0448 64.2217 28.5748Z" fill="#CCD6DD"/>
<path d="M56.2248 36.9074C54.7932 37.8317 54.03 37.0612 54.2908 36.1754C54.5564 35.2726 54.1466 34.1944 52.8039 34.4757C51.4613 34.7558 50.573 34.0502 50.9973 32.3518C51.4156 30.6774 49.6931 30.1124 48.889 31.8289C48.1894 33.2232 47.6665 34.6644 47.4201 35.5731C46.6064 38.5818 43.2419 39.8944 43.2419 39.8944C43.2419 39.8944 50.4396 41.3175 56.2248 36.9074Z" fill="#A0041E"/>
</svg>
