<svg width="76" height="76" viewBox="0 0 76 76" fill="none" xmlns="http://www.w3.org/2000/svg">
<circle cx="38" cy="38" r="38" fill="#E3EAF1"/>
<path d="M70 54.192C69.166 52.266 68.208 50.176 66 50.176H64C66.208 50.176 68 48.378 68 46.16V12.016C68 9.798 66.208 8 64 8H12C9.792 8 8 9.798 8 12.016V46.16C8 48.378 9.792 50.176 12 50.176H10C7.792 50.176 6.666 52.184 6 54.192L2 63.982C2 66.202 3.792 68 6 68H70C72.208 68 74 66.202 74 63.984L70 54.192Z" fill="#CCD6DD"/>
<path d="M2.01611 64.1504L2.02811 64.2644L2.36811 65.6484C3.00011 67.0324 4.38411 68.0004 6.00011 68.0004H70.0001C72.1521 68.0004 73.8941 66.2904 73.9841 64.1504H2.01611Z" fill="#9AAAB4"/>
<path d="M64 44.1491C64 45.2591 63.106 46.1571 62 46.1571H14C12.896 46.1571 12 45.2591 12 44.1491V14.0251C12 12.9151 12.896 12.0171 14 12.0171H62C63.106 12.0171 64 12.9171 64 14.0251V44.1491Z" fill="#5DADEC"/>
<path d="M67.8122 58.0836L66.2922 53.7336C65.8142 52.8136 65.0222 52.0596 63.9162 52.0596H12.2202C11.1162 52.0596 10.4082 52.8756 9.90822 54.1316L8.53222 58.0856C8.09422 59.2776 9.42822 60.0936 10.5322 60.0936H25.6882C25.6882 60.0936 27.5622 59.9996 27.8942 58.8776C28.2782 57.5816 28.7242 55.6296 28.8202 55.2856C28.9682 54.7576 29.5962 54.2236 30.5322 54.2236H47.6882C48.6882 54.2236 49.1802 54.7296 49.3102 55.3556C49.3942 55.7636 49.9342 57.6376 50.1862 58.9196C50.4082 60.0616 52.6282 60.0916 52.6282 60.0916H65.8162C66.9182 60.0916 68.2502 59.1496 67.8122 58.0836Z" fill="#AEBBC1"/>
<path d="M46.7499 62.2257H31.1879C30.4379 62.2257 30.1119 61.5397 30.2199 60.8757C30.3279 60.2137 30.9379 57.2897 30.9859 56.9497C31.0319 56.6077 31.5339 56.1997 32.0339 56.1997H46.0639C46.6579 56.1997 47.0439 56.5257 47.1639 57.1777C47.2819 57.8317 47.7679 60.4597 47.8059 61.0597C47.8439 61.6617 47.4679 62.2257 46.7499 62.2257Z" fill="#9AAAB4"/>
</svg>
