<svg width="76" height="76" viewBox="0 0 76 76" fill="none" xmlns="http://www.w3.org/2000/svg">
<circle cx="38" cy="38" r="38" fill="#E3EAF1"/>
<path d="M65.9365 35.0958L48.5509 28.6605L42.0589 7.38319C41.8088 6.56265 41.0488 6 40.1912 6C39.3335 6 38.5736 6.56265 38.3235 7.38319L31.8334 28.6605L14.4459 35.0958C13.6781 35.381 13.1702 36.1097 13.1702 36.9283C13.1702 37.745 13.6781 38.4776 14.4459 38.7609L31.8237 45.1942L38.3176 67.1201C38.5638 67.9485 39.3257 68.517 40.1912 68.517C41.0547 68.517 41.8186 67.9485 42.0647 67.1182L48.5587 45.1923L65.9384 38.7589C66.7023 38.4776 67.2122 37.7469 67.2122 36.9283C67.2122 36.1117 66.7023 35.381 65.9365 35.0958Z" fill="#FFAC33"/>
<path d="M26.8633 56.5873L22.3425 54.915L20.5842 48.4679C20.3537 47.6161 19.582 47.0261 18.7009 47.0261C17.8198 47.0261 17.0481 47.6161 16.8156 48.4659L15.0573 54.913L10.5385 56.5853C9.77075 56.8686 9.2628 57.6012 9.2628 58.4179C9.2628 59.2345 9.77075 59.9671 10.5385 60.2504L15.0339 61.9169L16.8059 68.993C17.0247 69.8604 17.8042 70.47 18.7009 70.47C19.5976 70.47 20.3771 69.8604 20.596 68.9911L22.3679 61.9149L26.8633 60.2484C27.6311 59.9671 28.139 59.2345 28.139 58.4179C28.139 57.6012 27.6311 56.8686 26.8633 56.5873ZM18.3883 14.2652L13.7699 12.5558L12.0585 7.9354C11.7752 7.16762 11.0445 6.65967 10.226 6.65967C9.40932 6.65967 8.67866 7.16762 8.39342 7.9354L6.68397 12.5558L2.06358 14.2652C1.29579 14.5505 0.787842 15.2812 0.787842 16.0978C0.787842 16.9144 1.29579 17.647 2.06358 17.9303L6.68397 19.6398L8.39342 24.2602C8.67866 25.0279 9.40932 25.5359 10.226 25.5359C11.0426 25.5359 11.7732 25.0279 12.0585 24.2602L13.7679 19.6398L18.3883 17.9303C19.1561 17.6451 19.6641 16.9144 19.6641 16.0978C19.6641 15.2812 19.1561 14.5505 18.3883 14.2652Z" fill="#FFCC4D"/>
</svg>
