<svg width="84" height="76" viewBox="0 0 84 76" fill="none" xmlns="http://www.w3.org/2000/svg">
<circle cx="42" cy="38" r="38" fill="#E3EAF1"/>
<path fill-rule="evenodd" clip-rule="evenodd" d="M0.739213 29.9523C1.32885 30.5395 4.27212 32.3035 4.8593 34.0674C5.44894 35.829 6.62821 47.1058 10.1611 50.0466C13.8046 53.0734 27.548 51.9457 30.1793 50.6362C36.0683 47.7003 36.7906 38.217 37.8323 34.065C38.4195 31.7138 41.9524 31.7138 41.9524 31.7138C41.9524 31.7138 45.4853 31.7138 46.0749 34.0625C47.1166 38.217 47.8438 47.7274 53.7279 50.6584C56.3616 51.9728 70.1051 53.1004 73.7535 50.0736C77.2815 47.1328 78.4583 35.8265 79.0479 34.0625C79.6326 32.301 82.5808 30.537 83.168 29.9498C83.7601 29.3626 83.7601 27.0115 83.168 26.4218C81.9912 25.2475 68.0979 24.2009 53.1383 25.8346C50.1532 26.1614 49.0182 27.009 41.9499 27.009C34.8866 27.009 33.7466 26.1589 30.764 25.8346C15.8143 24.2033 1.91849 25.2499 0.739213 26.4243C0.152033 27.0115 0.152033 29.3651 0.739213 29.9523Z" fill="#31373D"/>
</svg>
