<svg width="76" height="83" viewBox="0 0 76 83" fill="none" xmlns="http://www.w3.org/2000/svg">
<circle cx="38" cy="45" r="38" fill="#E3EAF1"/>
<path d="M68 53.3335C68 57.0152 65.015 60.0002 61.3333 60.0002H14.6667C10.985 60.0002 8 57.0152 8 53.3335V38.3335C8 34.6518 9.31833 33.3335 13 33.3335H63C66.6817 33.3335 68 34.6518 68 38.3335V53.3335Z" fill="#D99E82"/>
<path d="M49.6668 33.3335C49.6668 39.7768 44.4435 45.0002 38.0002 45.0002C31.5568 45.0002 26.3335 39.7768 26.3335 33.3335H49.6668Z" fill="#662113"/>
<path d="M14.6667 59.9997H61.3333C65.015 59.9997 68 57.0147 68 53.333H8C8 57.0147 10.985 59.9997 14.6667 59.9997Z" fill="#C1694F"/>
<path d="M52.5267 13.3333H44.555V3.33333C44.555 1.49167 43.0617 0 41.2217 0H34.5533C32.7133 0 31.2217 1.49333 31.2217 3.33333V13.3333H23.2467C21.2083 13.3333 20.72 14.3717 22.1617 15.815L35.2667 28.92C36.7083 30.3617 39.0667 30.3617 40.51 28.92L53.615 15.815C55.0533 14.3717 54.5667 13.3333 52.5267 13.3333Z" fill="#77B255"/>
</svg>
