<svg width="62" height="62" viewBox="0 0 62 62" fill="none" xmlns="http://www.w3.org/2000/svg">
<path d="M31 0C48.1208 0 62 13.8792 62 31C62 48.1208 48.1208 62 31 62C13.8792 62 0 48.1208 0 31C0 13.8792 13.8792 0 31 0Z" fill="#CCD6DD"/>
<path d="M31 6.88911C44.3162 6.88911 55.1111 17.684 55.1111 31.0002C55.1111 44.3164 44.3162 55.1113 31 55.1113C17.6838 55.1113 6.88892 44.3164 6.88892 31.0002C6.88892 17.684 17.6838 6.88911 31 6.88911Z" fill="#3B88C3"/>
<path d="M31.0001 13.7777C40.5116 13.7777 48.2223 21.4884 48.2223 30.9999C48.2223 40.5115 40.5116 48.2222 31.0001 48.2222C21.4885 48.2222 13.7778 40.5115 13.7778 30.9999C13.7778 21.4884 21.4885 13.7777 31.0001 13.7777Z" fill="#DD2E44"/>
<path d="M31 20.6668C36.7069 20.6668 41.3333 25.2932 41.3333 31.0002C41.3333 36.7071 36.7069 41.3335 31 41.3335C25.293 41.3335 20.6666 36.7071 20.6666 31.0002C20.6666 25.2932 25.293 20.6668 31 20.6668Z" fill="#FFAC33"/>
<path d="M60.0436 11.7131C59.3202 11.1861 57.8787 10.6935 56.7128 10.6935C53.3286 10.6935 48.6976 11.9283 45.8042 14.8027L40.7168 21.4712C40.2449 21.9448 40.1019 22.4614 40.3551 23.0763C40.61 23.6946 39.0979 24.1113 39.7661 24.1113H48.4771C51.6925 24.1113 55.8964 21.9482 58.6813 18.9137L59.3202 18.3092C60.6498 16.8573 61.3576 15.5037 61.3559 14.1999C61.3559 13.1304 60.8874 12.3279 60.0436 11.7131Z" fill="black"/>
<path d="M48.7475 1.37128C47.4197 1.37128 45.9369 2.08944 44.4592 3.44483L43.6187 4.09583C40.5274 6.92888 37.8889 11.2103 37.8889 14.4843V23.3778C37.8889 24.0598 38.75 22.4926 39.3786 22.7527C40.0038 23.011 40.9545 22.8663 41.4367 22.3841L46.8892 17.0039C49.8153 14.0572 52.161 9.04894 52.161 5.60277C52.161 4.41616 51.9147 3.44138 51.3825 2.70599C50.7556 1.84661 49.8377 1.37128 48.7475 1.37128Z" fill="black"/>
<path d="M53.9831 6.95141C53.5422 6.95141 53.1444 7.16152 52.8068 7.49735L28.6957 31.6085C28.0223 32.2819 28.0223 33.3703 28.6957 34.0454C29.3691 34.7188 30.4575 34.7171 31.1309 34.0454L55.242 9.9343C55.9154 9.26091 55.893 8.15008 55.2197 7.47669C54.8855 7.14085 54.4257 6.95141 53.9831 6.95141Z" fill="#C1694F"/>
</svg>
