<svg width="76" height="76" viewBox="0 0 76 76" fill="none" xmlns="http://www.w3.org/2000/svg">
<circle cx="38" cy="38" r="38" fill="#E3EAF1"/>
<path d="M62.5009 16C65.8146 16 68.5009 13.3137 68.5009 10C68.5009 6.6863 65.8146 4 62.5009 4C59.1872 4 56.5009 6.6863 56.5009 10C56.5009 13.3137 59.1872 16 62.5009 16Z" fill="#FFE8B6"/>
<path d="M62.5009 14.5C64.9862 14.5 67.0009 12.4853 67.0009 10C67.0009 7.51472 64.9862 5.5 62.5009 5.5C60.0156 5.5 58.0009 7.51472 58.0009 10C58.0009 12.4853 60.0156 14.5 62.5009 14.5Z" fill="#FFD983"/>
<path d="M67.7509 4.75L61.4404 8.93951L63.5614 11.0605L67.7509 4.75ZM57.2509 15.25L61.4404 8.93951L63.5614 11.0605L57.2509 15.25Z" fill="#FFCC4D"/>
<path d="M67.7508 15.25L63.5613 8.93945L61.4403 11.0605L67.7508 15.25Z" fill="#FFCC4D"/>
<path d="M57.2509 4.75L63.5614 8.93951L61.4404 11.0605L57.2509 4.75Z" fill="#FFCC4D"/>
<path d="M53.5009 24.2498C53.2864 24.2498 53.0734 24.1583 52.9249 23.9798C52.6594 23.6618 52.7029 23.1878 53.0194 22.9223C61.5829 15.7867 61.7494 10.0507 61.7494 9.99373C61.7539 9.58123 62.0629 9.19273 62.5039 9.24973C62.9179 9.25423 63.2509 9.58723 63.2509 9.99973C63.2509 10.2592 63.1459 16.4392 53.9809 24.0758C53.8414 24.1928 53.6704 24.2498 53.5009 24.2498Z" fill="#C1694F"/>
<path d="M26.2398 57.1257L19.8753 50.7612C18.7082 49.5942 18.7082 47.6847 19.8753 46.5192L48.5133 17.8811C49.6803 16.7141 51.5898 16.7141 52.7553 17.8811L59.1198 24.2456C60.2868 25.4126 60.2868 27.3221 59.1198 28.4876L30.4818 57.1257C29.3163 58.2912 27.4068 58.2912 26.2398 57.1257Z" fill="#DD2E44"/>
<path d="M46.3924 20.002L56.9989 30.607L53.8174 33.79L43.2108 23.1835L46.3924 20.002ZM25.1808 41.215L35.7858 51.82L32.6058 55.003L21.9978 44.398L25.1808 41.215Z" fill="#FFCC4D"/>
<path d="M52.7568 17.8809L54.8778 20.0019L50.6358 24.2439L48.5133 22.1229L52.7568 17.8809ZM24.1187 46.5189L26.2397 48.6399L21.9977 52.8819L19.8767 50.7609L24.1187 46.5189ZM45.3318 25.3059L47.4528 27.4269L29.4227 45.4569L27.3002 43.3359L45.3318 25.3059Z" fill="#EA596E"/>
<path d="M48.5135 22.123L50.636 24.2441L47.453 27.4271L45.3319 25.3046L48.5135 22.123ZM27.3019 43.3361L29.4229 45.4586L26.2399 48.6386L24.1189 46.5191L27.3019 43.3361Z" fill="#FFD983"/>
</svg>
