<svg width="76" height="80" viewBox="0 0 76 80" fill="none" xmlns="http://www.w3.org/2000/svg">
<circle cx="38" cy="42" r="38" fill="#E3EAF1"/>
<path d="M63 55.6522C63 58.7203 60.5125 61.2078 57.4444 61.2078H18.5556C15.4875 61.2078 13 58.7203 13 55.6522V30.6522C13 27.5842 15.4875 25.0967 18.5556 25.0967H57.4444C60.5125 25.0967 63 27.5842 63 30.6522V55.6522Z" fill="#CCD6DD"/>
<path d="M29.5971 42.6465L13.8846 58.3591C13.8471 58.3979 13.8332 58.4466 13.8013 58.4854C14.2735 59.2771 14.9318 59.9341 15.7235 60.4077C15.7638 60.3757 15.811 60.3618 15.8485 60.3243L31.5624 44.6104C32.104 44.0674 32.104 43.1896 31.5624 42.6465C31.0179 42.1035 30.1402 42.1035 29.5971 42.6465ZM62.1985 58.4854C62.1693 58.4466 62.1527 58.3979 62.1152 58.3604L46.404 42.6465C45.8596 42.1035 44.9818 42.1035 44.4388 42.6465C43.8957 43.191 43.8957 44.0688 44.4388 44.6104L60.1513 60.3243C60.1874 60.3604 60.2374 60.3757 60.2763 60.4077C61.0693 59.9354 61.7263 59.2771 62.1985 58.4854Z" fill="#99AAB5"/>
<path d="M57.4444 25.0967H18.5556C15.4875 25.0967 13 27.5842 13 30.6522V32.0828L33.1778 52.2161C35.8083 54.8467 40.1056 54.8467 42.7389 52.2161L63 32.0536V30.6522C63 27.5842 60.5125 25.0967 57.4444 25.0967Z" fill="#99AAB5"/>
<path d="M57.4444 25.0967H18.5556C16.35 25.0967 14.4597 26.3939 13.5625 28.2564L34.0708 48.7661C36.2403 50.9356 39.7597 50.9356 41.9278 48.7661L62.4375 28.2564C61.5403 26.3939 59.6514 25.0967 57.4444 25.0967Z" fill="#E1E8ED"/>
<path d="M50.1054 10.5137H43.5554V3.56928C43.5554 2.03595 42.3124 0.791504 40.7777 0.791504H35.2221C33.6888 0.791504 32.4443 2.03595 32.4443 3.56928V10.5137H25.7054C24.0068 10.5137 23.6013 11.3804 24.8013 12.5818L35.7221 23.5026C36.9235 24.704 38.8888 24.704 40.0901 23.5026L51.011 12.5818C52.211 11.3804 51.8054 10.5137 50.1054 10.5137Z" fill="#55ACEE"/>
</svg>
