<svg width="508" height="524" viewBox="0 0 508 524" fill="none" xmlns="http://www.w3.org/2000/svg">
<g opacity="0.3">
<path d="M354.767 438.67C351.856 440.211 345.862 437.231 347.232 430.792C348.944 422.742 343.806 418.632 337.127 420.687" stroke="#F97232" stroke-width="2"/>
<path d="M375.833 456.595C372.921 458.137 366.927 455.157 368.297 448.717C370.01 440.668 364.872 436.557 358.193 438.613" stroke="#F97232" stroke-width="2"/>
<path d="M404.263 464.474C401.351 466.015 395.357 463.035 396.727 456.595C398.44 448.546 393.302 444.436 386.623 446.491" stroke="#F97232" stroke-width="2"/>
<path d="M363.502 429.193C360.59 430.734 354.596 427.754 355.966 421.315C357.679 413.266 352.541 409.155 345.862 411.21" stroke="#F97232" stroke-width="2"/>
<path d="M384.567 447.119C381.656 448.66 375.662 445.68 377.032 439.241C378.744 431.191 373.606 427.081 366.927 429.136" stroke="#F97232" stroke-width="2"/>
<path d="M412.997 454.997C410.086 456.538 404.091 453.558 405.462 447.119C407.174 439.069 402.036 434.959 395.357 437.014" stroke="#F97232" stroke-width="2"/>
<path d="M372.236 419.717C369.325 421.258 363.331 418.278 364.701 411.838C366.413 403.789 361.275 399.679 354.596 401.734" stroke="#F97232" stroke-width="2"/>
<path d="M393.302 437.642C390.39 439.184 384.396 436.204 385.766 429.764C387.479 421.715 382.341 417.604 375.662 419.659" stroke="#F97232" stroke-width="2"/>
<path d="M421.732 445.52C418.82 447.062 412.826 444.082 414.196 437.642C415.909 429.593 410.771 425.482 404.091 427.538" stroke="#F97232" stroke-width="2"/>
<path d="M380.971 410.24C378.059 411.781 372.065 408.801 373.435 402.362C375.148 394.312 370.01 390.202 363.331 392.257" stroke="#F97232" stroke-width="2"/>
<path d="M402.036 428.166C399.125 429.707 393.131 426.727 394.501 420.287C396.213 412.238 391.075 408.128 384.396 410.183" stroke="#F97232" stroke-width="2"/>
<path d="M430.466 436.044C427.555 437.585 421.56 434.605 422.931 428.166C424.643 420.116 419.505 416.006 412.826 418.061" stroke="#F97232" stroke-width="2"/>
<path d="M389.705 400.763C386.794 402.305 380.799 399.325 382.17 392.885C383.882 384.836 378.744 380.725 372.065 382.781" stroke="#F97232" stroke-width="2"/>
<path d="M410.771 418.689C407.859 420.231 401.865 417.251 403.235 410.811C404.948 402.762 399.81 398.651 393.131 400.706" stroke="#F97232" stroke-width="2"/>
<path d="M439.201 426.567C436.289 428.108 430.295 425.129 431.665 418.689C433.378 410.64 428.24 406.529 421.56 408.584" stroke="#F97232" stroke-width="2"/>
<path d="M398.44 391.287C395.528 392.828 389.534 389.848 390.904 383.409C392.617 375.359 387.479 371.249 380.8 373.304" stroke="#F97232" stroke-width="2"/>
<path d="M419.505 409.213C416.594 410.754 410.599 407.774 411.97 401.334C413.682 393.285 408.544 389.175 401.865 391.23" stroke="#F97232" stroke-width="2"/>
<path d="M447.935 417.091C445.024 418.632 439.029 415.652 440.399 409.212C442.112 401.163 436.974 397.053 430.295 399.108" stroke="#F97232" stroke-width="2"/>
<path d="M407.174 381.81C404.263 383.351 398.269 380.371 399.639 373.932C401.351 365.883 396.213 361.772 389.534 363.827" stroke="#F97232" stroke-width="2"/>
<path d="M428.24 399.736C425.328 401.277 419.334 398.297 420.704 391.858C422.417 383.808 417.279 379.698 410.599 381.753" stroke="#F97232" stroke-width="2"/>
<path d="M456.67 407.614C453.758 409.155 447.764 406.176 449.134 399.736C450.847 391.687 445.709 387.576 439.029 389.631" stroke="#F97232" stroke-width="2"/>
<path d="M415.909 372.334C412.997 373.875 407.003 370.895 408.373 364.455C410.086 356.406 404.948 352.296 398.268 354.351" stroke="#F97232" stroke-width="2"/>
<path d="M436.974 390.259C434.063 391.801 428.068 388.821 429.439 382.381C431.151 374.332 426.013 370.221 419.334 372.277" stroke="#F97232" stroke-width="2"/>
<path d="M465.404 398.138C462.493 399.679 456.498 396.699 457.869 390.259C459.581 382.21 454.443 378.1 447.764 380.155" stroke="#F97232" stroke-width="2"/>
<path d="M424.643 362.857C421.732 364.398 415.738 361.418 417.108 354.979C418.82 346.929 413.682 342.819 407.003 344.874" stroke="#F97232" stroke-width="2"/>
<path d="M445.709 380.783C442.797 382.324 436.803 379.344 438.173 372.905C439.886 364.855 434.748 360.745 428.068 362.8" stroke="#F97232" stroke-width="2"/>
<path d="M474.139 388.661C471.227 390.202 465.233 387.222 466.603 380.783C468.316 372.733 463.178 368.623 456.498 370.678" stroke="#F97232" stroke-width="2"/>
<path d="M433.378 353.38C430.466 354.922 424.472 351.942 425.842 345.502C427.555 337.453 422.417 333.342 415.737 335.398" stroke="#F97232" stroke-width="2"/>
<path d="M454.443 371.306C451.532 372.848 445.537 369.868 446.907 363.428C448.62 355.379 443.482 351.268 436.803 353.324" stroke="#F97232" stroke-width="2"/>
<path d="M482.873 379.184C479.962 380.726 473.967 377.746 475.337 371.306C477.05 363.257 471.912 359.146 465.233 361.202" stroke="#F97232" stroke-width="2"/>
</g>
<path opacity="0.6" d="M117.161 313.443C27.9352 304.545 2.70902 418.879 65.5001 452.49C128.291 486.101 152.669 430.49 200.169 430.49C247.669 430.49 293 430.49 338 357.49C402.23 253.294 246.056 220.469 200.169 246.961C164.656 267.465 232.919 324.988 117.161 313.443Z" fill="#FFCAB7"/>
<g opacity="0.54">
<path d="M128.708 331.689L137.633 340.614M128.708 340.614L137.633 331.689" stroke="white" stroke-width="2"/>
<path d="M51.671 461.806L42.746 452.881M51.671 452.881L42.746 461.806" stroke="white" stroke-width="2"/>
<path d="M128.708 372.086L137.633 381.011M128.708 381.011L137.633 372.086" stroke="white" stroke-width="2"/>
<path d="M51.671 421.408L42.746 412.483M51.671 412.483L42.746 421.408" stroke="white" stroke-width="2"/>
<path d="M157.362 372.086L166.287 381.011M157.362 381.011L166.287 372.086" stroke="white" stroke-width="2"/>
<path d="M23.0171 421.408L14.0921 412.483M23.0171 412.483L14.0921 421.408" stroke="white" stroke-width="2"/>
<path d="M143.27 351.887L152.195 360.812M143.27 360.812L152.195 351.887" stroke="white" stroke-width="2"/>
<path d="M143.27 311.49L152.195 320.415M143.27 320.415L152.195 311.49" stroke="white" stroke-width="2"/>
<path d="M37.1091 441.607L28.1841 432.682M37.1091 432.682L28.1841 441.607" stroke="white" stroke-width="2"/>
<path d="M37.1091 482.004L28.1841 473.079M37.1091 473.079L28.1841 482.004" stroke="white" stroke-width="2"/>
<path d="M143.27 392.285L152.195 401.21M143.27 401.21L152.195 392.285" stroke="white" stroke-width="2"/>
<path d="M171.923 392.285L180.848 401.21M171.923 401.21L180.848 392.285" stroke="white" stroke-width="2"/>
<path d="M100.054 331.689L108.979 340.614M100.054 340.614L108.979 331.689" stroke="white" stroke-width="2"/>
<path d="M80.3249 461.806L71.3999 452.881M80.3249 452.881L71.3999 461.806" stroke="white" stroke-width="2"/>
<path d="M100.054 372.086L108.979 381.011M100.054 381.011L108.979 372.086" stroke="white" stroke-width="2"/>
<path d="M80.3249 421.408L71.3999 412.483M80.3249 412.483L71.3999 421.408" stroke="white" stroke-width="2"/>
<path d="M114.616 351.887L123.541 360.812M114.616 360.812L123.541 351.887" stroke="white" stroke-width="2"/>
<path d="M114.616 311.49L123.541 320.415M114.616 320.415L123.541 311.49" stroke="white" stroke-width="2"/>
<path d="M65.7631 441.607L56.8381 432.682M65.7631 432.682L56.8381 441.607" stroke="white" stroke-width="2"/>
<path d="M65.7631 482.004L56.8381 473.079M65.7631 473.079L56.8381 482.004" stroke="white" stroke-width="2"/>
<path d="M114.616 392.285L123.541 401.21M114.616 401.21L123.541 392.285" stroke="white" stroke-width="2"/>
<path d="M71.3999 331.689L80.3249 340.614M71.3999 340.614L80.3249 331.689" stroke="white" stroke-width="2"/>
<path d="M108.979 461.806L100.054 452.881M108.979 452.881L100.054 461.806" stroke="white" stroke-width="2"/>
<path d="M71.3999 372.086L80.3249 381.011M71.3999 381.011L80.3249 372.086" stroke="white" stroke-width="2"/>
<path d="M108.979 421.408L100.054 412.483M108.979 412.483L100.054 421.408" stroke="white" stroke-width="2"/>
<path d="M85.9617 351.887L94.8867 360.812M85.9617 360.812L94.8867 351.887" stroke="white" stroke-width="2"/>
<path d="M85.9617 311.49L94.8867 320.415M85.9617 320.415L94.8867 311.49" stroke="white" stroke-width="2"/>
<path d="M94.417 441.607L85.492 432.682M94.417 432.682L85.492 441.607" stroke="white" stroke-width="2"/>
<path d="M94.417 482.004L85.492 473.079M94.417 473.079L85.492 482.004" stroke="white" stroke-width="2"/>
<path d="M85.9617 392.285L94.8867 401.21M85.9617 401.21L94.8867 392.285" stroke="white" stroke-width="2"/>
<path d="M42.746 331.689L51.671 340.614M42.746 340.614L51.671 331.689" stroke="white" stroke-width="2"/>
<path d="M137.633 461.806L128.708 452.881M137.633 452.881L128.708 461.806" stroke="white" stroke-width="2"/>
<path d="M42.746 372.086L51.671 381.011M42.746 381.011L51.671 372.086" stroke="white" stroke-width="2"/>
<path d="M137.633 421.408L128.708 412.483M137.633 412.483L128.708 421.408" stroke="white" stroke-width="2"/>
<path d="M14.092 372.086L23.017 381.011M14.092 381.011L23.017 372.086" stroke="white" stroke-width="2"/>
<path d="M166.287 421.408L157.362 412.483M166.287 412.483L157.362 421.408" stroke="white" stroke-width="2"/>
<path d="M57.3079 351.887L66.2329 360.812M57.3079 360.812L66.2329 351.887" stroke="white" stroke-width="2"/>
<path d="M57.3079 311.49L66.2329 320.415M57.3079 320.415L66.2329 311.49" stroke="white" stroke-width="2"/>
<path d="M123.071 441.607L114.146 432.682M123.071 432.682L114.146 441.607" stroke="white" stroke-width="2"/>
<path d="M123.071 482.004L114.146 473.079M123.071 473.079L114.146 482.004" stroke="white" stroke-width="2"/>
<path d="M57.3079 392.285L66.2329 401.21M57.3079 401.21L66.2329 392.285" stroke="white" stroke-width="2"/>
<path d="M28.6539 351.887L37.5789 360.812M28.6539 360.812L37.5789 351.887" stroke="white" stroke-width="2"/>
<path d="M28.6539 311.49L37.5789 320.415M28.6539 320.415L37.5789 311.49" stroke="white" stroke-width="2"/>
<path d="M151.725 441.607L142.8 432.682M151.725 432.682L142.8 441.607" stroke="white" stroke-width="2"/>
<path d="M151.725 482.004L142.8 473.079M151.725 473.079L142.8 482.004" stroke="white" stroke-width="2"/>
<path d="M28.6539 392.285L37.5789 401.21M28.6539 401.21L37.5789 392.285" stroke="white" stroke-width="2"/>
<path d="M0 392.285L8.92499 401.21M0 401.21L8.92499 392.285" stroke="white" stroke-width="2"/>
</g>
<path d="M63.3638 108.283C63.3638 135.674 25.8744 135.119 35.0797 163.506C44.285 191.893 103.113 170.694 159.292 212.563C215.47 254.432 235.61 191.363 217.06 165.394C198.675 139.655 222.543 128.018 229.335 108.283C238.682 81.1257 221.831 76.3558 192.681 81.6557C165.398 86.6163 153.639 76.5735 135.443 62.5761C100.993 36.0767 63.3637 50.3865 63.3638 108.283Z" fill="#C2DBF1"/>
<mask id="mask0" mask-type="alpha" maskUnits="userSpaceOnUse" x="0" y="0" width="283" height="283">
<path d="M63.3296 108.283C63.3296 135.674 25.8402 135.119 35.0455 163.506C44.2508 191.893 103.079 170.694 159.257 212.563C215.436 254.432 235.576 191.363 217.026 165.394C198.641 139.655 222.509 128.018 229.301 108.283C238.647 81.1257 221.796 76.3558 192.647 81.6557C165.363 86.6163 153.605 76.5735 135.408 62.5761C100.959 36.0767 63.3296 50.3865 63.3296 108.283Z" fill="#E8F0F0"/>
</mask>
<g mask="url(#mask0)">
<path d="M217.526 104.192L205.066 90.8282" stroke="#E0F0F3" stroke-width="2"/>
<path d="M185.149 157.676L172.689 144.312" stroke="#E0F0F3" stroke-width="2"/>
<path d="M195.437 83.7365L198.604 70.0478" stroke="#E0F0F3" stroke-width="2"/>
<path d="M163.06 137.22L166.227 123.531" stroke="#E0F0F3" stroke-width="2"/>
<path d="M195.603 101.827L189.232 82.5751" stroke="#E0F0F3" stroke-width="2"/>
<path d="M163.226 155.31L156.855 136.059" stroke="#E0F0F3" stroke-width="2"/>
<path d="M215.044 119.067L198.207 114.556" stroke="#E0F0F3" stroke-width="2"/>
<path d="M182.667 172.551L165.83 168.039" stroke="#E0F0F3" stroke-width="2"/>
<path d="M208.854 134.365L191.804 137.991" stroke="#E0F0F3" stroke-width="2"/>
<path d="M180.287 190.037L163.237 193.663" stroke="#E0F0F3" stroke-width="2"/>
<path d="M192.161 133.07L175.366 128.404" stroke="#E0F0F3" stroke-width="2"/>
<path d="M159.784 186.553L142.989 181.887" stroke="#E0F0F3" stroke-width="2"/>
<path d="M192.922 118.398L181.869 104.919" stroke="#E0F0F3" stroke-width="2"/>
<path d="M160.545 171.881L149.492 158.402" stroke="#E0F0F3" stroke-width="2"/>
<path d="M171.175 95.2638L176.741 78.7452" stroke="#E0F0F3" stroke-width="2"/>
<path d="M138.798 148.747L144.364 132.229" stroke="#E0F0F3" stroke-width="2"/>
<path d="M170.625 116.021L166.263 99.145" stroke="#E0F0F3" stroke-width="2"/>
<path d="M138.249 169.505L133.886 152.629" stroke="#E0F0F3" stroke-width="2"/>
<path d="M172.588 74.489L184.664 61.9183" stroke="#E0F0F3" stroke-width="2"/>
<path d="M140.211 127.972L152.286 115.402" stroke="#E0F0F3" stroke-width="2"/>
<path d="M151.345 65.8133L167.919 60.4153" stroke="#E0F0F3" stroke-width="2"/>
<path d="M118.968 119.297L135.542 113.899" stroke="#E0F0F3" stroke-width="2"/>
<path d="M148.006 87.6805L160.809 75.8509" stroke="#E0F0F3" stroke-width="2"/>
<path d="M115.629 141.164L128.431 129.334" stroke="#E0F0F3" stroke-width="2"/>
<path d="M145.29 109.368L151.196 92.9677" stroke="#E0F0F3" stroke-width="2"/>
<path d="M112.913 162.851L118.819 146.451" stroke="#E0F0F3" stroke-width="2"/>
<path d="M126.003 102.512L136.734 88.7756" stroke="#E0F0F3" stroke-width="2"/>
<path d="M93.6263 155.996L104.357 142.259" stroke="#E0F0F3" stroke-width="2"/>
<path d="M104.05 92.3662L121.124 88.856" stroke="#E0F0F3" stroke-width="2"/>
<path d="M71.6735 145.85L88.7476 142.339" stroke="#E0F0F3" stroke-width="2"/>
<path d="M127.28 78.8844L144.187 74.6399" stroke="#E0F0F3" stroke-width="2"/>
<path d="M94.9036 132.368L111.81 128.123" stroke="#E0F0F3" stroke-width="2"/>
<path d="M132.965 54.9644L149.801 59.4798" stroke="#E0F0F3" stroke-width="2"/>
<path d="M100.588 108.448L117.425 112.963" stroke="#E0F0F3" stroke-width="2"/>
<path d="M71.1649 173.534L83.1977 160.923" stroke="#E0F0F3" stroke-width="2"/>
<path d="M96.5048 180.735L102.377 164.322" stroke="#E0F0F3" stroke-width="2"/>
<path d="M120.72 188.609L122.68 171.288" stroke="#E0F0F3" stroke-width="2"/>
<path d="M107.318 198.526L109.278 181.205" stroke="#E0F0F3" stroke-width="2"/>
<path d="M76.0994 189.771L85.1032 174.845" stroke="#E0F0F3" stroke-width="2"/>
<path d="M44.519 180.371L59.6684 171.749" stroke="#E0F0F3" stroke-width="2"/>
<path d="M132.497 204.131L144.823 191.805" stroke="#E0F0F3" stroke-width="2"/>
<path d="M108.058 69.3444L124.895 73.8598" stroke="#E0F0F3" stroke-width="2"/>
<path d="M75.6815 122.828L92.5177 127.343" stroke="#E0F0F3" stroke-width="2"/>
<path d="M91.1968 60.4215L101.968 74.1268" stroke="#E0F0F3" stroke-width="2"/>
<path d="M58.8196 113.905L69.5904 127.61" stroke="#E0F0F3" stroke-width="2"/>
<path d="M115.295 46.8273L126.066 60.5326" stroke="#E0F0F3" stroke-width="2"/>
<path d="M82.9178 100.311L93.6886 114.016" stroke="#E0F0F3" stroke-width="2"/>
<path d="M196.503 215.124L207.274 228.83" stroke="#E0F0F3" stroke-width="2"/>
<path d="M205.635 203.706L221.599 210.707" stroke="#E0F0F3" stroke-width="2"/>
<path d="M215.175 187.806L231.139 194.807" stroke="#E0F0F3" stroke-width="2"/>
<path d="M67.8528 74.2178L78.6236 87.9231" stroke="#E0F0F3" stroke-width="2"/>
<path d="M35.4764 127.701L46.2472 141.406" stroke="#E0F0F3" stroke-width="2"/>
<path d="M83.1512 83.7245L99.9874 88.2399" stroke="#E0F0F3" stroke-width="2"/>
<path d="M50.7744 137.208L67.6106 141.723" stroke="#E0F0F3" stroke-width="2"/>
<path d="M50.8789 164.347L66.3268 156.272" stroke="#E0F0F3" stroke-width="2"/>
<path d="M58.2446 98.1046L75.0808 102.62" stroke="#E0F0F3" stroke-width="2"/>
<path d="M25.8675 151.588L42.7037 156.103" stroke="#E0F0F3" stroke-width="2"/>
<path d="M226.611 122.668L216.597 124.496" stroke="#E0F0F3" stroke-width="2"/>
<path d="M202.986 179.524L184.221 181.068" stroke="#E0F0F3" stroke-width="2"/>
<path d="M232.719 101.747L223.615 98.3049" stroke="#E0F0F3" stroke-width="2"/>
<path d="M225.065 137.793L214.917 147.606" stroke="#E0F0F3" stroke-width="2"/>
<path d="M196.297 190.745L186.148 200.558" stroke="#E0F0F3" stroke-width="2"/>
<path d="M202.689 148.34L192.54 158.153" stroke="#E0F0F3" stroke-width="2"/>
<path d="M168.737 204.525L158.589 214.337" stroke="#E0F0F3" stroke-width="2"/>
<path d="M213.753 156.594L209.41 170.026" stroke="#E0F0F3" stroke-width="2"/>
<path d="M185.325 211.945L180.981 225.376" stroke="#E0F0F3" stroke-width="2"/>
</g>
<rect x="100" y="99" width="300" height="300" rx="10" fill="#F3F6FA"/>
<path d="M455.168 90.4938C416.168 165.494 373.5 171.5 294 158L294 223.5C433 228 460.969 177.001 485.5 104C485.5 104 486.668 95.4938 474.668 88.9938C462.668 82.4938 455.168 90.4938 455.168 90.4938Z" fill="url(#paint0_linear)"/>
<mask id="mask1" mask-type="alpha" maskUnits="userSpaceOnUse" x="100" y="25" width="331" height="374">
<rect x="100" y="25" width="331" height="374" rx="29" fill="#E3EAF1"/>
</mask>
<g mask="url(#mask1)">
<path d="M325.5 172.94C278.987 137.473 208.464 157.793 181.124 172.94C164.798 187.28 170.183 191.365 183.788 289.693C197.393 388.02 158.346 484.404 147.134 521.708C197.471 546.973 288.314 503.47 325.5 493C310.5 345 396.244 226.884 325.5 172.94Z" fill="url(#paint1_linear)"/>
<path d="M286.744 99.3051C287.076 101.13 287.727 102.673 288.471 103.694C289.256 104.772 289.939 105.022 290.336 104.95C290.734 104.878 291.285 104.403 291.639 103.117C291.976 101.9 292.041 100.226 291.709 98.4015C291.377 96.5769 290.726 95.0338 289.982 94.0127C289.197 92.9348 288.515 92.6842 288.117 92.7565C287.72 92.8289 287.169 93.304 286.814 94.5894C286.478 95.8069 286.412 97.4805 286.744 99.3051Z" stroke="#0E1232" stroke-width="1.79808"/>
<path d="M291.044 104.657C286.249 103.542 282.245 84.7122 280.614 77.808L259.812 72.7875L232.836 96.236C236.952 101.624 240.259 119.635 244.154 126.295C249.564 135.544 253.558 146.245 246.853 163.629C245.987 165.875 256.313 172.548 265.573 172.481C270.611 172.444 278.453 168.71 280.614 162.295C274.649 147.087 281.715 131.284 292.398 126.525C289.354 120.742 288.477 113.828 289.581 113.486C295.939 111.523 297.037 106.051 291.044 104.657Z" fill="#FFA79B"/>
<path d="M252.14 102.628L276.518 99.333" stroke="#0E1232" stroke-width="1.79808"/>
<path d="M277.413 101.143C277.812 103.337 278.612 105.198 279.54 106.435C280.504 107.72 281.415 108.11 282.05 107.994C282.685 107.879 283.401 107.193 283.85 105.65C284.283 104.166 284.376 102.142 283.977 99.9487C283.578 97.7552 282.778 95.8943 281.849 94.6571C280.885 93.3719 279.974 92.982 279.339 93.0976C278.704 93.2132 277.989 93.8989 277.539 95.4415C277.107 96.9264 277.014 98.9498 277.413 101.143Z" stroke="#0E1232" stroke-width="1.79808"/>
<path d="M232.129 101.735C237.554 110.537 241.533 121.684 244.424 126.747C257.65 125.481 254.138 118.885 250.223 115.593C245.003 111.205 239.49 106.023 246.336 102.599C253.942 98.7942 264.044 121.321 265.175 131.725C266.306 142.128 270.232 147.895 281.212 148.358C292.193 148.82 302.255 141.902 296.861 127.263C291.303 112.179 286.961 110.172 278.366 125.963C271.382 138.793 268.927 115.014 260.196 101.099C254.334 91.7543 244.633 71.1309 266.261 78.4903C293.864 87.8827 297.299 64.8857 287.281 69.4786C279.266 73.153 272.53 71.0064 270.163 69.4739C236.3 55.8022 225.729 91.3498 232.129 101.735Z" fill="#18214D"/>
<path d="M145.5 235C160.398 166.009 199.865 156.481 216.884 179.168C230 201.5 183 278.5 212.5 398.5C227.204 402.9 185.319 413.563 186 422.5C151.5 395 130.602 303.991 145.5 235Z" fill="url(#paint2_linear)"/>
<path d="M268.624 172.091C259.797 174.274 249.775 167.315 247.247 163.903C247.247 163.903 247.937 161.857 248.626 159.127C249.316 156.398 249.678 153.805 249.678 153.805C222.095 157.899 248.626 184.372 256.901 188.466C258.28 187.102 267.244 175.275 268.624 172.091Z" fill="url(#paint3_linear)"/>
<path d="M279.098 185.697C279.098 181.819 270.951 173.924 268.624 171.847C274.184 171.295 278.784 164.452 280.203 162.34L280.223 162.311C280.223 162.311 279.45 159.991 279.063 158.058C278.676 156.125 278.676 154.192 278.676 154.192C307.306 153.499 279.098 190.545 279.098 185.697Z" fill="url(#paint4_linear)"/>
<path d="M297.439 75.7672C275.697 91.5851 254.9 77.1426 243.421 79.8937C240.18 57.3359 262.777 62.2416 273.131 68.202C288.436 69.5775 319.182 59.9492 297.439 75.7672Z" fill="url(#paint5_linear)"/>
<path d="M236.059 57.8127C218.183 66.6838 222.529 86.0104 231.999 98.7667C231.999 79.4308 262.666 68.7785 273.263 68.5547C270.558 61.1696 257.706 47.0705 236.059 57.8127Z" fill="url(#paint6_linear)"/>
</g>
<path d="M452.033 60.2338C458.094 69.6202 461.728 74.7299 460.566 86.2278C459.405 97.7257 473.744 108.056 479.535 103.06C485.325 98.0647 504.669 64.1766 503.192 61.2498C501.132 57.1694 495.629 67.0634 492.196 71.3279C490.762 69.6485 501.756 51.7641 499.736 48.8901C495.982 43.5505 489.531 62.0504 487.129 63.2604C483.542 62.0553 495.179 44.3901 491.55 39.4644C487.743 34.2975 479.667 59.3345 477.822 61.0796C473.74 60.9352 483.057 40.9664 478.959 36.5139C474.952 32.1608 469.134 54.6163 466.044 66.982C464.199 57.7278 447.042 52.5028 452.033 60.2338Z" fill="#FFA79B"/>
<defs>
<linearGradient id="paint0_linear" x1="406.5" y1="88.5" x2="427.157" y2="287.145" gradientUnits="userSpaceOnUse">
<stop stop-color="#B6B0FF"/>
<stop offset="1" stop-color="#7952B8"/>
</linearGradient>
<linearGradient id="paint1_linear" x1="254.5" y1="104.5" x2="481.85" y2="292.361" gradientUnits="userSpaceOnUse">
<stop stop-color="#B6B0FF"/>
<stop offset="1" stop-color="#7952B8"/>
</linearGradient>
<linearGradient id="paint2_linear" x1="148" y1="241.5" x2="474.495" y2="436.208" gradientUnits="userSpaceOnUse">
<stop stop-color="#B6B0FF"/>
<stop offset="1" stop-color="#7952B8"/>
</linearGradient>
<linearGradient id="paint3_linear" x1="186.563" y1="200.748" x2="238.081" y2="83.6622" gradientUnits="userSpaceOnUse">
<stop stop-color="#B6B0FF"/>
<stop offset="1" stop-color="#7952B8"/>
</linearGradient>
<linearGradient id="paint4_linear" x1="348.925" y1="218.247" x2="201.638" y2="223.842" gradientUnits="userSpaceOnUse">
<stop stop-color="#B6B0FF"/>
<stop offset="1" stop-color="#7952B8"/>
</linearGradient>
<linearGradient id="paint5_linear" x1="272.153" y1="62.1895" x2="275.794" y2="83.0217" gradientUnits="userSpaceOnUse">
<stop stop-color="#B6B0FF"/>
<stop offset="1" stop-color="#7952B8"/>
</linearGradient>
<linearGradient id="paint6_linear" x1="245.107" y1="50.2999" x2="262.563" y2="88.1047" gradientUnits="userSpaceOnUse">
<stop stop-color="#B6B0FF"/>
<stop offset="1" stop-color="#7952B8"/>
</linearGradient>
</defs>
</svg>
