<svg width="519" height="618" viewBox="0 0 519 618" fill="none" xmlns="http://www.w3.org/2000/svg">
<path d="M314.004 162.943C288.446 97.3106 385.974 80.3403 400.696 84.0206C415.417 87.7009 436.558 99.2735 428.707 134.932C418.893 179.504 446.291 179.504 470.826 216.307C495.361 253.11 402.945 310.769 400.082 240.025C397.22 169.281 339.562 228.575 314.004 162.943Z" fill="#F8EBFC"/>
<mask id="mask0" mask-type="alpha" maskUnits="userSpaceOnUse" x="288" y="54" width="235" height="235">
<path d="M314.004 162.943C288.446 97.3106 385.974 80.3403 400.696 84.0206C415.417 87.7009 436.558 99.2735 428.707 134.932C418.893 179.504 446.291 179.504 470.826 216.307C495.361 253.11 402.945 310.769 400.082 240.025C397.22 169.281 339.562 228.575 314.004 162.943Z" fill="black"/>
</mask>
<g mask="url(#mask0)">
<circle cx="420.12" cy="290.323" r="2.31322" transform="rotate(-135 420.12 290.323)" fill="white"/>
<circle cx="432.387" cy="278.055" r="2.31322" transform="rotate(-135 432.387 278.055)" fill="white"/>
<circle cx="444.655" cy="265.787" r="2.31322" transform="rotate(-135 444.655 265.787)" fill="white"/>
<circle cx="456.923" cy="253.519" r="2.31322" transform="rotate(-135 456.923 253.519)" fill="white"/>
<circle cx="469.191" cy="241.252" r="2.31322" transform="rotate(-135 469.191 241.252)" fill="white"/>
<circle cx="481.458" cy="228.984" r="2.31322" transform="rotate(-135 481.458 228.984)" fill="white"/>
<circle cx="493.726" cy="216.716" r="2.31322" transform="rotate(-135 493.726 216.716)" fill="white"/>
<circle cx="505.994" cy="204.449" r="2.31322" transform="rotate(-135 505.994 204.449)" fill="white"/>
<circle cx="518.261" cy="192.181" r="2.31322" transform="rotate(-135 518.261 192.181)" fill="white"/>
<circle cx="429.934" cy="287.869" r="2.31322" transform="rotate(-135 429.934 287.869)" fill="white"/>
<circle cx="442.202" cy="275.601" r="2.31322" transform="rotate(-135 442.202 275.601)" fill="white"/>
<circle cx="454.469" cy="263.334" r="2.31322" transform="rotate(-135 454.469 263.334)" fill="white"/>
<circle cx="466.737" cy="251.066" r="2.31322" transform="rotate(-135 466.737 251.066)" fill="white"/>
<circle cx="479.005" cy="238.798" r="2.31322" transform="rotate(-135 479.005 238.798)" fill="white"/>
<circle cx="491.272" cy="226.531" r="2.31322" transform="rotate(-135 491.272 226.531)" fill="white"/>
<circle cx="503.54" cy="214.263" r="2.31322" transform="rotate(-135 503.54 214.263)" fill="white"/>
<circle cx="515.808" cy="201.995" r="2.31322" transform="rotate(-135 515.808 201.995)" fill="white"/>
<circle cx="412.759" cy="282.962" r="2.31322" transform="rotate(-135 412.759 282.962)" fill="white"/>
<circle cx="425.027" cy="270.694" r="2.31322" transform="rotate(-135 425.027 270.694)" fill="white"/>
<circle cx="437.294" cy="258.427" r="2.31322" transform="rotate(-135 437.294 258.427)" fill="white"/>
<circle cx="449.562" cy="246.159" r="2.31322" transform="rotate(-135 449.562 246.159)" fill="white"/>
<circle cx="461.83" cy="233.891" r="2.31322" transform="rotate(-135 461.83 233.891)" fill="white"/>
<circle cx="474.098" cy="221.623" r="2.31322" transform="rotate(-135 474.098 221.623)" fill="white"/>
<circle cx="486.365" cy="209.356" r="2.31322" transform="rotate(-135 486.365 209.356)" fill="white"/>
<circle cx="498.633" cy="197.088" r="2.31322" transform="rotate(-135 498.633 197.088)" fill="white"/>
<circle cx="510.901" cy="184.82" r="2.31322" transform="rotate(-135 510.901 184.82)" fill="white"/>
<circle cx="422.573" cy="280.508" r="2.31322" transform="rotate(-135 422.573 280.508)" fill="white"/>
<circle cx="434.841" cy="268.241" r="2.31322" transform="rotate(-135 434.841 268.241)" fill="white"/>
<circle cx="447.109" cy="255.973" r="2.31322" transform="rotate(-135 447.109 255.973)" fill="white"/>
<circle cx="459.376" cy="243.705" r="2.31322" transform="rotate(-135 459.376 243.705)" fill="white"/>
<circle cx="471.644" cy="231.438" r="2.31322" transform="rotate(-135 471.644 231.438)" fill="white"/>
<circle cx="483.912" cy="219.17" r="2.31322" transform="rotate(-135 483.912 219.17)" fill="white"/>
<circle cx="496.179" cy="206.902" r="2.31322" transform="rotate(-135 496.179 206.902)" fill="white"/>
<circle cx="508.447" cy="194.635" r="2.31322" transform="rotate(-135 508.447 194.635)" fill="white"/>
<circle cx="405.398" cy="275.601" r="2.31322" transform="rotate(-135 405.398 275.601)" fill="white"/>
<circle cx="417.666" cy="263.334" r="2.31322" transform="rotate(-135 417.666 263.334)" fill="white"/>
<circle cx="429.934" cy="251.066" r="2.31322" transform="rotate(-135 429.934 251.066)" fill="white"/>
<circle cx="442.202" cy="238.798" r="2.31322" transform="rotate(-135 442.202 238.798)" fill="white"/>
<circle cx="454.469" cy="226.531" r="2.31322" transform="rotate(-135 454.469 226.531)" fill="white"/>
<circle cx="466.737" cy="214.263" r="2.31322" transform="rotate(-135 466.737 214.263)" fill="white"/>
<circle cx="479.005" cy="201.995" r="2.31322" transform="rotate(-135 479.005 201.995)" fill="white"/>
<circle cx="491.272" cy="189.727" r="2.31322" transform="rotate(-135 491.272 189.727)" fill="white"/>
<circle cx="503.54" cy="177.46" r="2.31322" transform="rotate(-135 503.54 177.46)" fill="white"/>
<circle cx="415.213" cy="273.148" r="2.31322" transform="rotate(-135 415.213 273.148)" fill="white"/>
<circle cx="427.48" cy="260.88" r="2.31322" transform="rotate(-135 427.48 260.88)" fill="white"/>
<circle cx="439.748" cy="248.612" r="2.31322" transform="rotate(-135 439.748 248.612)" fill="white"/>
<circle cx="452.016" cy="236.345" r="2.31322" transform="rotate(-135 452.016 236.345)" fill="white"/>
<circle cx="464.283" cy="224.077" r="2.31322" transform="rotate(-135 464.283 224.077)" fill="white"/>
<circle cx="476.551" cy="211.809" r="2.31322" transform="rotate(-135 476.551 211.809)" fill="white"/>
<circle cx="488.819" cy="199.542" r="2.31322" transform="rotate(-135 488.819 199.542)" fill="white"/>
<circle cx="501.087" cy="187.274" r="2.31322" transform="rotate(-135 501.087 187.274)" fill="white"/>
<circle cx="398.038" cy="268.241" r="2.31322" transform="rotate(-135 398.038 268.241)" fill="white"/>
<circle cx="410.306" cy="255.973" r="2.31322" transform="rotate(-135 410.306 255.973)" fill="white"/>
<circle cx="422.573" cy="243.705" r="2.31322" transform="rotate(-135 422.573 243.705)" fill="white"/>
<circle cx="434.841" cy="231.438" r="2.31322" transform="rotate(-135 434.841 231.438)" fill="white"/>
<circle cx="447.109" cy="219.17" r="2.31322" transform="rotate(-135 447.109 219.17)" fill="white"/>
<circle cx="459.376" cy="206.902" r="2.31322" transform="rotate(-135 459.376 206.902)" fill="white"/>
<circle cx="471.644" cy="194.635" r="2.31322" transform="rotate(-135 471.644 194.635)" fill="white"/>
<circle cx="483.912" cy="182.367" r="2.31322" transform="rotate(-135 483.912 182.367)" fill="white"/>
<circle cx="496.179" cy="170.099" r="2.31322" transform="rotate(-135 496.179 170.099)" fill="white"/>
<circle cx="407.852" cy="265.787" r="2.31322" transform="rotate(-135 407.852 265.787)" fill="white"/>
<circle cx="420.12" cy="253.519" r="2.31322" transform="rotate(-135 420.12 253.519)" fill="white"/>
<circle cx="432.387" cy="241.252" r="2.31322" transform="rotate(-135 432.387 241.252)" fill="white"/>
<circle cx="444.655" cy="228.984" r="2.31322" transform="rotate(-135 444.655 228.984)" fill="white"/>
<circle cx="456.923" cy="216.716" r="2.31322" transform="rotate(-135 456.923 216.716)" fill="white"/>
<circle cx="469.191" cy="204.449" r="2.31322" transform="rotate(-135 469.191 204.449)" fill="white"/>
<circle cx="481.458" cy="192.181" r="2.31322" transform="rotate(-135 481.458 192.181)" fill="white"/>
<circle cx="493.726" cy="179.913" r="2.31322" transform="rotate(-135 493.726 179.913)" fill="white"/>
<circle cx="390.677" cy="260.88" r="2.31322" transform="rotate(-135 390.677 260.88)" fill="white"/>
<circle cx="402.945" cy="248.612" r="2.31322" transform="rotate(-135 402.945 248.612)" fill="white"/>
<circle cx="415.213" cy="236.345" r="2.31322" transform="rotate(-135 415.213 236.345)" fill="white"/>
<circle cx="427.48" cy="224.077" r="2.31322" transform="rotate(-135 427.48 224.077)" fill="white"/>
<circle cx="439.748" cy="211.809" r="2.31322" transform="rotate(-135 439.748 211.809)" fill="white"/>
<circle cx="452.016" cy="199.542" r="2.31322" transform="rotate(-135 452.016 199.542)" fill="white"/>
<circle cx="464.283" cy="187.274" r="2.31322" transform="rotate(-135 464.283 187.274)" fill="white"/>
<circle cx="476.551" cy="175.006" r="2.31322" transform="rotate(-135 476.551 175.006)" fill="white"/>
<circle cx="488.819" cy="162.738" r="2.31322" transform="rotate(-135 488.819 162.738)" fill="white"/>
<circle cx="400.491" cy="258.427" r="2.31322" transform="rotate(-135 400.491 258.427)" fill="white"/>
<circle cx="412.759" cy="246.159" r="2.31322" transform="rotate(-135 412.759 246.159)" fill="white"/>
<circle cx="425.027" cy="233.891" r="2.31322" transform="rotate(-135 425.027 233.891)" fill="white"/>
<circle cx="437.294" cy="221.623" r="2.31322" transform="rotate(-135 437.294 221.623)" fill="white"/>
<circle cx="449.562" cy="209.356" r="2.31322" transform="rotate(-135 449.562 209.356)" fill="white"/>
<circle cx="461.83" cy="197.088" r="2.31322" transform="rotate(-135 461.83 197.088)" fill="white"/>
<circle cx="474.098" cy="184.82" r="2.31322" transform="rotate(-135 474.098 184.82)" fill="white"/>
<circle cx="486.365" cy="172.553" r="2.31322" transform="rotate(-135 486.365 172.553)" fill="white"/>
<circle cx="383.317" cy="253.519" r="2.31322" transform="rotate(-135 383.317 253.519)" fill="white"/>
<circle cx="395.584" cy="241.252" r="2.31322" transform="rotate(-135 395.584 241.252)" fill="white"/>
<circle cx="407.852" cy="228.984" r="2.31322" transform="rotate(-135 407.852 228.984)" fill="white"/>
<circle cx="420.12" cy="216.716" r="2.31322" transform="rotate(-135 420.12 216.716)" fill="white"/>
<circle cx="432.387" cy="204.449" r="2.31322" transform="rotate(-135 432.387 204.449)" fill="white"/>
<circle cx="444.655" cy="192.181" r="2.31322" transform="rotate(-135 444.655 192.181)" fill="white"/>
<circle cx="456.923" cy="179.913" r="2.31322" transform="rotate(-135 456.923 179.913)" fill="white"/>
<circle cx="469.191" cy="167.646" r="2.31322" transform="rotate(-135 469.191 167.646)" fill="white"/>
<circle cx="481.458" cy="155.378" r="2.31322" transform="rotate(-135 481.458 155.378)" fill="white"/>
<circle cx="393.131" cy="251.066" r="2.31322" transform="rotate(-135 393.131 251.066)" fill="white"/>
<circle cx="405.398" cy="238.798" r="2.31322" transform="rotate(-135 405.398 238.798)" fill="white"/>
<circle cx="417.666" cy="226.531" r="2.31322" transform="rotate(-135 417.666 226.531)" fill="white"/>
<circle cx="429.934" cy="214.263" r="2.31322" transform="rotate(-135 429.934 214.263)" fill="white"/>
<circle cx="442.202" cy="201.995" r="2.31322" transform="rotate(-135 442.202 201.995)" fill="white"/>
<circle cx="454.469" cy="189.727" r="2.31322" transform="rotate(-135 454.469 189.727)" fill="white"/>
<circle cx="466.737" cy="177.46" r="2.31322" transform="rotate(-135 466.737 177.46)" fill="white"/>
<circle cx="479.005" cy="165.192" r="2.31322" transform="rotate(-135 479.005 165.192)" fill="white"/>
<circle cx="375.956" cy="246.159" r="2.31322" transform="rotate(-135 375.956 246.159)" fill="white"/>
<circle cx="388.224" cy="233.891" r="2.31322" transform="rotate(-135 388.224 233.891)" fill="white"/>
<circle cx="400.491" cy="221.623" r="2.31322" transform="rotate(-135 400.491 221.623)" fill="white"/>
<circle cx="412.759" cy="209.356" r="2.31322" transform="rotate(-135 412.759 209.356)" fill="white"/>
<circle cx="425.027" cy="197.088" r="2.31322" transform="rotate(-135 425.027 197.088)" fill="white"/>
<circle cx="437.294" cy="184.82" r="2.31322" transform="rotate(-135 437.294 184.82)" fill="white"/>
<circle cx="449.562" cy="172.553" r="2.31322" transform="rotate(-135 449.562 172.553)" fill="white"/>
<circle cx="461.83" cy="160.285" r="2.31322" transform="rotate(-135 461.83 160.285)" fill="white"/>
<circle cx="474.098" cy="148.017" r="2.31322" transform="rotate(-135 474.098 148.017)" fill="white"/>
<circle cx="385.77" cy="243.705" r="2.31322" transform="rotate(-135 385.77 243.705)" fill="white"/>
<circle cx="398.038" cy="231.438" r="2.31322" transform="rotate(-135 398.038 231.438)" fill="white"/>
<circle cx="410.306" cy="219.17" r="2.31322" transform="rotate(-135 410.306 219.17)" fill="white"/>
<circle cx="422.573" cy="206.902" r="2.31322" transform="rotate(-135 422.573 206.902)" fill="white"/>
<circle cx="434.841" cy="194.635" r="2.31322" transform="rotate(-135 434.841 194.635)" fill="white"/>
<circle cx="447.109" cy="182.367" r="2.31322" transform="rotate(-135 447.109 182.367)" fill="white"/>
<circle cx="459.376" cy="170.099" r="2.31322" transform="rotate(-135 459.376 170.099)" fill="white"/>
<circle cx="471.644" cy="157.831" r="2.31322" transform="rotate(-135 471.644 157.831)" fill="white"/>
<circle cx="368.595" cy="238.798" r="2.31322" transform="rotate(-135 368.595 238.798)" fill="white"/>
<circle cx="380.863" cy="226.531" r="2.31322" transform="rotate(-135 380.863 226.531)" fill="white"/>
<circle cx="393.131" cy="214.263" r="2.31322" transform="rotate(-135 393.131 214.263)" fill="white"/>
<circle cx="405.398" cy="201.995" r="2.31322" transform="rotate(-135 405.398 201.995)" fill="white"/>
<circle cx="417.666" cy="189.727" r="2.31322" transform="rotate(-135 417.666 189.727)" fill="white"/>
<circle cx="429.934" cy="177.46" r="2.31322" transform="rotate(-135 429.934 177.46)" fill="white"/>
<circle cx="442.202" cy="165.192" r="2.31322" transform="rotate(-135 442.202 165.192)" fill="white"/>
<circle cx="454.469" cy="152.924" r="2.31322" transform="rotate(-135 454.469 152.924)" fill="white"/>
<circle cx="466.737" cy="140.657" r="2.31322" transform="rotate(-135 466.737 140.657)" fill="white"/>
<circle cx="378.41" cy="236.345" r="2.31322" transform="rotate(-135 378.41 236.345)" fill="white"/>
<circle cx="390.677" cy="224.077" r="2.31322" transform="rotate(-135 390.677 224.077)" fill="white"/>
<circle cx="402.945" cy="211.809" r="2.31322" transform="rotate(-135 402.945 211.809)" fill="white"/>
<circle cx="415.213" cy="199.542" r="2.31322" transform="rotate(-135 415.213 199.542)" fill="white"/>
<circle cx="427.48" cy="187.274" r="2.31322" transform="rotate(-135 427.48 187.274)" fill="white"/>
<circle cx="439.748" cy="175.006" r="2.31322" transform="rotate(-135 439.748 175.006)" fill="white"/>
<circle cx="452.016" cy="162.738" r="2.31322" transform="rotate(-135 452.016 162.738)" fill="white"/>
<circle cx="464.283" cy="150.471" r="2.31322" transform="rotate(-135 464.283 150.471)" fill="white"/>
<circle cx="361.235" cy="231.438" r="2.31322" transform="rotate(-135 361.235 231.438)" fill="white"/>
<circle cx="373.503" cy="219.17" r="2.31322" transform="rotate(-135 373.503 219.17)" fill="white"/>
<circle cx="385.77" cy="206.902" r="2.31322" transform="rotate(-135 385.77 206.902)" fill="white"/>
<circle cx="398.038" cy="194.635" r="2.31322" transform="rotate(-135 398.038 194.635)" fill="white"/>
<circle cx="410.306" cy="182.367" r="2.31322" transform="rotate(-135 410.306 182.367)" fill="white"/>
<circle cx="422.573" cy="170.099" r="2.31322" transform="rotate(-135 422.573 170.099)" fill="white"/>
<circle cx="434.841" cy="157.831" r="2.31322" transform="rotate(-135 434.841 157.831)" fill="white"/>
<circle cx="447.109" cy="145.564" r="2.31322" transform="rotate(-135 447.109 145.564)" fill="white"/>
<circle cx="459.376" cy="133.296" r="2.31322" transform="rotate(-135 459.376 133.296)" fill="white"/>
<circle cx="371.049" cy="228.984" r="2.31322" transform="rotate(-135 371.049 228.984)" fill="white"/>
<circle cx="383.317" cy="216.716" r="2.31322" transform="rotate(-135 383.317 216.716)" fill="white"/>
<circle cx="395.584" cy="204.449" r="2.31322" transform="rotate(-135 395.584 204.449)" fill="white"/>
<circle cx="407.852" cy="192.181" r="2.31322" transform="rotate(-135 407.852 192.181)" fill="white"/>
<circle cx="420.12" cy="179.913" r="2.31322" transform="rotate(-135 420.12 179.913)" fill="white"/>
<circle cx="432.387" cy="167.646" r="2.31322" transform="rotate(-135 432.387 167.646)" fill="white"/>
<circle cx="444.655" cy="155.378" r="2.31322" transform="rotate(-135 444.655 155.378)" fill="white"/>
<circle cx="456.923" cy="143.11" r="2.31322" transform="rotate(-135 456.923 143.11)" fill="white"/>
<circle cx="353.874" cy="224.077" r="2.31322" transform="rotate(-135 353.874 224.077)" fill="white"/>
<circle cx="366.142" cy="211.809" r="2.31322" transform="rotate(-135 366.142 211.809)" fill="white"/>
<circle cx="378.41" cy="199.542" r="2.31322" transform="rotate(-135 378.41 199.542)" fill="white"/>
<circle cx="390.677" cy="187.274" r="2.31322" transform="rotate(-135 390.677 187.274)" fill="white"/>
<circle cx="402.945" cy="175.006" r="2.31322" transform="rotate(-135 402.945 175.006)" fill="white"/>
<circle cx="415.213" cy="162.738" r="2.31322" transform="rotate(-135 415.213 162.738)" fill="white"/>
<circle cx="427.48" cy="150.471" r="2.31322" transform="rotate(-135 427.48 150.471)" fill="white"/>
<circle cx="439.748" cy="138.203" r="2.31322" transform="rotate(-135 439.748 138.203)" fill="white"/>
<circle cx="452.016" cy="125.935" r="2.31322" transform="rotate(-135 452.016 125.935)" fill="white"/>
<circle cx="363.688" cy="221.623" r="2.31322" transform="rotate(-135 363.688 221.623)" fill="white"/>
<circle cx="375.956" cy="209.356" r="2.31322" transform="rotate(-135 375.956 209.356)" fill="white"/>
<circle cx="388.224" cy="197.088" r="2.31322" transform="rotate(-135 388.224 197.088)" fill="white"/>
<circle cx="400.491" cy="184.82" r="2.31322" transform="rotate(-135 400.491 184.82)" fill="white"/>
<circle cx="412.759" cy="172.553" r="2.31322" transform="rotate(-135 412.759 172.553)" fill="white"/>
<circle cx="425.027" cy="160.285" r="2.31322" transform="rotate(-135 425.027 160.285)" fill="white"/>
<circle cx="437.294" cy="148.017" r="2.31322" transform="rotate(-135 437.294 148.017)" fill="white"/>
<circle cx="449.562" cy="135.75" r="2.31322" transform="rotate(-135 449.562 135.75)" fill="white"/>
<circle cx="346.513" cy="216.716" r="2.31322" transform="rotate(-135 346.513 216.716)" fill="white"/>
<circle cx="358.781" cy="204.449" r="2.31322" transform="rotate(-135 358.781 204.449)" fill="white"/>
<circle cx="371.049" cy="192.181" r="2.31322" transform="rotate(-135 371.049 192.181)" fill="white"/>
<circle cx="383.317" cy="179.913" r="2.31322" transform="rotate(-135 383.317 179.913)" fill="white"/>
<circle cx="395.584" cy="167.646" r="2.31322" transform="rotate(-135 395.584 167.646)" fill="white"/>
<circle cx="407.852" cy="155.378" r="2.31322" transform="rotate(-135 407.852 155.378)" fill="white"/>
<circle cx="420.12" cy="143.11" r="2.31322" transform="rotate(-135 420.12 143.11)" fill="white"/>
<circle cx="432.387" cy="130.842" r="2.31322" transform="rotate(-135 432.387 130.842)" fill="white"/>
<circle cx="444.655" cy="118.575" r="2.31322" transform="rotate(-135 444.655 118.575)" fill="white"/>
<circle cx="356.328" cy="214.263" r="2.31322" transform="rotate(-135 356.328 214.263)" fill="white"/>
<circle cx="368.595" cy="201.995" r="2.31322" transform="rotate(-135 368.595 201.995)" fill="white"/>
<circle cx="380.863" cy="189.727" r="2.31322" transform="rotate(-135 380.863 189.727)" fill="white"/>
<circle cx="393.131" cy="177.46" r="2.31322" transform="rotate(-135 393.131 177.46)" fill="white"/>
<circle cx="405.398" cy="165.192" r="2.31322" transform="rotate(-135 405.398 165.192)" fill="white"/>
<circle cx="417.666" cy="152.924" r="2.31322" transform="rotate(-135 417.666 152.924)" fill="white"/>
<circle cx="429.934" cy="140.657" r="2.31322" transform="rotate(-135 429.934 140.657)" fill="white"/>
<circle cx="442.202" cy="128.389" r="2.31322" transform="rotate(-135 442.202 128.389)" fill="white"/>
<circle cx="339.153" cy="209.356" r="2.31322" transform="rotate(-135 339.153 209.356)" fill="white"/>
<circle cx="351.421" cy="197.088" r="2.31322" transform="rotate(-135 351.421 197.088)" fill="white"/>
<circle cx="363.688" cy="184.82" r="2.31322" transform="rotate(-135 363.688 184.82)" fill="white"/>
<circle cx="375.956" cy="172.553" r="2.31322" transform="rotate(-135 375.956 172.553)" fill="white"/>
<circle cx="388.224" cy="160.285" r="2.31322" transform="rotate(-135 388.224 160.285)" fill="white"/>
<circle cx="400.491" cy="148.017" r="2.31322" transform="rotate(-135 400.491 148.017)" fill="white"/>
<circle cx="412.759" cy="135.75" r="2.31322" transform="rotate(-135 412.759 135.75)" fill="white"/>
<circle cx="425.027" cy="123.482" r="2.31322" transform="rotate(-135 425.027 123.482)" fill="white"/>
<circle cx="437.294" cy="111.214" r="2.31322" transform="rotate(-135 437.294 111.214)" fill="white"/>
<circle cx="348.967" cy="206.902" r="2.31322" transform="rotate(-135 348.967 206.902)" fill="white"/>
<circle cx="361.235" cy="194.635" r="2.31322" transform="rotate(-135 361.235 194.635)" fill="white"/>
<circle cx="373.502" cy="182.367" r="2.31322" transform="rotate(-135 373.502 182.367)" fill="white"/>
<circle cx="385.77" cy="170.099" r="2.31322" transform="rotate(-135 385.77 170.099)" fill="white"/>
<circle cx="398.038" cy="157.831" r="2.31322" transform="rotate(-135 398.038 157.831)" fill="white"/>
<circle cx="410.306" cy="145.564" r="2.31322" transform="rotate(-135 410.306 145.564)" fill="white"/>
<circle cx="422.573" cy="133.296" r="2.31322" transform="rotate(-135 422.573 133.296)" fill="white"/>
<circle cx="434.841" cy="121.028" r="2.31322" transform="rotate(-135 434.841 121.028)" fill="white"/>
<circle cx="331.792" cy="201.995" r="2.31322" transform="rotate(-135 331.792 201.995)" fill="white"/>
<circle cx="344.06" cy="189.727" r="2.31322" transform="rotate(-135 344.06 189.727)" fill="white"/>
<circle cx="356.328" cy="177.46" r="2.31322" transform="rotate(-135 356.328 177.46)" fill="white"/>
<circle cx="368.595" cy="165.192" r="2.31322" transform="rotate(-135 368.595 165.192)" fill="white"/>
<circle cx="380.863" cy="152.924" r="2.31322" transform="rotate(-135 380.863 152.924)" fill="white"/>
<circle cx="393.131" cy="140.657" r="2.31322" transform="rotate(-135 393.131 140.657)" fill="white"/>
<circle cx="405.398" cy="128.389" r="2.31322" transform="rotate(-135 405.398 128.389)" fill="white"/>
<circle cx="417.666" cy="116.121" r="2.31322" transform="rotate(-135 417.666 116.121)" fill="white"/>
<circle cx="429.934" cy="103.854" r="2.31322" transform="rotate(-135 429.934 103.854)" fill="white"/>
<circle cx="341.606" cy="199.542" r="2.31322" transform="rotate(-135 341.606 199.542)" fill="white"/>
<circle cx="353.874" cy="187.274" r="2.31322" transform="rotate(-135 353.874 187.274)" fill="white"/>
<circle cx="366.142" cy="175.006" r="2.31322" transform="rotate(-135 366.142 175.006)" fill="white"/>
<circle cx="378.41" cy="162.738" r="2.31322" transform="rotate(-135 378.41 162.738)" fill="white"/>
<circle cx="390.677" cy="150.471" r="2.31322" transform="rotate(-135 390.677 150.471)" fill="white"/>
<circle cx="402.945" cy="138.203" r="2.31322" transform="rotate(-135 402.945 138.203)" fill="white"/>
<circle cx="415.213" cy="125.935" r="2.31322" transform="rotate(-135 415.213 125.935)" fill="white"/>
<circle cx="427.48" cy="113.668" r="2.31322" transform="rotate(-135 427.48 113.668)" fill="white"/>
<circle cx="324.432" cy="194.635" r="2.31322" transform="rotate(-135 324.432 194.635)" fill="white"/>
<circle cx="336.699" cy="182.367" r="2.31322" transform="rotate(-135 336.699 182.367)" fill="white"/>
<circle cx="348.967" cy="170.099" r="2.31322" transform="rotate(-135 348.967 170.099)" fill="white"/>
<circle cx="361.235" cy="157.831" r="2.31322" transform="rotate(-135 361.235 157.831)" fill="white"/>
<circle cx="373.503" cy="145.564" r="2.31322" transform="rotate(-135 373.503 145.564)" fill="white"/>
<circle cx="385.77" cy="133.296" r="2.31322" transform="rotate(-135 385.77 133.296)" fill="white"/>
<circle cx="398.038" cy="121.028" r="2.31322" transform="rotate(-135 398.038 121.028)" fill="white"/>
<circle cx="410.306" cy="108.761" r="2.31322" transform="rotate(-135 410.306 108.761)" fill="white"/>
<circle cx="422.573" cy="96.4929" r="2.31322" transform="rotate(-135 422.573 96.4929)" fill="white"/>
<circle cx="334.246" cy="192.181" r="2.31322" transform="rotate(-135 334.246 192.181)" fill="white"/>
<circle cx="346.513" cy="179.913" r="2.31322" transform="rotate(-135 346.513 179.913)" fill="white"/>
<circle cx="358.781" cy="167.646" r="2.31322" transform="rotate(-135 358.781 167.646)" fill="white"/>
<circle cx="371.049" cy="155.378" r="2.31322" transform="rotate(-135 371.049 155.378)" fill="white"/>
<circle cx="383.317" cy="143.11" r="2.31322" transform="rotate(-135 383.317 143.11)" fill="white"/>
<circle cx="395.584" cy="130.842" r="2.31322" transform="rotate(-135 395.584 130.842)" fill="white"/>
<circle cx="407.852" cy="118.575" r="2.31322" transform="rotate(-135 407.852 118.575)" fill="white"/>
<circle cx="420.12" cy="106.307" r="2.31322" transform="rotate(-135 420.12 106.307)" fill="white"/>
<circle cx="317.071" cy="187.274" r="2.31322" transform="rotate(-135 317.071 187.274)" fill="white"/>
<circle cx="329.339" cy="175.006" r="2.31322" transform="rotate(-135 329.339 175.006)" fill="white"/>
<circle cx="341.606" cy="162.739" r="2.31322" transform="rotate(-135 341.606 162.739)" fill="white"/>
<circle cx="353.874" cy="150.471" r="2.31322" transform="rotate(-135 353.874 150.471)" fill="white"/>
<circle cx="366.142" cy="138.203" r="2.31322" transform="rotate(-135 366.142 138.203)" fill="white"/>
<circle cx="378.41" cy="125.935" r="2.31322" transform="rotate(-135 378.41 125.935)" fill="white"/>
<circle cx="390.677" cy="113.668" r="2.31322" transform="rotate(-135 390.677 113.668)" fill="white"/>
<circle cx="402.945" cy="101.4" r="2.31322" transform="rotate(-135 402.945 101.4)" fill="white"/>
<circle cx="415.213" cy="89.1323" r="2.31322" transform="rotate(-135 415.213 89.1323)" fill="white"/>
<circle cx="326.885" cy="184.82" r="2.31322" transform="rotate(-135 326.885 184.82)" fill="white"/>
<circle cx="339.153" cy="172.553" r="2.31322" transform="rotate(-135 339.153 172.553)" fill="white"/>
<circle cx="351.421" cy="160.285" r="2.31322" transform="rotate(-135 351.421 160.285)" fill="white"/>
<circle cx="363.688" cy="148.017" r="2.31322" transform="rotate(-135 363.688 148.017)" fill="white"/>
<circle cx="375.956" cy="135.75" r="2.31322" transform="rotate(-135 375.956 135.75)" fill="white"/>
<circle cx="388.224" cy="123.482" r="2.31322" transform="rotate(-135 388.224 123.482)" fill="white"/>
<circle cx="400.491" cy="111.214" r="2.31322" transform="rotate(-135 400.491 111.214)" fill="white"/>
<circle cx="412.759" cy="98.9465" r="2.31322" transform="rotate(-135 412.759 98.9465)" fill="white"/>
<circle cx="309.71" cy="179.913" r="2.31322" transform="rotate(-135 309.71 179.913)" fill="white"/>
<circle cx="321.978" cy="167.646" r="2.31322" transform="rotate(-135 321.978 167.646)" fill="white"/>
<circle cx="334.246" cy="155.378" r="2.31322" transform="rotate(-135 334.246 155.378)" fill="white"/>
<circle cx="346.513" cy="143.11" r="2.31322" transform="rotate(-135 346.513 143.11)" fill="white"/>
<circle cx="358.781" cy="130.842" r="2.31322" transform="rotate(-135 358.781 130.842)" fill="white"/>
<circle cx="371.049" cy="118.575" r="2.31322" transform="rotate(-135 371.049 118.575)" fill="white"/>
<circle cx="383.317" cy="106.307" r="2.31322" transform="rotate(-135 383.317 106.307)" fill="white"/>
<circle cx="395.584" cy="94.0394" r="2.31322" transform="rotate(-135 395.584 94.0394)" fill="white"/>
<circle cx="407.852" cy="81.7717" r="2.31322" transform="rotate(-135 407.852 81.7717)" fill="white"/>
<circle cx="319.525" cy="177.46" r="2.31322" transform="rotate(-135 319.525 177.46)" fill="white"/>
<circle cx="331.792" cy="165.192" r="2.31322" transform="rotate(-135 331.792 165.192)" fill="white"/>
<circle cx="344.06" cy="152.924" r="2.31322" transform="rotate(-135 344.06 152.924)" fill="white"/>
<circle cx="356.328" cy="140.657" r="2.31322" transform="rotate(-135 356.328 140.657)" fill="white"/>
<circle cx="368.595" cy="128.389" r="2.31322" transform="rotate(-135 368.595 128.389)" fill="white"/>
<circle cx="380.863" cy="116.121" r="2.31322" transform="rotate(-135 380.863 116.121)" fill="white"/>
<circle cx="393.131" cy="103.854" r="2.31322" transform="rotate(-135 393.131 103.854)" fill="white"/>
<circle cx="405.398" cy="91.5859" r="2.31322" transform="rotate(-135 405.398 91.5859)" fill="white"/>
<circle cx="302.35" cy="172.553" r="2.31322" transform="rotate(-135 302.35 172.553)" fill="white"/>
<circle cx="314.618" cy="160.285" r="2.31322" transform="rotate(-135 314.618 160.285)" fill="white"/>
<circle cx="326.885" cy="148.017" r="2.31322" transform="rotate(-135 326.885 148.017)" fill="white"/>
<circle cx="339.153" cy="135.75" r="2.31322" transform="rotate(-135 339.153 135.75)" fill="white"/>
<circle cx="351.421" cy="123.482" r="2.31322" transform="rotate(-135 351.421 123.482)" fill="white"/>
<circle cx="363.688" cy="111.214" r="2.31322" transform="rotate(-135 363.688 111.214)" fill="white"/>
<circle cx="375.956" cy="98.9465" r="2.31322" transform="rotate(-135 375.956 98.9465)" fill="white"/>
<circle cx="388.224" cy="86.6788" r="2.31322" transform="rotate(-135 388.224 86.6788)" fill="white"/>
<circle cx="400.491" cy="74.4111" r="2.31322" transform="rotate(-135 400.491 74.4111)" fill="white"/>
<circle cx="312.164" cy="170.099" r="2.31322" transform="rotate(-135 312.164 170.099)" fill="white"/>
<circle cx="324.432" cy="157.831" r="2.31322" transform="rotate(-135 324.432 157.831)" fill="white"/>
<circle cx="336.699" cy="145.564" r="2.31322" transform="rotate(-135 336.699 145.564)" fill="white"/>
<circle cx="348.967" cy="133.296" r="2.31322" transform="rotate(-135 348.967 133.296)" fill="white"/>
<circle cx="361.235" cy="121.028" r="2.31322" transform="rotate(-135 361.235 121.028)" fill="white"/>
<circle cx="373.503" cy="108.761" r="2.31322" transform="rotate(-135 373.503 108.761)" fill="white"/>
<circle cx="385.77" cy="96.4929" r="2.31322" transform="rotate(-135 385.77 96.4929)" fill="white"/>
<circle cx="398.038" cy="84.2252" r="2.31322" transform="rotate(-135 398.038 84.2252)" fill="white"/>
<circle cx="294.989" cy="165.192" r="2.31322" transform="rotate(-135 294.989 165.192)" fill="white"/>
<circle cx="307.257" cy="152.924" r="2.31322" transform="rotate(-135 307.257 152.924)" fill="white"/>
<circle cx="319.525" cy="140.657" r="2.31322" transform="rotate(-135 319.525 140.657)" fill="white"/>
<circle cx="331.792" cy="128.389" r="2.31322" transform="rotate(-135 331.792 128.389)" fill="white"/>
<circle cx="344.06" cy="116.121" r="2.31322" transform="rotate(-135 344.06 116.121)" fill="white"/>
<circle cx="356.328" cy="103.854" r="2.31322" transform="rotate(-135 356.328 103.854)" fill="white"/>
<circle cx="368.595" cy="91.5858" r="2.31322" transform="rotate(-135 368.595 91.5858)" fill="white"/>
<circle cx="380.863" cy="79.3182" r="2.31322" transform="rotate(-135 380.863 79.3182)" fill="white"/>
<circle cx="393.131" cy="67.0505" r="2.31322" transform="rotate(-135 393.131 67.0505)" fill="white"/>
<circle cx="304.803" cy="162.738" r="2.31322" transform="rotate(-135 304.803 162.738)" fill="white"/>
<circle cx="317.071" cy="150.471" r="2.31322" transform="rotate(-135 317.071 150.471)" fill="white"/>
<circle cx="329.339" cy="138.203" r="2.31322" transform="rotate(-135 329.339 138.203)" fill="white"/>
<circle cx="341.606" cy="125.935" r="2.31322" transform="rotate(-135 341.606 125.935)" fill="white"/>
<circle cx="353.874" cy="113.668" r="2.31322" transform="rotate(-135 353.874 113.668)" fill="white"/>
<circle cx="366.142" cy="101.4" r="2.31322" transform="rotate(-135 366.142 101.4)" fill="white"/>
<circle cx="378.41" cy="89.1323" r="2.31322" transform="rotate(-135 378.41 89.1323)" fill="white"/>
<circle cx="390.677" cy="76.8646" r="2.31322" transform="rotate(-135 390.677 76.8646)" fill="white"/>
<circle cx="287.629" cy="157.831" r="2.31322" transform="rotate(-135 287.629 157.831)" fill="white"/>
<circle cx="299.896" cy="145.564" r="2.31322" transform="rotate(-135 299.896 145.564)" fill="white"/>
<circle cx="312.164" cy="133.296" r="2.31322" transform="rotate(-135 312.164 133.296)" fill="white"/>
<circle cx="324.432" cy="121.028" r="2.31322" transform="rotate(-135 324.432 121.028)" fill="white"/>
<circle cx="336.699" cy="108.761" r="2.31322" transform="rotate(-135 336.699 108.761)" fill="white"/>
<circle cx="348.967" cy="96.4929" r="2.31322" transform="rotate(-135 348.967 96.4929)" fill="white"/>
<circle cx="361.235" cy="84.2252" r="2.31322" transform="rotate(-135 361.235 84.2252)" fill="white"/>
<circle cx="373.503" cy="71.9575" r="2.31322" transform="rotate(-135 373.503 71.9575)" fill="white"/>
<circle cx="385.77" cy="59.6898" r="2.31322" transform="rotate(-135 385.77 59.6898)" fill="white"/>
<circle cx="297.443" cy="155.378" r="2.31322" transform="rotate(-135 297.443 155.378)" fill="white"/>
<circle cx="309.71" cy="143.11" r="2.31322" transform="rotate(-135 309.71 143.11)" fill="white"/>
<circle cx="321.978" cy="130.842" r="2.31322" transform="rotate(-135 321.978 130.842)" fill="white"/>
<circle cx="334.246" cy="118.575" r="2.31322" transform="rotate(-135 334.246 118.575)" fill="white"/>
<circle cx="346.513" cy="106.307" r="2.31322" transform="rotate(-135 346.513 106.307)" fill="white"/>
<circle cx="358.781" cy="94.0394" r="2.31322" transform="rotate(-135 358.781 94.0394)" fill="white"/>
<circle cx="371.049" cy="81.7717" r="2.31322" transform="rotate(-135 371.049 81.7717)" fill="white"/>
<circle cx="383.317" cy="69.504" r="2.31322" transform="rotate(-135 383.317 69.504)" fill="white"/>
<circle cx="292.536" cy="138.203" r="2.31322" transform="rotate(-135 292.536 138.203)" fill="white"/>
<circle cx="304.803" cy="125.935" r="2.31322" transform="rotate(-135 304.803 125.935)" fill="white"/>
<circle cx="317.071" cy="113.668" r="2.31322" transform="rotate(-135 317.071 113.668)" fill="white"/>
<circle cx="329.339" cy="101.4" r="2.31322" transform="rotate(-135 329.339 101.4)" fill="white"/>
<circle cx="341.606" cy="89.1323" r="2.31322" transform="rotate(-135 341.606 89.1323)" fill="white"/>
<circle cx="353.874" cy="76.8646" r="2.31322" transform="rotate(-135 353.874 76.8646)" fill="white"/>
<circle cx="366.142" cy="64.5969" r="2.31322" transform="rotate(-135 366.142 64.5969)" fill="white"/>
<circle cx="378.41" cy="52.3292" r="2.31322" transform="rotate(-135 378.41 52.3292)" fill="white"/>
<circle cx="290.082" cy="148.017" r="2.31322" transform="rotate(-135 290.082 148.017)" fill="white"/>
<circle cx="302.35" cy="135.75" r="2.31322" transform="rotate(-135 302.35 135.75)" fill="white"/>
<circle cx="314.617" cy="123.482" r="2.31322" transform="rotate(-135 314.617 123.482)" fill="white"/>
<circle cx="326.885" cy="111.214" r="2.31322" transform="rotate(-135 326.885 111.214)" fill="white"/>
<circle cx="339.153" cy="98.9465" r="2.31322" transform="rotate(-135 339.153 98.9465)" fill="white"/>
<circle cx="351.421" cy="86.6788" r="2.31322" transform="rotate(-135 351.421 86.6788)" fill="white"/>
<circle cx="363.688" cy="74.4111" r="2.31322" transform="rotate(-135 363.688 74.4111)" fill="white"/>
<circle cx="375.956" cy="62.1434" r="2.31322" transform="rotate(-135 375.956 62.1434)" fill="white"/>
<circle cx="294.989" cy="128.389" r="2.31322" transform="rotate(-135 294.989 128.389)" fill="white"/>
<circle cx="307.257" cy="116.121" r="2.31322" transform="rotate(-135 307.257 116.121)" fill="white"/>
<circle cx="319.525" cy="103.854" r="2.31322" transform="rotate(-135 319.525 103.854)" fill="white"/>
<circle cx="331.792" cy="91.5859" r="2.31322" transform="rotate(-135 331.792 91.5859)" fill="white"/>
<circle cx="344.06" cy="79.3182" r="2.31322" transform="rotate(-135 344.06 79.3182)" fill="white"/>
<circle cx="356.328" cy="67.0505" r="2.31322" transform="rotate(-135 356.328 67.0505)" fill="white"/>
<circle cx="368.595" cy="54.7828" r="2.31322" transform="rotate(-135 368.595 54.7828)" fill="white"/>
</g>
<path opacity="0.6" d="M235.406 359.443C146.18 350.545 120.954 464.879 183.745 498.49C246.536 532.101 236.5 466.5 284 466.5C331.5 466.5 445.255 516.51 464 410C485.215 289.451 364.301 266.469 318.414 292.961C282.901 313.465 351.164 370.988 235.406 359.443Z" fill="#FFCAB7"/>
<g opacity="0.54">
<path d="M416.708 323.199L425.633 332.124M416.708 332.124L425.633 323.199" stroke="white" stroke-width="2"/>
<path d="M339.671 453.316L330.746 444.391M339.671 444.391L330.746 453.316" stroke="white" stroke-width="2"/>
<path d="M416.708 363.596L425.633 372.521M416.708 372.521L425.633 363.596" stroke="white" stroke-width="2"/>
<path d="M339.671 412.918L330.746 403.993M339.671 403.993L330.746 412.918" stroke="white" stroke-width="2"/>
<path d="M445.362 363.596L454.287 372.521M445.362 372.521L454.287 363.596" stroke="white" stroke-width="2"/>
<path d="M311.017 412.918L302.092 403.993M311.017 403.993L302.092 412.918" stroke="white" stroke-width="2"/>
<path d="M431.27 343.397L440.195 352.322M431.27 352.322L440.195 343.397" stroke="white" stroke-width="2"/>
<path d="M431.27 303L440.195 311.925M431.27 311.925L440.195 303" stroke="white" stroke-width="2"/>
<path d="M325.109 433.117L316.184 424.192M325.109 424.192L316.184 433.117" stroke="white" stroke-width="2"/>
<path d="M325.109 473.514L316.184 464.589M325.109 464.589L316.184 473.514" stroke="white" stroke-width="2"/>
<path d="M431.27 383.795L440.195 392.72M431.27 392.72L440.195 383.795" stroke="white" stroke-width="2"/>
<path d="M459.923 383.795L468.848 392.72M459.923 392.72L468.848 383.795" stroke="white" stroke-width="2"/>
<path d="M388.054 323.199L396.979 332.124M388.054 332.124L396.979 323.199" stroke="white" stroke-width="2"/>
<path d="M368.325 453.316L359.4 444.391M368.325 444.391L359.4 453.316" stroke="white" stroke-width="2"/>
<path d="M388.054 363.596L396.979 372.521M388.054 372.521L396.979 363.596" stroke="white" stroke-width="2"/>
<path d="M368.325 412.918L359.4 403.993M368.325 403.993L359.4 412.918" stroke="white" stroke-width="2"/>
<path d="M402.616 343.397L411.541 352.322M402.616 352.322L411.541 343.397" stroke="white" stroke-width="2"/>
<path d="M402.616 303L411.541 311.925M402.616 311.925L411.541 303" stroke="white" stroke-width="2"/>
<path d="M353.763 433.117L344.838 424.192M353.763 424.192L344.838 433.117" stroke="white" stroke-width="2"/>
<path d="M353.763 473.514L344.838 464.589M353.763 464.589L344.838 473.514" stroke="white" stroke-width="2"/>
<path d="M402.616 383.795L411.541 392.72M402.616 392.72L411.541 383.795" stroke="white" stroke-width="2"/>
<path d="M359.4 323.199L368.325 332.124M359.4 332.124L368.325 323.199" stroke="white" stroke-width="2"/>
<path d="M396.979 453.316L388.054 444.391M396.979 444.391L388.054 453.316" stroke="white" stroke-width="2"/>
<path d="M359.4 363.596L368.325 372.521M359.4 372.521L368.325 363.596" stroke="white" stroke-width="2"/>
<path d="M396.979 412.918L388.054 403.993M396.979 403.993L388.054 412.918" stroke="white" stroke-width="2"/>
<path d="M373.962 343.397L382.887 352.322M373.962 352.322L382.887 343.397" stroke="white" stroke-width="2"/>
<path d="M373.962 303L382.887 311.925M373.962 311.925L382.887 303" stroke="white" stroke-width="2"/>
<path d="M382.417 433.117L373.492 424.192M382.417 424.192L373.492 433.117" stroke="white" stroke-width="2"/>
<path d="M382.417 473.514L373.492 464.589M382.417 464.589L373.492 473.514" stroke="white" stroke-width="2"/>
<path d="M373.962 383.795L382.887 392.72M373.962 392.72L382.887 383.795" stroke="white" stroke-width="2"/>
<path d="M330.746 323.199L339.671 332.124M330.746 332.124L339.671 323.199" stroke="white" stroke-width="2"/>
<path d="M425.633 453.316L416.708 444.391M425.633 444.391L416.708 453.316" stroke="white" stroke-width="2"/>
<path d="M330.746 363.596L339.671 372.521M330.746 372.521L339.671 363.596" stroke="white" stroke-width="2"/>
<path d="M425.633 412.918L416.708 403.993M425.633 403.993L416.708 412.918" stroke="white" stroke-width="2"/>
<path d="M302.092 363.596L311.017 372.521M302.092 372.521L311.017 363.596" stroke="white" stroke-width="2"/>
<path d="M454.287 412.918L445.362 403.993M454.287 403.993L445.362 412.918" stroke="white" stroke-width="2"/>
<path d="M345.308 343.397L354.233 352.322M345.308 352.322L354.233 343.397" stroke="white" stroke-width="2"/>
<path d="M345.308 303L354.233 311.925M345.308 311.925L354.233 303" stroke="white" stroke-width="2"/>
<path d="M411.071 433.117L402.146 424.192M411.071 424.192L402.146 433.117" stroke="white" stroke-width="2"/>
<path d="M411.071 473.514L402.146 464.589M411.071 464.589L402.146 473.514" stroke="white" stroke-width="2"/>
<path d="M345.308 383.795L354.233 392.72M345.308 392.72L354.233 383.795" stroke="white" stroke-width="2"/>
<path d="M316.654 343.397L325.579 352.322M316.654 352.322L325.579 343.397" stroke="white" stroke-width="2"/>
<path d="M316.654 303L325.579 311.925M316.654 311.925L325.579 303" stroke="white" stroke-width="2"/>
<path d="M439.725 433.117L430.8 424.192M439.725 424.192L430.8 433.117" stroke="white" stroke-width="2"/>
<path d="M439.725 473.514L430.8 464.589M439.725 464.589L430.8 473.514" stroke="white" stroke-width="2"/>
<path d="M316.654 383.795L325.579 392.72M316.654 392.72L325.579 383.795" stroke="white" stroke-width="2"/>
<path d="M288 383.795L296.925 392.72M288 392.72L296.925 383.795" stroke="white" stroke-width="2"/>
</g>
<path d="M89.2304 432.443C96.3195 458.9 59.9642 468.068 76.2029 493.105C92.4416 518.142 143.778 482.439 208.879 508.342C273.98 534.244 277.11 468.112 252.471 447.828C228.051 427.725 248.093 410.307 249.546 389.487C251.545 360.835 234.034 360.589 207.25 373.253C182.18 385.106 168.223 378.449 147.023 369.638C106.889 352.958 74.2456 376.519 89.2304 432.443Z" fill="#C2DBF1"/>
<mask id="mask1" mask-type="alpha" maskUnits="userSpaceOnUse" x="26" y="297" width="294" height="294">
<path d="M89.1974 432.452C96.2866 458.909 59.9313 468.077 76.1699 493.114C92.4086 518.151 143.745 482.448 208.846 508.351C273.947 534.253 277.077 468.121 252.438 447.837C228.018 427.734 248.06 410.316 249.513 389.495C251.512 360.844 234.001 360.598 207.217 373.262C182.147 385.115 168.19 378.458 146.99 369.647C106.856 352.967 74.2127 376.528 89.1974 432.452Z" fill="#E8F0F0"/>
</mask>
<g mask="url(#mask1)">
<path d="M237.081 388.592L221.587 378.908" stroke="#E0F0F3" stroke-width="2"/>
<path d="M219.65 448.632L204.156 438.949" stroke="#E0F0F3" stroke-width="2"/>
<path d="M210.451 374.55L209.966 360.508" stroke="#E0F0F3" stroke-width="2"/>
<path d="M193.019 434.591L192.535 420.549" stroke="#E0F0F3" stroke-width="2"/>
<path d="M215.293 391.981L204.156 375.034" stroke="#E0F0F3" stroke-width="2"/>
<path d="M197.861 452.022L186.725 435.075" stroke="#E0F0F3" stroke-width="2"/>
<path d="M238.534 403.602L221.103 403.602" stroke="#E0F0F3" stroke-width="2"/>
<path d="M221.102 463.643L203.671 463.643" stroke="#E0F0F3" stroke-width="2"/>
<path d="M236.514 419.981L220.983 427.896" stroke="#E0F0F3" stroke-width="2"/>
<path d="M223.329 481.15L207.798 489.065" stroke="#E0F0F3" stroke-width="2"/>
<path d="M220.055 423.05L202.624 422.89" stroke="#E0F0F3" stroke-width="2"/>
<path d="M202.623 483.091L185.193 482.931" stroke="#E0F0F3" stroke-width="2"/>
<path d="M216.991 408.681L202.827 398.522" stroke="#E0F0F3" stroke-width="2"/>
<path d="M199.561 468.722L185.396 458.563" stroke="#E0F0F3" stroke-width="2"/>
<path d="M189.998 391.964L191.099 374.567" stroke="#E0F0F3" stroke-width="2"/>
<path d="M172.567 452.005L173.668 434.608" stroke="#E0F0F3" stroke-width="2"/>
<path d="M194.84 412.156L186.258 396.984" stroke="#E0F0F3" stroke-width="2"/>
<path d="M177.409 472.197L168.827 457.025" stroke="#E0F0F3" stroke-width="2"/>
<path d="M185.986 371.531L194.397 356.263" stroke="#E0F0F3" stroke-width="2"/>
<path d="M168.555 431.572L176.966 416.304" stroke="#E0F0F3" stroke-width="2"/>
<path d="M163.222 368.649L177.834 359.145" stroke="#E0F0F3" stroke-width="2"/>
<path d="M145.79 428.69L160.403 419.186" stroke="#E0F0F3" stroke-width="2"/>
<path d="M165.656 390.636L174.961 375.895" stroke="#E0F0F3" stroke-width="2"/>
<path d="M148.225 450.676L157.529 435.936" stroke="#E0F0F3" stroke-width="2"/>
<path d="M168.646 412.287L170.106 394.917" stroke="#E0F0F3" stroke-width="2"/>
<path d="M151.215 472.328L152.675 454.958" stroke="#E0F0F3" stroke-width="2"/>
<path d="M148.242 410.656L155.052 394.611" stroke="#E0F0F3" stroke-width="2"/>
<path d="M130.811 470.697L137.621 454.652" stroke="#E0F0F3" stroke-width="2"/>
<path d="M124.411 406.538L139.995 398.728" stroke="#E0F0F3" stroke-width="2"/>
<path d="M106.98 466.579L122.564 458.769" stroke="#E0F0F3" stroke-width="2"/>
<path d="M143.36 387.503L158.592 379.028" stroke="#E0F0F3" stroke-width="2"/>
<path d="M125.929 447.544L141.161 439.068" stroke="#E0F0F3" stroke-width="2"/>
<path d="M142.66 362.927L160.092 362.931" stroke="#E0F0F3" stroke-width="2"/>
<path d="M125.229 422.968L142.66 422.972" stroke="#E0F0F3" stroke-width="2"/>
<path d="M113.654 493.452L122.013 478.156" stroke="#E0F0F3" stroke-width="2"/>
<path d="M139.994 493.848L141.418 476.475" stroke="#E0F0F3" stroke-width="2"/>
<path d="M165.422 495.187L162.833 477.949" stroke="#E0F0F3" stroke-width="2"/>
<path d="M155.044 508.235L152.454 490.997" stroke="#E0F0F3" stroke-width="2"/>
<path d="M122.623 507.858L127.457 491.111" stroke="#E0F0F3" stroke-width="2"/>
<path d="M89.6857 506.952L102.087 494.703" stroke="#E0F0F3" stroke-width="2"/>
<path d="M180.815 507.132L189.531 492.036" stroke="#E0F0F3" stroke-width="2"/>
<path d="M122.324 383.263L139.755 383.267" stroke="#E0F0F3" stroke-width="2"/>
<path d="M104.893 443.304L122.324 443.308" stroke="#E0F0F3" stroke-width="2"/>
<path d="M103.728 379.009L117.679 389.459" stroke="#E0F0F3" stroke-width="2"/>
<path d="M86.2963 439.049L100.247 449.5" stroke="#E0F0F3" stroke-width="2"/>
<path d="M123.486 359.641L137.437 370.091" stroke="#E0F0F3" stroke-width="2"/>
<path d="M106.055 419.681L120.006 430.132" stroke="#E0F0F3" stroke-width="2"/>
<path d="M245.486 501.185L259.437 511.636" stroke="#E0F0F3" stroke-width="2"/>
<path d="M251.352 487.792L268.583 490.423" stroke="#E0F0F3" stroke-width="2"/>
<path d="M256.451 469.965L273.683 472.596" stroke="#E0F0F3" stroke-width="2"/>
<path d="M84.7498 398.377L98.7007 408.827" stroke="#E0F0F3" stroke-width="2"/>
<path d="M67.3191 458.417L81.2701 468.868" stroke="#E0F0F3" stroke-width="2"/>
<path d="M101.987 403.6L119.419 403.604" stroke="#E0F0F3" stroke-width="2"/>
<path d="M84.5563 463.641L101.987 463.645" stroke="#E0F0F3" stroke-width="2"/>
<path d="M91.6815 489.828L104.513 478.03" stroke="#E0F0F3" stroke-width="2"/>
<path d="M81.6514 423.936L99.0826 423.94" stroke="#E0F0F3" stroke-width="2"/>
<path d="M64.2198 483.977L81.651 483.981" stroke="#E0F0F3" stroke-width="2"/>
<path d="M250.639 404.086L241.439 408.444" stroke="#E0F0F3" stroke-width="2"/>
<path d="M242.533 465.119L224.807 471.468" stroke="#E0F0F3" stroke-width="2"/>
<path d="M251.123 382.297L241.439 381.329" stroke="#E0F0F3" stroke-width="2"/>
<path d="M253.06 419.096L245.797 431.201" stroke="#E0F0F3" stroke-width="2"/>
<path d="M238.976 477.69L231.713 489.795" stroke="#E0F0F3" stroke-width="2"/>
<path d="M234.176 435.075L226.913 447.18" stroke="#E0F0F3" stroke-width="2"/>
<path d="M215.923 498.133L208.66 510.238" stroke="#E0F0F3" stroke-width="2"/>
<path d="M246.999 440.184L246.28 454.283" stroke="#E0F0F3" stroke-width="2"/>
<path d="M233.865 501.007L233.146 515.105" stroke="#E0F0F3" stroke-width="2"/>
</g>
<rect x="120" y="154" width="300" height="300" rx="10" fill="#F3F6FA"/>
<mask id="mask2" mask-type="alpha" maskUnits="userSpaceOnUse" x="21" y="0" width="399" height="454">
<rect width="399" height="454" rx="29" transform="matrix(-1 0 0 1 420 0)" fill="#E3EAF1"/>
</mask>
<g mask="url(#mask2)">
<path d="M237.271 135.115L257.068 287.27C242.147 283.597 198.7 307.604 198.7 269.116C210.352 262.691 206.732 225.414 198.7 195.488C190.668 165.562 210.843 144.16 219.747 138.876L237.271 135.115Z" fill="#18214D"/>
<path d="M86.2909 136C86.2909 234.228 139.634 264.729 239 264.729L235.975 316C86.2909 312.231 62 217.553 62 142.622L86.2909 136Z" fill="#FFA79B"/>
<path d="M238.524 258.69H267.665C282.844 258.69 295.545 270.143 296.653 285.281C297.979 303.385 299.388 328.583 299.388 353.931C299.388 401.82 332 530.418 329.449 561.551C324.748 618.917 238.927 606.605 179.23 596.072C156.511 592.064 140.012 562.365 149.41 541.296C177.763 477.738 221.753 369.861 207 342.5C202.76 334.636 198.939 326.578 195.54 318.715C182.698 289.011 206.163 258.69 238.524 258.69Z" fill="url(#paint0_linear)"/>
<path d="M212.513 183.166C212.513 161.86 221.571 155.066 226.83 153.351L265.473 157.108L280.479 192.423C280.479 192.423 296.994 269.815 266.029 282.693C249.701 289.485 236.419 287.073 227.511 283.277C220.771 280.404 221.76 271.974 228.301 268.674L244.5 260.5L239.276 219.97C224.353 219.97 212.797 204.572 212.513 197.561L207.943 194.497C207.493 194.195 207.337 193.607 207.577 193.121L212.513 183.166Z" fill="#FFA79B"/>
<path d="M270.907 527.111C350.713 397.79 325.874 328.058 276.146 297.37L309.119 257.175C398 323.5 366.44 432.384 297.757 543.68L270.907 527.111Z" fill="#FFA79B"/>
<path d="M228.292 211.053C235.301 213.156 236.784 210.131 238.137 204.553C238.252 204.077 237.677 203.737 237.307 204.056C233.612 207.237 230.333 209.248 228.311 210.078C228 210.205 227.97 210.957 228.292 211.053Z" fill="white"/>
<path d="M219.026 172.772C222.872 170.251 227.315 170.62 231.263 175.696" stroke="#18214D" stroke-width="2" stroke-linecap="round"/>
<ellipse rx="2.2829" ry="3.46817" transform="matrix(-0.991299 0.131627 0.131627 0.991299 223.889 183.026)" fill="#18214D"/>
<path d="M333.366 316.49C327.395 341.398 351.612 349.106 344.512 372.223C337.413 395.341 305.258 422.838 273.102 405.944C240.946 389.05 293.603 347.984 278.531 328.144C262.151 306.583 230.582 303.272 249.971 268.595C269.36 233.918 268.882 208.654 257.339 190.573C220.377 190.573 219.492 151.711 219.492 139.029C264.018 112.737 303.485 144.926 303.485 183.967C303.485 223.207 294.097 234.437 323.94 247.798C353.783 261.159 339.337 291.583 333.366 316.49Z" fill="#18214D"/>
<path d="M101.978 115.601C93.4515 122.402 88.5 126 86 137C83.5 148 67.0203 153.1 63.2156 146.677C59.4109 140.255 52.0487 102.884 54.3256 100.635C57.4999 97.5 59.5154 108.366 61.3663 113.379C63.2156 112.271 58.6032 92.3045 61.3663 90.2735C66.4999 86.5 66.7171 105.623 68.5636 107.49C72.2568 107.49 66.9822 87.5267 71.8713 84.0973C77 80.5 76.6886 106.177 77.8526 108.366C81.6744 109.501 79.2623 88.1276 84.4388 85.2821C89.4999 82.5 87.9008 105.087 86.9154 117.489C91.5 109.5 109 110 101.978 115.601Z" fill="#FFA79B"/>
</g>
<defs>
<linearGradient id="paint0_linear" x1="267.472" y1="591.3" x2="267.472" y2="176.672" gradientUnits="userSpaceOnUse">
<stop stop-color="#8768C9"/>
<stop offset="1" stop-color="#AFA6F7"/>
</linearGradient>
</defs>
</svg>
