<svg width="618" height="751" viewBox="0 0 618 751" fill="none" xmlns="http://www.w3.org/2000/svg">
<path d="M196.168 435.035C91.6871 333.14 261.112 217.512 292.037 211.834C322.962 206.155 372.764 209.86 388.525 283.855C408.225 376.35 459.908 352.861 537.744 401.25C615.579 449.639 490.68 637.636 424.629 506.641C358.578 375.647 300.648 536.929 196.168 435.035Z" fill="#F8EBFC"/>
<mask id="mask0" mask-type="alpha" maskUnits="userSpaceOnUse" x="162" y="210" width="401" height="343">
<path d="M196.168 435.035C91.6871 333.14 261.112 217.512 292.037 211.834C322.962 206.155 372.764 209.86 388.525 283.855C408.225 376.35 459.908 352.861 537.744 401.25C615.579 449.639 490.68 637.636 424.629 506.641C358.578 375.647 300.648 536.929 196.168 435.035Z" fill="black"/>
</mask>
<g mask="url(#mask0)">
<circle cx="518.173" cy="550.684" r="4.79312" transform="rotate(-159.441 518.173 550.684)" fill="white"/>
<circle cx="530.797" cy="517.025" r="4.79312" transform="rotate(-159.441 530.797 517.025)" fill="white"/>
<circle cx="543.421" cy="483.366" r="4.79312" transform="rotate(-159.441 543.421 483.366)" fill="white"/>
<circle cx="556.044" cy="449.706" r="4.79312" transform="rotate(-159.441 556.044 449.706)" fill="white"/>
<circle cx="534.583" cy="537.641" r="4.79312" transform="rotate(-159.441 534.583 537.641)" fill="white"/>
<circle cx="547.206" cy="503.982" r="4.79312" transform="rotate(-159.441 547.206 503.982)" fill="white"/>
<circle cx="559.83" cy="470.323" r="4.79312" transform="rotate(-159.441 559.83 470.323)" fill="white"/>
<circle cx="497.977" cy="543.11" r="4.79312" transform="rotate(-159.441 497.977 543.11)" fill="white"/>
<circle cx="510.601" cy="509.451" r="4.79312" transform="rotate(-159.441 510.601 509.451)" fill="white"/>
<circle cx="523.225" cy="475.791" r="4.79312" transform="rotate(-159.441 523.225 475.791)" fill="white"/>
<circle cx="535.849" cy="442.132" r="4.79312" transform="rotate(-159.441 535.849 442.132)" fill="white"/>
<circle cx="548.473" cy="408.473" r="4.79312" transform="rotate(-159.441 548.473 408.473)" fill="white"/>
<circle cx="561.097" cy="374.814" r="4.79312" transform="rotate(-159.441 561.097 374.814)" fill="white"/>
<circle cx="514.387" cy="530.067" r="4.79312" transform="rotate(-159.441 514.387 530.067)" fill="white"/>
<circle cx="527.011" cy="496.408" r="4.79312" transform="rotate(-159.441 527.011 496.408)" fill="white"/>
<circle cx="539.635" cy="462.749" r="4.79312" transform="rotate(-159.441 539.635 462.749)" fill="white"/>
<circle cx="552.259" cy="429.09" r="4.79312" transform="rotate(-159.441 552.259 429.09)" fill="white"/>
<circle cx="564.882" cy="395.431" r="4.79312" transform="rotate(-159.441 564.882 395.431)" fill="white"/>
<circle cx="477.782" cy="535.535" r="4.79312" transform="rotate(-159.441 477.782 535.535)" fill="white"/>
<circle cx="490.406" cy="501.876" r="4.79312" transform="rotate(-159.441 490.406 501.876)" fill="white"/>
<circle cx="503.03" cy="468.217" r="4.79312" transform="rotate(-159.441 503.03 468.217)" fill="white"/>
<circle cx="515.654" cy="434.558" r="4.79312" transform="rotate(-159.441 515.654 434.558)" fill="white"/>
<circle cx="528.277" cy="400.899" r="4.79312" transform="rotate(-159.441 528.277 400.899)" fill="white"/>
<circle cx="540.901" cy="367.24" r="4.79312" transform="rotate(-159.441 540.901 367.24)" fill="white"/>
<circle cx="553.525" cy="333.581" r="4.79312" transform="rotate(-159.441 553.525 333.581)" fill="white"/>
<circle cx="566.149" cy="299.922" r="4.79312" transform="rotate(-159.441 566.149 299.922)" fill="white"/>
<circle cx="481.568" cy="556.152" r="4.79312" transform="rotate(-159.441 481.568 556.152)" fill="white"/>
<circle cx="494.192" cy="522.493" r="4.79312" transform="rotate(-159.441 494.192 522.493)" fill="white"/>
<circle cx="506.815" cy="488.833" r="4.79312" transform="rotate(-159.441 506.815 488.833)" fill="white"/>
<circle cx="519.44" cy="455.175" r="4.79312" transform="rotate(-159.441 519.44 455.175)" fill="white"/>
<circle cx="532.063" cy="421.515" r="4.79312" transform="rotate(-159.441 532.063 421.515)" fill="white"/>
<circle cx="544.687" cy="387.857" r="4.79312" transform="rotate(-159.441 544.687 387.857)" fill="white"/>
<circle cx="557.311" cy="354.198" r="4.79312" transform="rotate(-159.441 557.311 354.198)" fill="white"/>
<circle cx="457.587" cy="527.961" r="4.79312" transform="rotate(-159.441 457.587 527.961)" fill="white"/>
<circle cx="470.211" cy="494.302" r="4.79312" transform="rotate(-159.441 470.211 494.302)" fill="white"/>
<circle cx="482.834" cy="460.643" r="4.79312" transform="rotate(-159.441 482.834 460.643)" fill="white"/>
<circle cx="495.458" cy="426.984" r="4.79312" transform="rotate(-159.441 495.458 426.984)" fill="white"/>
<circle cx="508.082" cy="393.325" r="4.79312" transform="rotate(-159.441 508.082 393.325)" fill="white"/>
<circle cx="520.706" cy="359.666" r="4.79312" transform="rotate(-159.441 520.706 359.666)" fill="white"/>
<circle cx="533.329" cy="326.007" r="4.79312" transform="rotate(-159.441 533.329 326.007)" fill="white"/>
<circle cx="545.953" cy="292.348" r="4.79312" transform="rotate(-159.441 545.953 292.348)" fill="white"/>
<circle cx="461.373" cy="548.578" r="4.79312" transform="rotate(-159.441 461.373 548.578)" fill="white"/>
<circle cx="473.996" cy="514.919" r="4.79312" transform="rotate(-159.441 473.996 514.919)" fill="white"/>
<circle cx="486.62" cy="481.259" r="4.79312" transform="rotate(-159.441 486.62 481.259)" fill="white"/>
<circle cx="499.244" cy="447.601" r="4.79312" transform="rotate(-159.441 499.244 447.601)" fill="white"/>
<circle cx="511.868" cy="413.941" r="4.79312" transform="rotate(-159.441 511.868 413.941)" fill="white"/>
<circle cx="524.492" cy="380.283" r="4.79312" transform="rotate(-159.441 524.492 380.283)" fill="white"/>
<circle cx="537.116" cy="346.623" r="4.79312" transform="rotate(-159.441 537.116 346.623)" fill="white"/>
<circle cx="549.739" cy="312.965" r="4.79312" transform="rotate(-159.441 549.739 312.965)" fill="white"/>
<circle cx="424.768" cy="554.046" r="4.79312" transform="rotate(-159.441 424.768 554.046)" fill="white"/>
<circle cx="437.391" cy="520.386" r="4.79312" transform="rotate(-159.441 437.391 520.386)" fill="white"/>
<circle cx="450.015" cy="486.727" r="4.79312" transform="rotate(-159.441 450.015 486.727)" fill="white"/>
<circle cx="462.639" cy="453.068" r="4.79312" transform="rotate(-159.441 462.639 453.068)" fill="white"/>
<circle cx="475.263" cy="419.41" r="4.79312" transform="rotate(-159.441 475.263 419.41)" fill="white"/>
<circle cx="487.887" cy="385.75" r="4.79312" transform="rotate(-159.441 487.887 385.75)" fill="white"/>
<circle cx="500.51" cy="352.092" r="4.79312" transform="rotate(-159.441 500.51 352.092)" fill="white"/>
<circle cx="513.134" cy="318.432" r="4.79312" transform="rotate(-159.441 513.134 318.432)" fill="white"/>
<circle cx="525.758" cy="284.773" r="4.79312" transform="rotate(-159.441 525.758 284.773)" fill="white"/>
<circle cx="441.177" cy="541.003" r="4.79312" transform="rotate(-159.441 441.177 541.003)" fill="white"/>
<circle cx="453.801" cy="507.344" r="4.79312" transform="rotate(-159.441 453.801 507.344)" fill="white"/>
<circle cx="466.425" cy="473.685" r="4.79312" transform="rotate(-159.441 466.425 473.685)" fill="white"/>
<circle cx="479.049" cy="440.026" r="4.79312" transform="rotate(-159.441 479.049 440.026)" fill="white"/>
<circle cx="491.672" cy="406.367" r="4.79312" transform="rotate(-159.441 491.672 406.367)" fill="white"/>
<circle cx="504.296" cy="372.708" r="4.79312" transform="rotate(-159.441 504.296 372.708)" fill="white"/>
<circle cx="516.92" cy="339.049" r="4.79312" transform="rotate(-159.441 516.92 339.049)" fill="white"/>
<circle cx="529.544" cy="305.39" r="4.79312" transform="rotate(-159.441 529.544 305.39)" fill="white"/>
<circle cx="404.573" cy="546.472" r="4.79312" transform="rotate(-159.441 404.573 546.472)" fill="white"/>
<circle cx="417.196" cy="512.812" r="4.79312" transform="rotate(-159.441 417.196 512.812)" fill="white"/>
<circle cx="429.82" cy="479.154" r="4.79312" transform="rotate(-159.441 429.82 479.154)" fill="white"/>
<circle cx="442.443" cy="445.494" r="4.79312" transform="rotate(-159.441 442.443 445.494)" fill="white"/>
<circle cx="455.068" cy="411.835" r="4.79312" transform="rotate(-159.441 455.068 411.835)" fill="white"/>
<circle cx="467.691" cy="378.176" r="4.79312" transform="rotate(-159.441 467.691 378.176)" fill="white"/>
<circle cx="480.315" cy="344.517" r="4.79312" transform="rotate(-159.441 480.315 344.517)" fill="white"/>
<circle cx="492.939" cy="310.858" r="4.79312" transform="rotate(-159.441 492.939 310.858)" fill="white"/>
<circle cx="505.563" cy="277.199" r="4.79312" transform="rotate(-159.441 505.563 277.199)" fill="white"/>
<circle cx="420.982" cy="533.429" r="4.79312" transform="rotate(-159.441 420.982 533.429)" fill="white"/>
<circle cx="433.605" cy="499.769" r="4.79312" transform="rotate(-159.441 433.605 499.769)" fill="white"/>
<circle cx="446.229" cy="466.111" r="4.79312" transform="rotate(-159.441 446.229 466.111)" fill="white"/>
<circle cx="458.853" cy="432.452" r="4.79312" transform="rotate(-159.441 458.853 432.452)" fill="white"/>
<circle cx="471.477" cy="398.793" r="4.79312" transform="rotate(-159.441 471.477 398.793)" fill="white"/>
<circle cx="484.101" cy="365.134" r="4.79312" transform="rotate(-159.441 484.101 365.134)" fill="white"/>
<circle cx="496.724" cy="331.475" r="4.79312" transform="rotate(-159.441 496.724 331.475)" fill="white"/>
<circle cx="509.349" cy="297.816" r="4.79312" transform="rotate(-159.441 509.349 297.816)" fill="white"/>
<circle cx="384.377" cy="538.897" r="4.79312" transform="rotate(-159.441 384.377 538.897)" fill="white"/>
<circle cx="397" cy="505.238" r="4.79312" transform="rotate(-159.441 397 505.238)" fill="white"/>
<circle cx="409.625" cy="471.579" r="4.79312" transform="rotate(-159.441 409.625 471.579)" fill="white"/>
<circle cx="422.248" cy="437.92" r="4.79312" transform="rotate(-159.441 422.248 437.92)" fill="white"/>
<circle cx="434.872" cy="404.261" r="4.79312" transform="rotate(-159.441 434.872 404.261)" fill="white"/>
<circle cx="447.496" cy="370.602" r="4.79312" transform="rotate(-159.441 447.496 370.602)" fill="white"/>
<circle cx="460.12" cy="336.943" r="4.79312" transform="rotate(-159.441 460.12 336.943)" fill="white"/>
<circle cx="472.744" cy="303.284" r="4.79312" transform="rotate(-159.441 472.744 303.284)" fill="white"/>
<circle cx="485.367" cy="269.625" r="4.79312" transform="rotate(-159.441 485.367 269.625)" fill="white"/>
<circle cx="400.786" cy="525.855" r="4.79312" transform="rotate(-159.441 400.786 525.855)" fill="white"/>
<circle cx="413.41" cy="492.196" r="4.79312" transform="rotate(-159.441 413.41 492.196)" fill="white"/>
<circle cx="426.034" cy="458.536" r="4.79312" transform="rotate(-159.441 426.034 458.536)" fill="white"/>
<circle cx="438.658" cy="424.877" r="4.79312" transform="rotate(-159.441 438.658 424.877)" fill="white"/>
<circle cx="451.282" cy="391.219" r="4.79312" transform="rotate(-159.441 451.282 391.219)" fill="white"/>
<circle cx="463.905" cy="357.559" r="4.79312" transform="rotate(-159.441 463.905 357.559)" fill="white"/>
<circle cx="476.529" cy="323.9" r="4.79312" transform="rotate(-159.441 476.529 323.9)" fill="white"/>
<circle cx="489.153" cy="290.242" r="4.79312" transform="rotate(-159.441 489.153 290.242)" fill="white"/>
<circle cx="364.181" cy="531.322" r="4.79312" transform="rotate(-159.441 364.181 531.322)" fill="white"/>
<circle cx="376.805" cy="497.664" r="4.79312" transform="rotate(-159.441 376.805 497.664)" fill="white"/>
<circle cx="389.429" cy="464.005" r="4.79312" transform="rotate(-159.441 389.429 464.005)" fill="white"/>
<circle cx="402.052" cy="430.346" r="4.79312" transform="rotate(-159.441 402.052 430.346)" fill="white"/>
<circle cx="414.677" cy="396.687" r="4.79312" transform="rotate(-159.441 414.677 396.687)" fill="white"/>
<circle cx="427.301" cy="363.028" r="4.79312" transform="rotate(-159.441 427.301 363.028)" fill="white"/>
<circle cx="439.924" cy="329.368" r="4.79312" transform="rotate(-159.441 439.924 329.368)" fill="white"/>
<circle cx="452.548" cy="295.71" r="4.79312" transform="rotate(-159.441 452.548 295.71)" fill="white"/>
<circle cx="465.172" cy="262.051" r="4.79312" transform="rotate(-159.441 465.172 262.051)" fill="white"/>
<circle cx="380.591" cy="518.28" r="4.79312" transform="rotate(-159.441 380.591 518.28)" fill="white"/>
<circle cx="393.215" cy="484.621" r="4.79312" transform="rotate(-159.441 393.215 484.621)" fill="white"/>
<circle cx="405.839" cy="450.962" r="4.79312" transform="rotate(-159.441 405.839 450.962)" fill="white"/>
<circle cx="418.462" cy="417.303" r="4.79312" transform="rotate(-159.441 418.462 417.303)" fill="white"/>
<circle cx="431.086" cy="383.644" r="4.79312" transform="rotate(-159.441 431.086 383.644)" fill="white"/>
<circle cx="443.71" cy="349.985" r="4.79312" transform="rotate(-159.441 443.71 349.985)" fill="white"/>
<circle cx="456.334" cy="316.326" r="4.79312" transform="rotate(-159.441 456.334 316.326)" fill="white"/>
<circle cx="468.958" cy="282.667" r="4.79312" transform="rotate(-159.441 468.958 282.667)" fill="white"/>
<circle cx="343.986" cy="523.748" r="4.79312" transform="rotate(-159.441 343.986 523.748)" fill="white"/>
<circle cx="356.61" cy="490.089" r="4.79312" transform="rotate(-159.441 356.61 490.089)" fill="white"/>
<circle cx="369.233" cy="456.43" r="4.79312" transform="rotate(-159.441 369.233 456.43)" fill="white"/>
<circle cx="381.857" cy="422.771" r="4.79312" transform="rotate(-159.441 381.857 422.771)" fill="white"/>
<circle cx="394.481" cy="389.112" r="4.79312" transform="rotate(-159.441 394.481 389.112)" fill="white"/>
<circle cx="407.105" cy="355.453" r="4.79312" transform="rotate(-159.441 407.105 355.453)" fill="white"/>
<circle cx="419.729" cy="321.794" r="4.79312" transform="rotate(-159.441 419.729 321.794)" fill="white"/>
<circle cx="432.353" cy="288.136" r="4.79312" transform="rotate(-159.441 432.353 288.136)" fill="white"/>
<circle cx="444.977" cy="254.476" r="4.79312" transform="rotate(-159.441 444.977 254.476)" fill="white"/>
<circle cx="360.396" cy="510.706" r="4.79312" transform="rotate(-159.441 360.396 510.706)" fill="white"/>
<circle cx="373.02" cy="477.047" r="4.79312" transform="rotate(-159.441 373.02 477.047)" fill="white"/>
<circle cx="385.643" cy="443.388" r="4.79312" transform="rotate(-159.441 385.643 443.388)" fill="white"/>
<circle cx="398.267" cy="409.729" r="4.79312" transform="rotate(-159.441 398.267 409.729)" fill="white"/>
<circle cx="410.891" cy="376.07" r="4.79312" transform="rotate(-159.441 410.891 376.07)" fill="white"/>
<circle cx="423.515" cy="342.41" r="4.79312" transform="rotate(-159.441 423.515 342.41)" fill="white"/>
<circle cx="436.139" cy="308.752" r="4.79312" transform="rotate(-159.441 436.139 308.752)" fill="white"/>
<circle cx="448.762" cy="275.093" r="4.79312" transform="rotate(-159.441 448.762 275.093)" fill="white"/>
<circle cx="323.791" cy="516.174" r="4.79312" transform="rotate(-159.441 323.791 516.174)" fill="white"/>
<circle cx="336.414" cy="482.515" r="4.79312" transform="rotate(-159.441 336.414 482.515)" fill="white"/>
<circle cx="349.038" cy="448.856" r="4.79312" transform="rotate(-159.441 349.038 448.856)" fill="white"/>
<circle cx="361.662" cy="415.197" r="4.79312" transform="rotate(-159.441 361.662 415.197)" fill="white"/>
<circle cx="374.286" cy="381.538" r="4.79312" transform="rotate(-159.441 374.286 381.538)" fill="white"/>
<circle cx="386.91" cy="347.879" r="4.79312" transform="rotate(-159.441 386.91 347.879)" fill="white"/>
<circle cx="399.533" cy="314.22" r="4.79312" transform="rotate(-159.441 399.533 314.22)" fill="white"/>
<circle cx="412.157" cy="280.561" r="4.79312" transform="rotate(-159.441 412.157 280.561)" fill="white"/>
<circle cx="424.781" cy="246.902" r="4.79312" transform="rotate(-159.441 424.781 246.902)" fill="white"/>
<circle cx="340.2" cy="503.132" r="4.79312" transform="rotate(-159.441 340.2 503.132)" fill="white"/>
<circle cx="352.824" cy="469.473" r="4.79312" transform="rotate(-159.441 352.824 469.473)" fill="white"/>
<circle cx="365.448" cy="435.814" r="4.79312" transform="rotate(-159.441 365.448 435.814)" fill="white"/>
<circle cx="378.072" cy="402.155" r="4.79312" transform="rotate(-159.441 378.072 402.155)" fill="white"/>
<circle cx="390.696" cy="368.496" r="4.79312" transform="rotate(-159.441 390.696 368.496)" fill="white"/>
<circle cx="403.319" cy="334.837" r="4.79312" transform="rotate(-159.441 403.319 334.837)" fill="white"/>
<circle cx="415.943" cy="301.178" r="4.79312" transform="rotate(-159.441 415.943 301.178)" fill="white"/>
<circle cx="428.567" cy="267.518" r="4.79312" transform="rotate(-159.441 428.567 267.518)" fill="white"/>
<circle cx="303.595" cy="508.6" r="4.79312" transform="rotate(-159.441 303.595 508.6)" fill="white"/>
<circle cx="316.219" cy="474.941" r="4.79312" transform="rotate(-159.441 316.219 474.941)" fill="white"/>
<circle cx="328.843" cy="441.282" r="4.79312" transform="rotate(-159.441 328.843 441.282)" fill="white"/>
<circle cx="341.467" cy="407.623" r="4.79312" transform="rotate(-159.441 341.467 407.623)" fill="white"/>
<circle cx="354.09" cy="373.964" r="4.79312" transform="rotate(-159.441 354.09 373.964)" fill="white"/>
<circle cx="366.714" cy="340.305" r="4.79312" transform="rotate(-159.441 366.714 340.305)" fill="white"/>
<circle cx="379.338" cy="306.646" r="4.79312" transform="rotate(-159.441 379.338 306.646)" fill="white"/>
<circle cx="391.962" cy="272.987" r="4.79312" transform="rotate(-159.441 391.962 272.987)" fill="white"/>
<circle cx="404.586" cy="239.327" r="4.79312" transform="rotate(-159.441 404.586 239.327)" fill="white"/>
<circle cx="320.004" cy="495.557" r="4.79312" transform="rotate(-159.441 320.004 495.557)" fill="white"/>
<circle cx="332.629" cy="461.898" r="4.79312" transform="rotate(-159.441 332.629 461.898)" fill="white"/>
<circle cx="345.253" cy="428.24" r="4.79312" transform="rotate(-159.441 345.253 428.24)" fill="white"/>
<circle cx="357.876" cy="394.58" r="4.79312" transform="rotate(-159.441 357.876 394.58)" fill="white"/>
<circle cx="370.5" cy="360.922" r="4.79312" transform="rotate(-159.441 370.5 360.922)" fill="white"/>
<circle cx="383.124" cy="327.263" r="4.79312" transform="rotate(-159.441 383.124 327.263)" fill="white"/>
<circle cx="395.748" cy="293.603" r="4.79312" transform="rotate(-159.441 395.748 293.603)" fill="white"/>
<circle cx="408.371" cy="259.944" r="4.79312" transform="rotate(-159.441 408.371 259.944)" fill="white"/>
<circle cx="283.4" cy="501.025" r="4.79312" transform="rotate(-159.441 283.4 501.025)" fill="white"/>
<circle cx="296.024" cy="467.367" r="4.79312" transform="rotate(-159.441 296.024 467.367)" fill="white"/>
<circle cx="308.648" cy="433.707" r="4.79312" transform="rotate(-159.441 308.648 433.707)" fill="white"/>
<circle cx="321.271" cy="400.049" r="4.79312" transform="rotate(-159.441 321.271 400.049)" fill="white"/>
<circle cx="333.895" cy="366.389" r="4.79312" transform="rotate(-159.441 333.895 366.389)" fill="white"/>
<circle cx="346.519" cy="332.731" r="4.79312" transform="rotate(-159.441 346.519 332.731)" fill="white"/>
<circle cx="359.143" cy="299.071" r="4.79312" transform="rotate(-159.441 359.143 299.071)" fill="white"/>
<circle cx="371.766" cy="265.412" r="4.79312" transform="rotate(-159.441 371.766 265.412)" fill="white"/>
<circle cx="384.39" cy="231.753" r="4.79312" transform="rotate(-159.441 384.39 231.753)" fill="white"/>
<circle cx="299.809" cy="487.983" r="4.79312" transform="rotate(-159.441 299.809 487.983)" fill="white"/>
<circle cx="312.433" cy="454.324" r="4.79312" transform="rotate(-159.441 312.433 454.324)" fill="white"/>
<circle cx="325.057" cy="420.665" r="4.79312" transform="rotate(-159.441 325.057 420.665)" fill="white"/>
<circle cx="337.681" cy="387.006" r="4.79312" transform="rotate(-159.441 337.681 387.006)" fill="white"/>
<circle cx="350.304" cy="353.347" r="4.79312" transform="rotate(-159.441 350.304 353.347)" fill="white"/>
<circle cx="362.929" cy="319.688" r="4.79312" transform="rotate(-159.441 362.929 319.688)" fill="white"/>
<circle cx="375.552" cy="286.029" r="4.79312" transform="rotate(-159.441 375.552 286.029)" fill="white"/>
<circle cx="388.176" cy="252.37" r="4.79312" transform="rotate(-159.441 388.176 252.37)" fill="white"/>
<circle cx="263.204" cy="493.451" r="4.79312" transform="rotate(-159.441 263.204 493.451)" fill="white"/>
<circle cx="275.828" cy="459.793" r="4.79312" transform="rotate(-159.441 275.828 459.793)" fill="white"/>
<circle cx="288.452" cy="426.133" r="4.79312" transform="rotate(-159.441 288.452 426.133)" fill="white"/>
<circle cx="301.076" cy="392.474" r="4.79312" transform="rotate(-159.441 301.076 392.474)" fill="white"/>
<circle cx="313.7" cy="358.815" r="4.79312" transform="rotate(-159.441 313.7 358.815)" fill="white"/>
<circle cx="326.324" cy="325.157" r="4.79312" transform="rotate(-159.441 326.324 325.157)" fill="white"/>
<circle cx="338.947" cy="291.497" r="4.79312" transform="rotate(-159.441 338.947 291.497)" fill="white"/>
<circle cx="351.571" cy="257.838" r="4.79312" transform="rotate(-159.441 351.571 257.838)" fill="white"/>
<circle cx="364.195" cy="224.179" r="4.79312" transform="rotate(-159.441 364.195 224.179)" fill="white"/>
<circle cx="279.614" cy="480.409" r="4.79312" transform="rotate(-159.441 279.614 480.409)" fill="white"/>
<circle cx="292.238" cy="446.75" r="4.79312" transform="rotate(-159.441 292.238 446.75)" fill="white"/>
<circle cx="304.861" cy="413.091" r="4.79312" transform="rotate(-159.441 304.861 413.091)" fill="white"/>
<circle cx="317.485" cy="379.432" r="4.79312" transform="rotate(-159.441 317.485 379.432)" fill="white"/>
<circle cx="330.109" cy="345.773" r="4.79312" transform="rotate(-159.441 330.109 345.773)" fill="white"/>
<circle cx="342.733" cy="312.114" r="4.79312" transform="rotate(-159.441 342.733 312.114)" fill="white"/>
<circle cx="355.357" cy="278.455" r="4.79312" transform="rotate(-159.441 355.357 278.455)" fill="white"/>
<circle cx="367.981" cy="244.796" r="4.79312" transform="rotate(-159.441 367.981 244.796)" fill="white"/>
<circle cx="243.009" cy="485.877" r="4.79312" transform="rotate(-159.441 243.009 485.877)" fill="white"/>
<circle cx="255.632" cy="452.218" r="4.79312" transform="rotate(-159.441 255.632 452.218)" fill="white"/>
<circle cx="268.257" cy="418.559" r="4.79312" transform="rotate(-159.441 268.257 418.559)" fill="white"/>
<circle cx="280.88" cy="384.9" r="4.79312" transform="rotate(-159.441 280.88 384.9)" fill="white"/>
<circle cx="293.504" cy="351.241" r="4.79312" transform="rotate(-159.441 293.504 351.241)" fill="white"/>
<circle cx="306.128" cy="317.582" r="4.79312" transform="rotate(-159.441 306.128 317.582)" fill="white"/>
<circle cx="318.752" cy="283.923" r="4.79312" transform="rotate(-159.441 318.752 283.923)" fill="white"/>
<circle cx="331.376" cy="250.264" r="4.79312" transform="rotate(-159.441 331.376 250.264)" fill="white"/>
<circle cx="343.999" cy="216.605" r="4.79312" transform="rotate(-159.441 343.999 216.605)" fill="white"/>
<circle cx="259.419" cy="472.834" r="4.79312" transform="rotate(-159.441 259.419 472.834)" fill="white"/>
<circle cx="272.042" cy="439.176" r="4.79312" transform="rotate(-159.441 272.042 439.176)" fill="white"/>
<circle cx="284.666" cy="405.516" r="4.79312" transform="rotate(-159.441 284.666 405.516)" fill="white"/>
<circle cx="297.29" cy="371.858" r="4.79312" transform="rotate(-159.441 297.29 371.858)" fill="white"/>
<circle cx="309.914" cy="338.198" r="4.79312" transform="rotate(-159.441 309.914 338.198)" fill="white"/>
<circle cx="322.538" cy="304.539" r="4.79312" transform="rotate(-159.441 322.538 304.539)" fill="white"/>
<circle cx="335.161" cy="270.881" r="4.79312" transform="rotate(-159.441 335.161 270.881)" fill="white"/>
<circle cx="347.785" cy="237.222" r="4.79312" transform="rotate(-159.441 347.785 237.222)" fill="white"/>
<circle cx="222.813" cy="478.303" r="4.79312" transform="rotate(-159.441 222.813 478.303)" fill="white"/>
<circle cx="235.437" cy="444.643" r="4.79312" transform="rotate(-159.441 235.437 444.643)" fill="white"/>
<circle cx="248.061" cy="410.985" r="4.79312" transform="rotate(-159.441 248.061 410.985)" fill="white"/>
<circle cx="260.685" cy="377.326" r="4.79312" transform="rotate(-159.441 260.685 377.326)" fill="white"/>
<circle cx="273.309" cy="343.667" r="4.79312" transform="rotate(-159.441 273.309 343.667)" fill="white"/>
<circle cx="285.932" cy="310.008" r="4.79312" transform="rotate(-159.441 285.932 310.008)" fill="white"/>
<circle cx="298.557" cy="276.348" r="4.79312" transform="rotate(-159.441 298.557 276.348)" fill="white"/>
<circle cx="311.18" cy="242.689" r="4.79312" transform="rotate(-159.441 311.18 242.689)" fill="white"/>
<circle cx="323.804" cy="209.031" r="4.79312" transform="rotate(-159.441 323.804 209.031)" fill="white"/>
<circle cx="239.223" cy="465.26" r="4.79312" transform="rotate(-159.441 239.223 465.26)" fill="white"/>
<circle cx="251.847" cy="431.601" r="4.79312" transform="rotate(-159.441 251.847 431.601)" fill="white"/>
<circle cx="264.471" cy="397.942" r="4.79312" transform="rotate(-159.441 264.471 397.942)" fill="white"/>
<circle cx="277.095" cy="364.284" r="4.79312" transform="rotate(-159.441 277.095 364.284)" fill="white"/>
<circle cx="289.718" cy="330.624" r="4.79312" transform="rotate(-159.441 289.718 330.624)" fill="white"/>
<circle cx="302.342" cy="296.965" r="4.79312" transform="rotate(-159.441 302.342 296.965)" fill="white"/>
<circle cx="314.966" cy="263.306" r="4.79312" transform="rotate(-159.441 314.966 263.306)" fill="white"/>
<circle cx="327.59" cy="229.647" r="4.79312" transform="rotate(-159.441 327.59 229.647)" fill="white"/>
<circle cx="202.618" cy="470.728" r="4.79312" transform="rotate(-159.441 202.618 470.728)" fill="white"/>
<circle cx="215.242" cy="437.069" r="4.79312" transform="rotate(-159.441 215.242 437.069)" fill="white"/>
<circle cx="227.866" cy="403.41" r="4.79312" transform="rotate(-159.441 227.866 403.41)" fill="white"/>
<circle cx="240.49" cy="369.751" r="4.79312" transform="rotate(-159.441 240.49 369.751)" fill="white"/>
<circle cx="253.113" cy="336.093" r="4.79312" transform="rotate(-159.441 253.113 336.093)" fill="white"/>
<circle cx="265.737" cy="302.433" r="4.79312" transform="rotate(-159.441 265.737 302.433)" fill="white"/>
<circle cx="278.361" cy="268.774" r="4.79312" transform="rotate(-159.441 278.361 268.774)" fill="white"/>
<circle cx="290.985" cy="235.115" r="4.79312" transform="rotate(-159.441 290.985 235.115)" fill="white"/>
<circle cx="219.028" cy="457.686" r="4.79312" transform="rotate(-159.441 219.028 457.686)" fill="white"/>
<circle cx="231.652" cy="424.027" r="4.79312" transform="rotate(-159.441 231.652 424.027)" fill="white"/>
<circle cx="244.276" cy="390.368" r="4.79312" transform="rotate(-159.441 244.276 390.368)" fill="white"/>
<circle cx="256.899" cy="356.709" r="4.79312" transform="rotate(-159.441 256.899 356.709)" fill="white"/>
<circle cx="269.523" cy="323.05" r="4.79312" transform="rotate(-159.441 269.523 323.05)" fill="white"/>
<circle cx="282.147" cy="289.391" r="4.79312" transform="rotate(-159.441 282.147 289.391)" fill="white"/>
<circle cx="294.771" cy="255.732" r="4.79312" transform="rotate(-159.441 294.771 255.732)" fill="white"/>
<circle cx="307.394" cy="222.073" r="4.79312" transform="rotate(-159.441 307.394 222.073)" fill="white"/>
<circle cx="182.423" cy="463.154" r="4.79312" transform="rotate(-159.441 182.423 463.154)" fill="white"/>
<circle cx="195.047" cy="429.495" r="4.79312" transform="rotate(-159.441 195.047 429.495)" fill="white"/>
<circle cx="207.671" cy="395.836" r="4.79312" transform="rotate(-159.441 207.671 395.836)" fill="white"/>
<circle cx="220.294" cy="362.177" r="4.79312" transform="rotate(-159.441 220.294 362.177)" fill="white"/>
<circle cx="232.918" cy="328.518" r="4.79312" transform="rotate(-159.441 232.918 328.518)" fill="white"/>
<circle cx="245.542" cy="294.859" r="4.79312" transform="rotate(-159.441 245.542 294.859)" fill="white"/>
<circle cx="258.166" cy="261.2" r="4.79312" transform="rotate(-159.441 258.166 261.2)" fill="white"/>
<circle cx="270.789" cy="227.541" r="4.79312" transform="rotate(-159.441 270.789 227.541)" fill="white"/>
<circle cx="198.832" cy="450.112" r="4.79312" transform="rotate(-159.441 198.832 450.112)" fill="white"/>
<circle cx="211.456" cy="416.452" r="4.79312" transform="rotate(-159.441 211.456 416.452)" fill="white"/>
<circle cx="224.08" cy="382.794" r="4.79312" transform="rotate(-159.441 224.08 382.794)" fill="white"/>
<circle cx="236.704" cy="349.135" r="4.79312" transform="rotate(-159.441 236.704 349.135)" fill="white"/>
<circle cx="249.328" cy="315.476" r="4.79312" transform="rotate(-159.441 249.328 315.476)" fill="white"/>
<circle cx="261.951" cy="281.816" r="4.79312" transform="rotate(-159.441 261.951 281.816)" fill="white"/>
<circle cx="274.575" cy="248.158" r="4.79312" transform="rotate(-159.441 274.575 248.158)" fill="white"/>
<circle cx="287.199" cy="214.498" r="4.79312" transform="rotate(-159.441 287.199 214.498)" fill="white"/>
<circle cx="162.227" cy="455.58" r="4.79312" transform="rotate(-159.441 162.227 455.58)" fill="white"/>
<circle cx="174.851" cy="421.921" r="4.79312" transform="rotate(-159.441 174.851 421.921)" fill="white"/>
<circle cx="187.475" cy="388.262" r="4.79312" transform="rotate(-159.441 187.475 388.262)" fill="white"/>
<circle cx="200.099" cy="354.603" r="4.79312" transform="rotate(-159.441 200.099 354.603)" fill="white"/>
<circle cx="212.723" cy="320.944" r="4.79312" transform="rotate(-159.441 212.723 320.944)" fill="white"/>
<circle cx="225.346" cy="287.285" r="4.79312" transform="rotate(-159.441 225.346 287.285)" fill="white"/>
<circle cx="237.97" cy="253.626" r="4.79312" transform="rotate(-159.441 237.97 253.626)" fill="white"/>
<circle cx="250.594" cy="219.967" r="4.79312" transform="rotate(-159.441 250.594 219.967)" fill="white"/>
<circle cx="178.637" cy="442.537" r="4.79312" transform="rotate(-159.441 178.637 442.537)" fill="white"/>
<circle cx="191.26" cy="408.878" r="4.79312" transform="rotate(-159.441 191.26 408.878)" fill="white"/>
<circle cx="203.885" cy="375.22" r="4.79312" transform="rotate(-159.441 203.885 375.22)" fill="white"/>
<circle cx="216.509" cy="341.56" r="4.79312" transform="rotate(-159.441 216.509 341.56)" fill="white"/>
<circle cx="229.132" cy="307.902" r="4.79312" transform="rotate(-159.441 229.132 307.902)" fill="white"/>
<circle cx="241.756" cy="274.242" r="4.79312" transform="rotate(-159.441 241.756 274.242)" fill="white"/>
<circle cx="254.38" cy="240.584" r="4.79312" transform="rotate(-159.441 254.38 240.584)" fill="white"/>
<circle cx="267.004" cy="206.924" r="4.79312" transform="rotate(-159.441 267.004 206.924)" fill="white"/>
<circle cx="167.28" cy="380.687" r="4.79312" transform="rotate(-159.441 167.28 380.687)" fill="white"/>
<circle cx="179.904" cy="347.029" r="4.79312" transform="rotate(-159.441 179.904 347.029)" fill="white"/>
<circle cx="192.527" cy="313.369" r="4.79312" transform="rotate(-159.441 192.527 313.369)" fill="white"/>
<circle cx="205.151" cy="279.71" r="4.79312" transform="rotate(-159.441 205.151 279.71)" fill="white"/>
<circle cx="217.775" cy="246.051" r="4.79312" transform="rotate(-159.441 217.775 246.051)" fill="white"/>
<circle cx="230.399" cy="212.392" r="4.79312" transform="rotate(-159.441 230.399 212.392)" fill="white"/>
<circle cx="158.442" cy="434.963" r="4.79312" transform="rotate(-159.441 158.442 434.963)" fill="white"/>
<circle cx="171.065" cy="401.304" r="4.79312" transform="rotate(-159.441 171.065 401.304)" fill="white"/>
<circle cx="183.689" cy="367.645" r="4.79312" transform="rotate(-159.441 183.689 367.645)" fill="white"/>
<circle cx="196.313" cy="333.986" r="4.79312" transform="rotate(-159.441 196.313 333.986)" fill="white"/>
<circle cx="208.937" cy="300.327" r="4.79312" transform="rotate(-159.441 208.937 300.327)" fill="white"/>
<circle cx="221.561" cy="266.668" r="4.79312" transform="rotate(-159.441 221.561 266.668)" fill="white"/>
<circle cx="234.185" cy="233.009" r="4.79312" transform="rotate(-159.441 234.185 233.009)" fill="white"/>
<circle cx="159.708" cy="339.454" r="4.79312" transform="rotate(-159.441 159.708 339.454)" fill="white"/>
<circle cx="172.332" cy="305.795" r="4.79312" transform="rotate(-159.441 172.332 305.795)" fill="white"/>
<circle cx="184.956" cy="272.136" r="4.79312" transform="rotate(-159.441 184.956 272.136)" fill="white"/>
<circle cx="197.579" cy="238.477" r="4.79312" transform="rotate(-159.441 197.579 238.477)" fill="white"/>
<circle cx="210.203" cy="204.818" r="4.79312" transform="rotate(-159.441 210.203 204.818)" fill="white"/>
<circle cx="163.494" cy="360.071" r="4.79312" transform="rotate(-159.441 163.494 360.071)" fill="white"/>
<circle cx="176.118" cy="326.412" r="4.79312" transform="rotate(-159.441 176.118 326.412)" fill="white"/>
<circle cx="188.741" cy="292.753" r="4.79312" transform="rotate(-159.441 188.741 292.753)" fill="white"/>
<circle cx="201.365" cy="259.094" r="4.79312" transform="rotate(-159.441 201.365 259.094)" fill="white"/>
<circle cx="213.989" cy="225.435" r="4.79312" transform="rotate(-159.441 213.989 225.435)" fill="white"/>
<circle cx="168.546" cy="285.179" r="4.79312" transform="rotate(-159.441 168.546 285.179)" fill="white"/>
<circle cx="181.17" cy="251.52" r="4.79312" transform="rotate(-159.441 181.17 251.52)" fill="white"/>
<circle cx="193.794" cy="217.861" r="4.79312" transform="rotate(-159.441 193.794 217.861)" fill="white"/>
</g>
<path d="M203.335 511.606C233.349 469.619 285.24 538.111 315.167 443.72C345.094 349.33 210.792 372.38 170.554 246.638C130.317 120.897 30.3346 195.507 30.313 255.642C30.2916 315.244 -19.0466 306.928 -51.0835 329.738C-95.1695 361.126 -74.5653 386.903 -24.0742 410.72C23.1846 433.012 30.2047 461.292 42.7603 502.688C66.5303 581.058 139.893 600.356 203.335 511.606Z" fill="#C2DBF1"/>
<mask id="mask1" mask-type="alpha" maskUnits="userSpaceOnUse" x="-76" y="178" width="385" height="393">
<path d="M203.388 511.643C233.402 469.656 290.262 511.586 307.257 457.984C324.252 404.382 210.844 372.417 170.607 246.676C130.369 120.935 30.387 195.545 30.3654 255.68C30.344 315.282 -18.9942 306.966 -51.0311 329.776C-95.117 361.164 -74.5129 386.94 -24.0218 410.758C23.237 433.05 30.2571 461.33 42.8128 502.726C66.5828 581.096 139.946 600.394 203.388 511.643Z" fill="#E8F0F0"/>
</mask>
<g mask="url(#mask1)">
<path d="M70.773 302.441L75.2288 336.581" stroke="#E0F0F3" stroke-width="2"/>
<path d="M82.2179 358.003L62.3641 375.517" stroke="#E0F0F3" stroke-width="2"/>
<path d="M101.787 330.091L90.4576 366.584" stroke="#E0F0F3" stroke-width="2"/>
<path d="M-17.3603 328.867L3.50604 354.233" stroke="#E0F0F3" stroke-width="2"/>
<path d="M90.8771 282.361L111.743 307.726" stroke="#E0F0F3" stroke-width="2"/>
<path d="M8.89276 312.201L39.0015 325.326" stroke="#E0F0F3" stroke-width="2"/>
<path d="M113.688 258.162L143.796 271.288" stroke="#E0F0F3" stroke-width="2"/>
<path d="M33.0606 332.478L53.6937 358.033" stroke="#E0F0F3" stroke-width="2"/>
<path d="M141.298 285.971L161.932 311.527" stroke="#E0F0F3" stroke-width="2"/>
<path d="M15.8192 354.136L17.9917 386.909" stroke="#E0F0F3" stroke-width="2"/>
<path d="M124.055 307.627L126.227 340.4" stroke="#E0F0F3" stroke-width="2"/>
<path d="M23.8046 413.426L-2.82851 432.649" stroke="#E0F0F3" stroke-width="2"/>
<path d="M132.041 366.919L105.408 386.141" stroke="#E0F0F3" stroke-width="2"/>
<path d="M47.3926 382.209L35.5878 412.86" stroke="#E0F0F3" stroke-width="2"/>
<path d="M155.63 335.703L143.825 366.353" stroke="#E0F0F3" stroke-width="2"/>
<path d="M107.111 397.218L74.8256 403.256" stroke="#E0F0F3" stroke-width="2"/>
<path d="M21.931 480.302L-9.39092 470.415" stroke="#E0F0F3" stroke-width="2"/>
<path d="M130.168 433.794L98.8463 423.907" stroke="#E0F0F3" stroke-width="2"/>
<path d="M51.011 450.44L18.4231 454.545" stroke="#E0F0F3" stroke-width="2"/>
<path d="M159.248 403.933L126.66 408.038" stroke="#E0F0F3" stroke-width="2"/>
<path d="M78.9384 420.17L51.9143 438.839" stroke="#E0F0F3" stroke-width="2"/>
<path d="M187.175 373.663L160.151 392.331" stroke="#E0F0F3" stroke-width="2"/>
<path d="M100.991 451.813L69.4895 461.111" stroke="#E0F0F3" stroke-width="2"/>
<path d="M209.228 405.307L177.727 414.605" stroke="#E0F0F3" stroke-width="2"/>
<path d="M123.525 491.423L93.5059 478.094" stroke="#E0F0F3" stroke-width="2"/>
<path d="M231.762 444.914L201.743 431.585" stroke="#E0F0F3" stroke-width="2"/>
<path d="M73.1431 486.634L42.5758 474.614" stroke="#E0F0F3" stroke-width="2"/>
<path d="M181.38 440.127L150.812 428.108" stroke="#E0F0F3" stroke-width="2"/>
<path d="M38.2171 517.072L17.3566 491.701" stroke="#E0F0F3" stroke-width="2"/>
<path d="M146.454 470.564L125.594 445.194" stroke="#E0F0F3" stroke-width="2"/>
<path d="M262.878 403.034L230.613 409.182" stroke="#E0F0F3" stroke-width="2"/>
<path d="M231.924 364.229L204.939 382.953" stroke="#E0F0F3" stroke-width="2"/>
<path d="M203.432 325.625L181.448 350.028" stroke="#E0F0F3" stroke-width="2"/>
<path d="M234.843 325.108L212.859 349.512" stroke="#E0F0F3" stroke-width="2"/>
<path d="M273.105 372.736L242.948 385.75" stroke="#E0F0F3" stroke-width="2"/>
<path d="M311.216 421.751L278.545 418.368" stroke="#E0F0F3" stroke-width="2"/>
<path d="M202.388 288.926L169.988 294.314" stroke="#E0F0F3" stroke-width="2"/>
<path d="M92.1544 522.321L71.2939 496.95" stroke="#E0F0F3" stroke-width="2"/>
<path d="M200.392 475.813L179.531 450.443" stroke="#E0F0F3" stroke-width="2"/>
<path d="M108.224 554.475L106.732 521.663" stroke="#E0F0F3" stroke-width="2"/>
<path d="M216.462 507.968L214.969 475.156" stroke="#E0F0F3" stroke-width="2"/>
<path d="M56.3882 548.909L54.8956 516.097" stroke="#E0F0F3" stroke-width="2"/>
<path d="M164.625 502.401L163.132 469.589" stroke="#E0F0F3" stroke-width="2"/>
<path d="M116.319 201.937L114.827 169.125" stroke="#E0F0F3" stroke-width="2"/>
<path d="M89.808 209.434L73.0094 181.21" stroke="#E0F0F3" stroke-width="2"/>
<path d="M57.762 223.352L40.9633 195.127" stroke="#E0F0F3" stroke-width="2"/>
<path d="M159.126 558.908L157.634 526.096" stroke="#E0F0F3" stroke-width="2"/>
<path d="M267.363 512.399L265.87 479.587" stroke="#E0F0F3" stroke-width="2"/>
<path d="M146.092 527.57L125.232 502.199" stroke="#E0F0F3" stroke-width="2"/>
<path d="M254.329 481.062L233.468 455.692" stroke="#E0F0F3" stroke-width="2"/>
<path d="M283.908 439.346L251.379 434.797" stroke="#E0F0F3" stroke-width="2"/>
<path d="M200.03 532.819L179.169 507.449" stroke="#E0F0F3" stroke-width="2"/>
<path d="M308.266 486.312L287.406 460.942" stroke="#E0F0F3" stroke-width="2"/>
<path d="M67.3718 249.406L97.8289 267.601" stroke="#E0F0F3" stroke-width="2"/>
<path d="M-12.2016 289.181L14.1078 285.26" stroke="#E0F0F3" stroke-width="2"/>
<path d="M89.9218 239.535L116.231 235.613" stroke="#E0F0F3" stroke-width="2"/>
<path d="M33.6561 297.533L59.9654 293.612" stroke="#E0F0F3" stroke-width="2"/>
<path d="M147.267 248.61L173.577 244.689" stroke="#E0F0F3" stroke-width="2"/>
<path d="M25.7404 272.757L47.1167 256.927" stroke="#E0F0F3" stroke-width="2"/>
<path d="M129.971 219.062L151.347 203.231" stroke="#E0F0F3" stroke-width="2"/>
</g>
</svg>
