<svg width="364" height="429" viewBox="0 0 364 429" fill="none" xmlns="http://www.w3.org/2000/svg">
<path d="M422.212 182.514C506.044 296.736 325.375 380.488 294.854 381.001C264.333 381.515 217.229 370.035 213.92 296.661C209.783 204.944 156.547 219.208 89.7111 160.471C22.8757 101.734 172.429 -58.416 214.823 77.554C257.217 213.524 338.38 68.2922 422.212 182.514Z" fill="#F8EBFC"/>
<mask id="mask0" mask-type="alpha" maskUnits="userSpaceOnUse" x="72" y="24" width="373" height="358">
<path d="M422.212 182.514C506.044 296.736 325.375 380.488 294.854 381.001C264.333 381.515 217.229 370.035 213.92 296.661C209.783 204.944 156.547 219.208 89.7111 160.471C22.8757 101.734 172.429 -58.416 214.823 77.554C257.217 213.524 338.38 68.2922 422.212 182.514Z" fill="black"/>
</mask>
<g mask="url(#mask0)">
<circle cx="132.251" cy="20.4776" r="4.65332" transform="rotate(30 132.251 20.4776)" fill="white"/>
<circle cx="114.802" cy="50.7023" r="4.65332" transform="rotate(30 114.802 50.7023)" fill="white"/>
<circle cx="97.3514" cy="80.9264" r="4.65332" transform="rotate(30 97.3514 80.9264)" fill="white"/>
<circle cx="79.9015" cy="111.151" r="4.65332" transform="rotate(30 79.9015 111.151)" fill="white"/>
<circle cx="114.459" cy="30.3551" r="4.65332" transform="rotate(30 114.459 30.3551)" fill="white"/>
<circle cx="97.0094" cy="60.5797" r="4.65332" transform="rotate(30 97.0094 60.5797)" fill="white"/>
<circle cx="79.5594" cy="90.8033" r="4.65332" transform="rotate(30 79.5594 90.8033)" fill="white"/>
<circle cx="150.386" cy="30.9479" r="4.65332" transform="rotate(30 150.386 30.9479)" fill="white"/>
<circle cx="132.936" cy="61.1725" r="4.65332" transform="rotate(30 132.936 61.1725)" fill="white"/>
<circle cx="115.486" cy="91.3961" r="4.65332" transform="rotate(30 115.486 91.3961)" fill="white"/>
<circle cx="98.036" cy="121.621" r="4.65332" transform="rotate(30 98.036 121.621)" fill="white"/>
<circle cx="80.5863" cy="151.844" r="4.65332" transform="rotate(30 80.5863 151.844)" fill="white"/>
<circle cx="132.594" cy="40.8253" r="4.65332" transform="rotate(30 132.594 40.8253)" fill="white"/>
<circle cx="115.144" cy="71.0499" r="4.65332" transform="rotate(30 115.144 71.0499)" fill="white"/>
<circle cx="97.6937" cy="101.274" r="4.65332" transform="rotate(30 97.6937 101.274)" fill="white"/>
<circle cx="80.2438" cy="131.498" r="4.65332" transform="rotate(30 80.2438 131.498)" fill="white"/>
<circle cx="168.521" cy="41.4181" r="4.65332" transform="rotate(30 168.521 41.4181)" fill="white"/>
<circle cx="151.07" cy="71.6422" r="4.65332" transform="rotate(30 151.07 71.6422)" fill="white"/>
<circle cx="133.62" cy="101.867" r="4.65332" transform="rotate(30 133.62 101.867)" fill="white"/>
<circle cx="116.171" cy="132.09" r="4.65332" transform="rotate(30 116.171 132.09)" fill="white"/>
<circle cx="98.7208" cy="162.315" r="4.65332" transform="rotate(30 98.7208 162.315)" fill="white"/>
<circle cx="81.2706" cy="192.539" r="4.65332" transform="rotate(30 81.2706 192.539)" fill="white"/>
<circle cx="168.178" cy="21.0709" r="4.65332" transform="rotate(30 168.178 21.0709)" fill="white"/>
<circle cx="150.728" cy="51.295" r="4.65332" transform="rotate(30 150.728 51.295)" fill="white"/>
<circle cx="133.278" cy="81.5191" r="4.65332" transform="rotate(30 133.278 81.5191)" fill="white"/>
<circle cx="115.828" cy="111.744" r="4.65332" transform="rotate(30 115.828 111.744)" fill="white"/>
<circle cx="98.3785" cy="141.968" r="4.65332" transform="rotate(30 98.3785 141.968)" fill="white"/>
<circle cx="80.9286" cy="172.192" r="4.65332" transform="rotate(30 80.9286 172.192)" fill="white"/>
<circle cx="204.105" cy="21.6637" r="4.65332" transform="rotate(30 204.105 21.6637)" fill="white"/>
<circle cx="186.655" cy="51.8883" r="4.65332" transform="rotate(30 186.655 51.8883)" fill="white"/>
<circle cx="169.205" cy="82.1119" r="4.65332" transform="rotate(30 169.205 82.1119)" fill="white"/>
<circle cx="151.755" cy="112.337" r="4.65332" transform="rotate(30 151.755 112.337)" fill="white"/>
<circle cx="134.305" cy="142.561" r="4.65332" transform="rotate(30 134.305 142.561)" fill="white"/>
<circle cx="116.855" cy="172.785" r="4.65332" transform="rotate(30 116.855 172.785)" fill="white"/>
<circle cx="99.4051" cy="203.009" r="4.65332" transform="rotate(30 99.4051 203.009)" fill="white"/>
<circle cx="81.9554" cy="233.234" r="4.65332" transform="rotate(30 81.9554 233.234)" fill="white"/>
<circle cx="186.313" cy="31.5411" r="4.65332" transform="rotate(30 186.313 31.5411)" fill="white"/>
<circle cx="168.863" cy="61.7652" r="4.65332" transform="rotate(30 168.863 61.7652)" fill="white"/>
<circle cx="151.412" cy="91.9894" r="4.65332" transform="rotate(30 151.412 91.9894)" fill="white"/>
<circle cx="133.963" cy="122.213" r="4.65332" transform="rotate(30 133.963 122.213)" fill="white"/>
<circle cx="116.513" cy="152.438" r="4.65332" transform="rotate(30 116.513 152.438)" fill="white"/>
<circle cx="99.0629" cy="182.662" r="4.65332" transform="rotate(30 99.0629 182.662)" fill="white"/>
<circle cx="81.6129" cy="212.886" r="4.65332" transform="rotate(30 81.6129 212.886)" fill="white"/>
<circle cx="222.239" cy="32.1339" r="4.65332" transform="rotate(30 222.239 32.1339)" fill="white"/>
<circle cx="204.789" cy="62.3585" r="4.65332" transform="rotate(30 204.789 62.3585)" fill="white"/>
<circle cx="187.34" cy="92.5821" r="4.65332" transform="rotate(30 187.34 92.5821)" fill="white"/>
<circle cx="169.89" cy="122.806" r="4.65332" transform="rotate(30 169.89 122.806)" fill="white"/>
<circle cx="152.44" cy="153.03" r="4.65332" transform="rotate(30 152.44 153.03)" fill="white"/>
<circle cx="134.99" cy="183.255" r="4.65332" transform="rotate(30 134.99 183.255)" fill="white"/>
<circle cx="117.54" cy="213.479" r="4.65332" transform="rotate(30 117.54 213.479)" fill="white"/>
<circle cx="100.09" cy="243.703" r="4.65332" transform="rotate(30 100.09 243.703)" fill="white"/>
<circle cx="82.6398" cy="273.927" r="4.65332" transform="rotate(30 82.6398 273.927)" fill="white"/>
<circle cx="204.447" cy="42.0108" r="4.65332" transform="rotate(30 204.447 42.0108)" fill="white"/>
<circle cx="186.997" cy="72.235" r="4.65332" transform="rotate(30 186.997 72.235)" fill="white"/>
<circle cx="169.547" cy="102.46" r="4.65332" transform="rotate(30 169.547 102.46)" fill="white"/>
<circle cx="152.097" cy="132.683" r="4.65332" transform="rotate(30 152.097 132.683)" fill="white"/>
<circle cx="134.647" cy="162.908" r="4.65332" transform="rotate(30 134.647 162.908)" fill="white"/>
<circle cx="117.197" cy="193.131" r="4.65332" transform="rotate(30 117.197 193.131)" fill="white"/>
<circle cx="99.7477" cy="223.356" r="4.65332" transform="rotate(30 99.7477 223.356)" fill="white"/>
<circle cx="82.2975" cy="253.58" r="4.65332" transform="rotate(30 82.2975 253.58)" fill="white"/>
<circle cx="240.373" cy="42.6036" r="4.65332" transform="rotate(30 240.373 42.6036)" fill="white"/>
<circle cx="222.924" cy="72.8277" r="4.65332" transform="rotate(30 222.924 72.8277)" fill="white"/>
<circle cx="205.474" cy="103.052" r="4.65332" transform="rotate(30 205.474 103.052)" fill="white"/>
<circle cx="188.024" cy="133.276" r="4.65332" transform="rotate(30 188.024 133.276)" fill="white"/>
<circle cx="170.574" cy="163.501" r="4.65332" transform="rotate(30 170.574 163.501)" fill="white"/>
<circle cx="153.124" cy="193.725" r="4.65332" transform="rotate(30 153.124 193.725)" fill="white"/>
<circle cx="135.674" cy="223.948" r="4.65332" transform="rotate(30 135.674 223.948)" fill="white"/>
<circle cx="118.224" cy="254.173" r="4.65332" transform="rotate(30 118.224 254.173)" fill="white"/>
<circle cx="100.774" cy="284.397" r="4.65332" transform="rotate(30 100.774 284.397)" fill="white"/>
<circle cx="222.581" cy="52.4811" r="4.65332" transform="rotate(30 222.581 52.4811)" fill="white"/>
<circle cx="205.132" cy="82.7052" r="4.65332" transform="rotate(30 205.132 82.7052)" fill="white"/>
<circle cx="187.682" cy="112.929" r="4.65332" transform="rotate(30 187.682 112.929)" fill="white"/>
<circle cx="170.232" cy="143.153" r="4.65332" transform="rotate(30 170.232 143.153)" fill="white"/>
<circle cx="152.782" cy="173.378" r="4.65332" transform="rotate(30 152.782 173.378)" fill="white"/>
<circle cx="135.332" cy="203.602" r="4.65332" transform="rotate(30 135.332 203.602)" fill="white"/>
<circle cx="117.882" cy="233.826" r="4.65332" transform="rotate(30 117.882 233.826)" fill="white"/>
<circle cx="100.432" cy="264.05" r="4.65332" transform="rotate(30 100.432 264.05)" fill="white"/>
<circle cx="258.509" cy="53.0733" r="4.65332" transform="rotate(30 258.509 53.0733)" fill="white"/>
<circle cx="241.058" cy="83.298" r="4.65332" transform="rotate(30 241.058 83.298)" fill="white"/>
<circle cx="223.609" cy="113.522" r="4.65332" transform="rotate(30 223.609 113.522)" fill="white"/>
<circle cx="206.159" cy="143.746" r="4.65332" transform="rotate(30 206.159 143.746)" fill="white"/>
<circle cx="188.709" cy="173.97" r="4.65332" transform="rotate(30 188.709 173.97)" fill="white"/>
<circle cx="171.259" cy="204.195" r="4.65332" transform="rotate(30 171.259 204.195)" fill="white"/>
<circle cx="153.808" cy="234.419" r="4.65332" transform="rotate(30 153.808 234.419)" fill="white"/>
<circle cx="136.359" cy="264.643" r="4.65332" transform="rotate(30 136.359 264.643)" fill="white"/>
<circle cx="118.909" cy="294.867" r="4.65332" transform="rotate(30 118.909 294.867)" fill="white"/>
<circle cx="240.716" cy="62.9508" r="4.65332" transform="rotate(30 240.716 62.9508)" fill="white"/>
<circle cx="223.266" cy="93.1754" r="4.65332" transform="rotate(30 223.266 93.1754)" fill="white"/>
<circle cx="205.816" cy="123.399" r="4.65332" transform="rotate(30 205.816 123.399)" fill="white"/>
<circle cx="188.366" cy="153.624" r="4.65332" transform="rotate(30 188.366 153.624)" fill="white"/>
<circle cx="170.916" cy="183.847" r="4.65332" transform="rotate(30 170.916 183.847)" fill="white"/>
<circle cx="153.466" cy="214.072" r="4.65332" transform="rotate(30 153.466 214.072)" fill="white"/>
<circle cx="136.016" cy="244.296" r="4.65332" transform="rotate(30 136.016 244.296)" fill="white"/>
<circle cx="118.566" cy="274.521" r="4.65332" transform="rotate(30 118.566 274.521)" fill="white"/>
<circle cx="276.643" cy="63.5436" r="4.65332" transform="rotate(30 276.643 63.5436)" fill="white"/>
<circle cx="259.193" cy="93.7682" r="4.65332" transform="rotate(30 259.193 93.7682)" fill="white"/>
<circle cx="241.743" cy="123.992" r="4.65332" transform="rotate(30 241.743 123.992)" fill="white"/>
<circle cx="224.293" cy="154.216" r="4.65332" transform="rotate(30 224.293 154.216)" fill="white"/>
<circle cx="206.843" cy="184.44" r="4.65332" transform="rotate(30 206.843 184.44)" fill="white"/>
<circle cx="189.393" cy="214.665" r="4.65332" transform="rotate(30 189.393 214.665)" fill="white"/>
<circle cx="171.943" cy="244.888" r="4.65332" transform="rotate(30 171.943 244.888)" fill="white"/>
<circle cx="154.494" cy="275.112" r="4.65332" transform="rotate(30 154.494 275.112)" fill="white"/>
<circle cx="137.043" cy="305.337" r="4.65332" transform="rotate(30 137.043 305.337)" fill="white"/>
<circle cx="258.851" cy="73.4205" r="4.65332" transform="rotate(30 258.851 73.4205)" fill="white"/>
<circle cx="241.4" cy="103.645" r="4.65332" transform="rotate(30 241.4 103.645)" fill="white"/>
<circle cx="223.951" cy="133.869" r="4.65332" transform="rotate(30 223.951 133.869)" fill="white"/>
<circle cx="206.501" cy="164.094" r="4.65332" transform="rotate(30 206.501 164.094)" fill="white"/>
<circle cx="189.051" cy="194.317" r="4.65332" transform="rotate(30 189.051 194.317)" fill="white"/>
<circle cx="171.601" cy="224.542" r="4.65332" transform="rotate(30 171.601 224.542)" fill="white"/>
<circle cx="154.151" cy="254.766" r="4.65332" transform="rotate(30 154.151 254.766)" fill="white"/>
<circle cx="136.701" cy="284.99" r="4.65332" transform="rotate(30 136.701 284.99)" fill="white"/>
<circle cx="294.777" cy="74.0138" r="4.65332" transform="rotate(30 294.777 74.0138)" fill="white"/>
<circle cx="277.327" cy="104.237" r="4.65332" transform="rotate(30 277.327 104.237)" fill="white"/>
<circle cx="259.878" cy="134.462" r="4.65332" transform="rotate(30 259.878 134.462)" fill="white"/>
<circle cx="242.428" cy="164.687" r="4.65332" transform="rotate(30 242.428 164.687)" fill="white"/>
<circle cx="224.977" cy="194.911" r="4.65332" transform="rotate(30 224.977 194.911)" fill="white"/>
<circle cx="207.528" cy="225.134" r="4.65332" transform="rotate(30 207.528 225.134)" fill="white"/>
<circle cx="190.078" cy="255.359" r="4.65332" transform="rotate(30 190.078 255.359)" fill="white"/>
<circle cx="172.628" cy="285.583" r="4.65332" transform="rotate(30 172.628 285.583)" fill="white"/>
<circle cx="155.178" cy="315.807" r="4.65332" transform="rotate(30 155.178 315.807)" fill="white"/>
<circle cx="276.985" cy="83.8907" r="4.65332" transform="rotate(30 276.985 83.8907)" fill="white"/>
<circle cx="259.535" cy="114.115" r="4.65332" transform="rotate(30 259.535 114.115)" fill="white"/>
<circle cx="242.085" cy="144.339" r="4.65332" transform="rotate(30 242.085 144.339)" fill="white"/>
<circle cx="224.636" cy="174.563" r="4.65332" transform="rotate(30 224.636 174.563)" fill="white"/>
<circle cx="207.185" cy="204.787" r="4.65332" transform="rotate(30 207.185 204.787)" fill="white"/>
<circle cx="189.735" cy="235.012" r="4.65332" transform="rotate(30 189.735 235.012)" fill="white"/>
<circle cx="172.286" cy="265.236" r="4.65332" transform="rotate(30 172.286 265.236)" fill="white"/>
<circle cx="154.836" cy="295.46" r="4.65332" transform="rotate(30 154.836 295.46)" fill="white"/>
<circle cx="312.912" cy="84.484" r="4.65332" transform="rotate(30 312.912 84.484)" fill="white"/>
<circle cx="295.462" cy="114.708" r="4.65332" transform="rotate(30 295.462 114.708)" fill="white"/>
<circle cx="278.012" cy="144.932" r="4.65332" transform="rotate(30 278.012 144.932)" fill="white"/>
<circle cx="260.562" cy="175.156" r="4.65332" transform="rotate(30 260.562 175.156)" fill="white"/>
<circle cx="243.112" cy="205.38" r="4.65332" transform="rotate(30 243.112 205.38)" fill="white"/>
<circle cx="225.662" cy="235.604" r="4.65332" transform="rotate(30 225.662 235.604)" fill="white"/>
<circle cx="208.212" cy="265.829" r="4.65332" transform="rotate(30 208.212 265.829)" fill="white"/>
<circle cx="190.762" cy="296.053" r="4.65332" transform="rotate(30 190.762 296.053)" fill="white"/>
<circle cx="173.312" cy="326.277" r="4.65332" transform="rotate(30 173.312 326.277)" fill="white"/>
<circle cx="295.119" cy="94.3609" r="4.65332" transform="rotate(30 295.119 94.3609)" fill="white"/>
<circle cx="277.67" cy="124.585" r="4.65332" transform="rotate(30 277.67 124.585)" fill="white"/>
<circle cx="260.22" cy="154.809" r="4.65332" transform="rotate(30 260.22 154.809)" fill="white"/>
<circle cx="242.77" cy="185.033" r="4.65332" transform="rotate(30 242.77 185.033)" fill="white"/>
<circle cx="225.319" cy="215.257" r="4.65332" transform="rotate(30 225.319 215.257)" fill="white"/>
<circle cx="207.87" cy="245.482" r="4.65332" transform="rotate(30 207.87 245.482)" fill="white"/>
<circle cx="190.42" cy="275.705" r="4.65332" transform="rotate(30 190.42 275.705)" fill="white"/>
<circle cx="172.97" cy="305.93" r="4.65332" transform="rotate(30 172.97 305.93)" fill="white"/>
<circle cx="331.046" cy="94.9537" r="4.65332" transform="rotate(30 331.046 94.9537)" fill="white"/>
<circle cx="313.597" cy="125.178" r="4.65332" transform="rotate(30 313.597 125.178)" fill="white"/>
<circle cx="296.147" cy="155.402" r="4.65332" transform="rotate(30 296.147 155.402)" fill="white"/>
<circle cx="278.696" cy="185.626" r="4.65332" transform="rotate(30 278.696 185.626)" fill="white"/>
<circle cx="261.247" cy="215.851" r="4.65332" transform="rotate(30 261.247 215.851)" fill="white"/>
<circle cx="243.797" cy="246.074" r="4.65332" transform="rotate(30 243.797 246.074)" fill="white"/>
<circle cx="226.347" cy="276.298" r="4.65332" transform="rotate(30 226.347 276.298)" fill="white"/>
<circle cx="208.897" cy="306.523" r="4.65332" transform="rotate(30 208.897 306.523)" fill="white"/>
<circle cx="191.447" cy="336.747" r="4.65332" transform="rotate(30 191.447 336.747)" fill="white"/>
<circle cx="313.254" cy="104.831" r="4.65332" transform="rotate(30 313.254 104.831)" fill="white"/>
<circle cx="295.804" cy="135.055" r="4.65332" transform="rotate(30 295.804 135.055)" fill="white"/>
<circle cx="278.354" cy="165.279" r="4.65332" transform="rotate(30 278.354 165.279)" fill="white"/>
<circle cx="260.904" cy="195.504" r="4.65332" transform="rotate(30 260.904 195.504)" fill="white"/>
<circle cx="243.454" cy="225.727" r="4.65332" transform="rotate(30 243.454 225.727)" fill="white"/>
<circle cx="226.005" cy="255.952" r="4.65332" transform="rotate(30 226.005 255.952)" fill="white"/>
<circle cx="208.554" cy="286.175" r="4.65332" transform="rotate(30 208.554 286.175)" fill="white"/>
<circle cx="191.104" cy="316.4" r="4.65332" transform="rotate(30 191.104 316.4)" fill="white"/>
<circle cx="349.181" cy="105.423" r="4.65332" transform="rotate(30 349.181 105.423)" fill="white"/>
<circle cx="331.731" cy="135.648" r="4.65332" transform="rotate(30 331.731 135.648)" fill="white"/>
<circle cx="314.281" cy="165.872" r="4.65332" transform="rotate(30 314.281 165.872)" fill="white"/>
<circle cx="296.831" cy="196.096" r="4.65332" transform="rotate(30 296.831 196.096)" fill="white"/>
<circle cx="279.381" cy="226.32" r="4.65332" transform="rotate(30 279.381 226.32)" fill="white"/>
<circle cx="261.931" cy="256.545" r="4.65332" transform="rotate(30 261.931 256.545)" fill="white"/>
<circle cx="244.481" cy="286.769" r="4.65332" transform="rotate(30 244.481 286.769)" fill="white"/>
<circle cx="227.031" cy="316.993" r="4.65332" transform="rotate(30 227.031 316.993)" fill="white"/>
<circle cx="209.581" cy="347.217" r="4.65332" transform="rotate(30 209.581 347.217)" fill="white"/>
<circle cx="331.389" cy="115.301" r="4.65332" transform="rotate(30 331.389 115.301)" fill="white"/>
<circle cx="313.938" cy="145.525" r="4.65332" transform="rotate(30 313.938 145.525)" fill="white"/>
<circle cx="296.489" cy="175.749" r="4.65332" transform="rotate(30 296.489 175.749)" fill="white"/>
<circle cx="279.039" cy="205.973" r="4.65332" transform="rotate(30 279.039 205.973)" fill="white"/>
<circle cx="261.589" cy="236.197" r="4.65332" transform="rotate(30 261.589 236.197)" fill="white"/>
<circle cx="244.139" cy="266.422" r="4.65332" transform="rotate(30 244.139 266.422)" fill="white"/>
<circle cx="226.689" cy="296.646" r="4.65332" transform="rotate(30 226.689 296.646)" fill="white"/>
<circle cx="209.239" cy="326.87" r="4.65332" transform="rotate(30 209.239 326.87)" fill="white"/>
<circle cx="367.315" cy="115.894" r="4.65332" transform="rotate(30 367.315 115.894)" fill="white"/>
<circle cx="349.865" cy="146.118" r="4.65332" transform="rotate(30 349.865 146.118)" fill="white"/>
<circle cx="332.416" cy="176.342" r="4.65332" transform="rotate(30 332.416 176.342)" fill="white"/>
<circle cx="314.965" cy="206.566" r="4.65332" transform="rotate(30 314.965 206.566)" fill="white"/>
<circle cx="297.515" cy="236.79" r="4.65332" transform="rotate(30 297.515 236.79)" fill="white"/>
<circle cx="280.066" cy="267.014" r="4.65332" transform="rotate(30 280.066 267.014)" fill="white"/>
<circle cx="262.616" cy="297.238" r="4.65332" transform="rotate(30 262.616 297.238)" fill="white"/>
<circle cx="245.166" cy="327.462" r="4.65332" transform="rotate(30 245.166 327.462)" fill="white"/>
<circle cx="227.716" cy="357.687" r="4.65332" transform="rotate(30 227.716 357.687)" fill="white"/>
<circle cx="349.523" cy="125.771" r="4.65332" transform="rotate(30 349.523 125.771)" fill="white"/>
<circle cx="332.073" cy="155.995" r="4.65332" transform="rotate(30 332.073 155.995)" fill="white"/>
<circle cx="314.623" cy="186.219" r="4.65332" transform="rotate(30 314.623 186.219)" fill="white"/>
<circle cx="297.173" cy="216.443" r="4.65332" transform="rotate(30 297.173 216.443)" fill="white"/>
<circle cx="279.723" cy="246.668" r="4.65332" transform="rotate(30 279.723 246.668)" fill="white"/>
<circle cx="262.273" cy="276.891" r="4.65332" transform="rotate(30 262.273 276.891)" fill="white"/>
<circle cx="244.824" cy="307.116" r="4.65332" transform="rotate(30 244.824 307.116)" fill="white"/>
<circle cx="227.374" cy="337.339" r="4.65332" transform="rotate(30 227.374 337.339)" fill="white"/>
<circle cx="368" cy="156.588" r="4.65332" transform="rotate(30 368 156.588)" fill="white"/>
<circle cx="350.55" cy="186.812" r="4.65332" transform="rotate(30 350.55 186.812)" fill="white"/>
<circle cx="333.1" cy="217.036" r="4.65332" transform="rotate(30 333.1 217.036)" fill="white"/>
<circle cx="315.65" cy="247.26" r="4.65332" transform="rotate(30 315.65 247.26)" fill="white"/>
<circle cx="298.201" cy="277.484" r="4.65332" transform="rotate(30 298.201 277.484)" fill="white"/>
<circle cx="280.75" cy="307.709" r="4.65332" transform="rotate(30 280.75 307.709)" fill="white"/>
<circle cx="263.3" cy="337.933" r="4.65332" transform="rotate(30 263.3 337.933)" fill="white"/>
<circle cx="245.85" cy="368.157" r="4.65332" transform="rotate(30 245.85 368.157)" fill="white"/>
<circle cx="367.658" cy="136.241" r="4.65332" transform="rotate(30 367.658 136.241)" fill="white"/>
<circle cx="350.208" cy="166.464" r="4.65332" transform="rotate(30 350.208 166.464)" fill="white"/>
<circle cx="332.758" cy="196.689" r="4.65332" transform="rotate(30 332.758 196.689)" fill="white"/>
<circle cx="315.308" cy="226.913" r="4.65332" transform="rotate(30 315.308 226.913)" fill="white"/>
<circle cx="297.858" cy="257.138" r="4.65332" transform="rotate(30 297.858 257.138)" fill="white"/>
<circle cx="280.408" cy="287.361" r="4.65332" transform="rotate(30 280.408 287.361)" fill="white"/>
<circle cx="262.958" cy="317.586" r="4.65332" transform="rotate(30 262.958 317.586)" fill="white"/>
<circle cx="245.508" cy="347.81" r="4.65332" transform="rotate(30 245.508 347.81)" fill="white"/>
<circle cx="368.684" cy="197.282" r="4.65332" transform="rotate(30 368.684 197.282)" fill="white"/>
<circle cx="351.234" cy="227.506" r="4.65332" transform="rotate(30 351.234 227.506)" fill="white"/>
<circle cx="333.785" cy="257.73" r="4.65332" transform="rotate(30 333.785 257.73)" fill="white"/>
<circle cx="316.335" cy="287.954" r="4.65332" transform="rotate(30 316.335 287.954)" fill="white"/>
<circle cx="298.885" cy="318.178" r="4.65332" transform="rotate(30 298.885 318.178)" fill="white"/>
<circle cx="281.435" cy="348.403" r="4.65332" transform="rotate(30 281.435 348.403)" fill="white"/>
<circle cx="263.985" cy="378.627" r="4.65332" transform="rotate(30 263.985 378.627)" fill="white"/>
<circle cx="368.342" cy="176.935" r="4.65332" transform="rotate(30 368.342 176.935)" fill="white"/>
<circle cx="350.892" cy="207.159" r="4.65332" transform="rotate(30 350.892 207.159)" fill="white"/>
<circle cx="333.442" cy="237.383" r="4.65332" transform="rotate(30 333.442 237.383)" fill="white"/>
<circle cx="315.993" cy="267.607" r="4.65332" transform="rotate(30 315.993 267.607)" fill="white"/>
<circle cx="298.543" cy="297.831" r="4.65332" transform="rotate(30 298.543 297.831)" fill="white"/>
<circle cx="281.093" cy="328.055" r="4.65332" transform="rotate(30 281.093 328.055)" fill="white"/>
<circle cx="263.642" cy="358.28" r="4.65332" transform="rotate(30 263.642 358.28)" fill="white"/>
<circle cx="369.369" cy="237.976" r="4.65332" transform="rotate(30 369.369 237.976)" fill="white"/>
<circle cx="351.919" cy="268.2" r="4.65332" transform="rotate(30 351.919 268.2)" fill="white"/>
<circle cx="334.469" cy="298.424" r="4.65332" transform="rotate(30 334.469 298.424)" fill="white"/>
<circle cx="317.019" cy="328.648" r="4.65332" transform="rotate(30 317.019 328.648)" fill="white"/>
<circle cx="299.569" cy="358.873" r="4.65332" transform="rotate(30 299.569 358.873)" fill="white"/>
<circle cx="369.026" cy="217.629" r="4.65332" transform="rotate(30 369.026 217.629)" fill="white"/>
<circle cx="351.577" cy="247.853" r="4.65332" transform="rotate(30 351.577 247.853)" fill="white"/>
<circle cx="334.127" cy="278.077" r="4.65332" transform="rotate(30 334.127 278.077)" fill="white"/>
<circle cx="316.677" cy="308.301" r="4.65332" transform="rotate(30 316.677 308.301)" fill="white"/>
<circle cx="299.227" cy="338.525" r="4.65332" transform="rotate(30 299.227 338.525)" fill="white"/>
<circle cx="281.777" cy="368.749" r="4.65332" transform="rotate(30 281.777 368.749)" fill="white"/>
<circle cx="370.054" cy="278.67" r="4.65332" transform="rotate(30 370.054 278.67)" fill="white"/>
<circle cx="352.603" cy="308.895" r="4.65332" transform="rotate(30 352.603 308.895)" fill="white"/>
<circle cx="335.154" cy="339.118" r="4.65332" transform="rotate(30 335.154 339.118)" fill="white"/>
<circle cx="317.704" cy="369.342" r="4.65332" transform="rotate(30 317.704 369.342)" fill="white"/>
<circle cx="369.711" cy="258.323" r="4.65332" transform="rotate(30 369.711 258.323)" fill="white"/>
<circle cx="352.261" cy="288.547" r="4.65332" transform="rotate(30 352.261 288.547)" fill="white"/>
<circle cx="334.811" cy="318.771" r="4.65332" transform="rotate(30 334.811 318.771)" fill="white"/>
<circle cx="317.362" cy="348.996" r="4.65332" transform="rotate(30 317.362 348.996)" fill="white"/>
<circle cx="299.911" cy="379.22" r="4.65332" transform="rotate(30 299.911 379.22)" fill="white"/>
<circle cx="353.288" cy="349.588" r="4.65332" transform="rotate(30 353.288 349.588)" fill="white"/>
<circle cx="335.838" cy="379.813" r="4.65332" transform="rotate(30 335.838 379.813)" fill="white"/>
<circle cx="352.946" cy="329.241" r="4.65332" transform="rotate(30 352.946 329.241)" fill="white"/>
<circle cx="335.496" cy="359.465" r="4.65332" transform="rotate(30 335.496 359.465)" fill="white"/>
<circle cx="353.63" cy="369.935" r="4.65332" transform="rotate(30 353.63 369.935)" fill="white"/>
</g>
</svg>
