<svg width="446" height="573" viewBox="0 0 446 573" fill="none" xmlns="http://www.w3.org/2000/svg">
<path opacity="0.41" d="M22.1426 530.402C45.7441 593.352 -22.7852 571.55 -60 552.781L-60 181L411.452 181C474.505 233.338 453.68 355.701 305.303 320.327C156.926 284.954 180.065 384.577 222.004 429.335C263.943 474.093 223.16 530.402 149.406 491.058C75.651 451.714 -7.35933 451.714 22.1426 530.402Z" fill="#9174CA"/>
<mask id="mask0" mask-type="alpha" maskUnits="userSpaceOnUse" x="-60" y="181" width="506" height="392">
<path opacity="0.9" d="M22.1834 530.402C45.7966 593.352 -22.7667 571.55 -60 552.781L-60 181L411.686 181C474.771 233.338 453.935 355.701 305.484 320.327C157.034 284.954 180.184 384.577 222.144 429.335C264.103 474.093 223.301 530.402 149.51 491.058C75.7183 451.714 -7.33319 451.714 22.1834 530.402Z" fill="#9174CA"/>
</mask>
<g mask="url(#mask0)">
<g opacity="0.1">
<path d="M5.30856 119.388C35.8065 189.01 95.3853 358.628 89.717 480.126" stroke="white" stroke-width="5"/>
<path d="M77.7028 120.312C96.1864 203.694 128.409 393.746 109.433 486.904" stroke="white" stroke-width="5"/>
<path d="M146.4 120.313C156.053 209.753 167.779 410.69 137.466 498.918" stroke="white" stroke-width="5"/>
<path d="M207.088 124.317C210.682 222.691 190.391 437.121 159.339 507.852" stroke="white" stroke-width="5"/>
<path d="M271.472 128.322C256.583 235.013 218.856 461.088 187.064 511.856" stroke="white" stroke-width="5"/>
<path d="M330.312 127.09C307.002 227.825 250.463 445.008 210.785 507.852" stroke="white" stroke-width="5"/>
<path d="M383.915 128.322C357.011 223.615 289.094 434.903 232.657 517.71" stroke="white" stroke-width="5"/>
<path d="M433.512 133.251C395.826 249.492 302.956 484.008 268.7 511.856" stroke="white" stroke-width="5"/>
<path d="M477.257 134.175C448.813 228.236 350.521 442.605 288.416 511.856" stroke="white" stroke-width="5"/>
<path d="M-90.19 371.689C-58.1518 403.522 8.14274 490.847 17.0149 585.483" stroke="white" stroke-width="5"/>
<path d="M-79.4079 306.996C-47.7804 336.776 17.8158 423.382 27.1808 531.572" stroke="white" stroke-width="5"/>
<path d="M-58.4598 242.612C-25.3947 289.027 40.3659 404.282 38.8872 493.989" stroke="white" stroke-width="5"/>
<path d="M-61.5404 142.185C-23.7517 197.43 54.2286 341.13 63.8401 473.965" stroke="white" stroke-width="5"/>
</g>
</g>
<g opacity="0.1">
<mask id="mask1" mask-type="alpha" maskUnits="userSpaceOnUse" x="-60" y="181" width="506" height="392">
<path opacity="0.9" d="M22.4019 530.769C46.0152 593.719 -22.5481 571.918 -59.7814 553.148L-59.7814 181.368L411.905 181.368C474.989 233.706 454.154 356.068 305.703 320.695C157.252 285.322 180.402 384.945 222.362 429.703C264.322 474.461 223.52 530.769 149.728 491.425C75.9368 452.082 -7.11462 452.082 22.4019 530.769Z" fill="#9174CA"/>
</mask>
<g mask="url(#mask1)">
<g opacity="0.1">
<path d="M5.30856 119.388C35.8065 189.01 95.3853 358.628 89.717 480.126" stroke="white" stroke-width="5"/>
<path d="M77.7028 120.312C96.1864 203.694 128.409 393.746 109.433 486.904" stroke="white" stroke-width="5"/>
<path d="M146.4 120.313C156.053 209.753 167.779 410.69 137.466 498.918" stroke="white" stroke-width="5"/>
<path d="M207.088 124.317C210.682 222.691 190.391 437.121 159.339 507.852" stroke="white" stroke-width="5"/>
<path d="M271.472 128.322C256.583 235.013 218.856 461.088 187.064 511.856" stroke="white" stroke-width="5"/>
<path d="M330.312 127.09C307.002 227.825 250.463 445.008 210.785 507.852" stroke="white" stroke-width="5"/>
<path d="M383.915 128.322C357.011 223.615 289.094 434.903 232.657 517.71" stroke="white" stroke-width="5"/>
<path d="M433.512 133.251C395.826 249.492 302.956 484.008 268.7 511.856" stroke="white" stroke-width="5"/>
<path d="M477.257 134.175C448.813 228.236 350.521 442.605 288.416 511.856" stroke="white" stroke-width="5"/>
<path d="M-90.19 371.689C-58.1518 403.522 8.14274 490.847 17.0149 585.483" stroke="white" stroke-width="5"/>
<path d="M-79.4079 306.996C-47.7804 336.776 17.8158 423.382 27.1808 531.572" stroke="white" stroke-width="5"/>
<path d="M-58.4598 242.612C-25.3947 289.027 40.3659 404.282 38.8872 493.989" stroke="white" stroke-width="5"/>
<path d="M-61.5404 142.185C-23.7517 197.43 54.2286 341.13 63.8401 473.965" stroke="white" stroke-width="5"/>
</g>
</g>
</g>
<path d="M-66.9418 307.002C-41.2996 332.645 -94.7529 360.716 -32.7795 392.338C29.1939 423.96 28.6973 328.217 120.487 314.821C212.277 301.425 172.088 223.527 130.41 216.581C89.1024 209.697 100.553 176.459 88.4359 151.625C71.7618 117.451 51.521 128.76 29.1937 161.011C8.29564 191.197 -12.1142 192.803 -42.2533 196.734C-99.3117 204.177 -121.143 252.801 -66.9418 307.002Z" fill="#C2DBF1"/>
<mask id="mask2" mask-type="alpha" maskUnits="userSpaceOnUse" x="-99" y="130" width="276" height="258">
<path d="M-66.9739 307.034C-41.3317 332.676 -76.947 367.254 -41.7542 385.211C-6.56132 403.169 28.6652 328.249 120.455 314.853C212.245 301.457 172.056 223.559 130.378 216.613C89.0703 209.729 100.521 176.49 88.4037 151.656C71.7297 117.482 51.4889 128.792 29.1615 161.043C8.26351 191.229 -12.1464 192.835 -42.2855 196.766C-99.3438 204.209 -121.175 252.833 -66.9739 307.034Z" fill="#E8F0F0"/>
</mask>
<g mask="url(#mask2)">
<path d="M73.5513 158.851L49.3753 158.004" stroke="#E0F0F3" stroke-width="2"/>
<path d="M93.3104 239.23L69.1344 238.384" stroke="#E0F0F3" stroke-width="2"/>
<path d="M33.7221 160.379L23.8717 144.6" stroke="#E0F0F3" stroke-width="2"/>
<path d="M53.481 240.759L43.6305 224.979" stroke="#E0F0F3" stroke-width="2"/>
<path d="M50.8126 177.159L26.8252 165.101" stroke="#E0F0F3" stroke-width="2"/>
<path d="M70.5719 257.539L46.5846 245.481" stroke="#E0F0F3" stroke-width="2"/>
<path d="M85.1531 175.099L65.167 186.638" stroke="#E0F0F3" stroke-width="2"/>
<path d="M104.912 255.479L84.9263 267.018" stroke="#E0F0F3" stroke-width="2"/>
<path d="M93.6793 195.216L81.1114 214.572" stroke="#E0F0F3" stroke-width="2"/>
<path d="M119.054 274.078L106.486 293.434" stroke="#E0F0F3" stroke-width="2"/>
<path d="M76.8394 209.629L56.7484 220.985" stroke="#E0F0F3" stroke-width="2"/>
<path d="M96.5983 290.01L76.5074 301.365" stroke="#E0F0F3" stroke-width="2"/>
<path d="M63.8159 195.183L40.85 192.911" stroke="#E0F0F3" stroke-width="2"/>
<path d="M83.5758 275.562L60.6099 273.29" stroke="#E0F0F3" stroke-width="2"/>
<path d="M21.7997 193.883L11.5462 173.208" stroke="#E0F0F3" stroke-width="2"/>
<path d="M41.5596 274.264L31.3061 253.589" stroke="#E0F0F3" stroke-width="2"/>
<path d="M40.7181 213.831L20.8345 202.116" stroke="#E0F0F3" stroke-width="2"/>
<path d="M60.4774 294.211L40.5938 282.496" stroke="#E0F0F3" stroke-width="2"/>
<path d="M3.67371 173.113L3.21032 150.039" stroke="#E0F0F3" stroke-width="2"/>
<path d="M23.4327 253.493L22.9693 230.419" stroke="#E0F0F3" stroke-width="2"/>
<path d="M-4.57623 265.258L5.88673 244.688" stroke="#E0F0F3" stroke-width="2"/>
<path d="M-6.98975 208.475L-6.07887 185.415" stroke="#E0F0F3" stroke-width="2"/>
<path d="M12.7694 288.855L13.6803 265.795" stroke="#E0F0F3" stroke-width="2"/>
<path d="M10.7712 231.321L0.946597 210.438" stroke="#E0F0F3" stroke-width="2"/>
<path d="M30.5302 311.701L20.7056 290.818" stroke="#E0F0F3" stroke-width="2"/>
<path d="M6.0564 323.338L3.24274 300.433" stroke="#E0F0F3" stroke-width="2"/>
<path d="M-14.8677 300.023L-3.01385 280.222" stroke="#E0F0F3" stroke-width="2"/>
<path d="M1.44794 360.785L0.905841 337.714" stroke="#E0F0F3" stroke-width="2"/>
<path d="M31.9111 343.804L22.0436 322.942" stroke="#E0F0F3" stroke-width="2"/>
<path d="M61.9522 328.505L47.572 310.455" stroke="#E0F0F3" stroke-width="2"/>
<path d="M58.69 350.335L44.3098 332.285" stroke="#E0F0F3" stroke-width="2"/>
<path d="M21.2678 371.366L15.7239 348.964" stroke="#E0F0F3" stroke-width="2"/>
<path d="M87.5089 332.011L87.5089 308.933" stroke="#E0F0F3" stroke-width="2"/>
<path d="M157.722 282.382L180.636 285.13" stroke="#E0F0F3" stroke-width="2"/>
<path d="M155.581 263.143L177.08 254.753" stroke="#E0F0F3" stroke-width="2"/>
<path d="M149.627 239.328L171.126 230.938" stroke="#E0F0F3" stroke-width="2"/>
<path d="M99.3531 167.641L91.6896 178.728" stroke="#E0F0F3" stroke-width="2"/>
<path d="M130.462 242.985L114.34 261.998" stroke="#E0F0F3" stroke-width="2"/>
<path d="M85.4843 142.337L73.7399 147.638" stroke="#E0F0F3" stroke-width="2"/>
<path d="M112.065 183.248L111.751 201.935" stroke="#E0F0F3" stroke-width="2"/>
<path d="M134.705 259.753L134.391 278.44" stroke="#E0F0F3" stroke-width="2"/>
<path d="M100.991 214.07L100.676 232.757" stroke="#E0F0F3" stroke-width="2"/>
<path d="M121.805 298.453L121.49 317.14" stroke="#E0F0F3" stroke-width="2"/>
<path d="M119.076 211.439L127.585 228.08" stroke="#E0F0F3" stroke-width="2"/>
<path d="M144.279 289.87L152.788 306.511" stroke="#E0F0F3" stroke-width="2"/>
</g>
</svg>
