<svg width="272" height="329" viewBox="0 0 272 329" fill="none" xmlns="http://www.w3.org/2000/svg">
<g opacity="0.3">
<path d="M264.132 165.058L259.696 181.611M253.637 171.117L270.191 175.552" stroke="#7952B8" stroke-width="2"/>
<path d="M58.8303 162.807L63.2659 146.253M69.325 156.748L52.7712 152.312" stroke="#7952B8" stroke-width="2"/>
<path d="M216.629 192.483L212.194 209.037M206.135 198.542L222.689 202.978" stroke="#7952B8" stroke-width="2"/>
<path d="M106.333 135.382L110.768 118.828M116.827 129.323L100.274 124.887" stroke="#7952B8" stroke-width="2"/>
<path d="M236.082 226.176L231.647 242.73M225.588 232.235L242.141 236.671" stroke="#7952B8" stroke-width="2"/>
<path d="M86.8794 101.688L91.315 85.1342M97.3741 95.6289L80.8203 91.1933" stroke="#7952B8" stroke-width="2"/>
<path d="M250.267 195.894L245.831 212.447M239.772 201.953L256.326 206.388" stroke="#7952B8" stroke-width="2"/>
<path d="M72.6953 131.971L77.1309 115.417M83.19 125.912L66.6362 121.476" stroke="#7952B8" stroke-width="2"/>
<path d="M25.1929 159.397L29.6285 142.843M35.6876 153.338L19.1338 148.902" stroke="#7952B8" stroke-width="2"/>
<path d="M202.764 223.319L198.329 239.873M192.269 229.378L208.823 233.814" stroke="#7952B8" stroke-width="2"/>
<path d="M222.217 257.012L217.781 273.566M211.722 263.071L228.276 267.507" stroke="#7952B8" stroke-width="2"/>
<path d="M244.679 131.364L240.243 147.918M234.184 137.423L250.738 141.858" stroke="#7952B8" stroke-width="2"/>
<path d="M78.2832 196.5L82.7188 179.947M88.7779 190.441L72.2241 186.006" stroke="#7952B8" stroke-width="2"/>
<path d="M197.177 158.79L192.741 175.343M186.682 164.849L203.236 169.284" stroke="#7952B8" stroke-width="2"/>
<path d="M125.786 169.075L130.221 152.521M136.28 163.016L119.727 158.58" stroke="#7952B8" stroke-width="2"/>
<path d="M230.814 162.199L226.378 178.753M220.319 168.258L236.873 172.694" stroke="#7952B8" stroke-width="2"/>
<path d="M278.316 134.774L273.88 151.328M267.821 140.834L284.375 145.269" stroke="#7952B8" stroke-width="2"/>
<path d="M92.1484 165.665L96.584 149.111M102.643 159.605L86.0893 155.17" stroke="#7952B8" stroke-width="2"/>
<path d="M44.6462 193.09L49.0818 176.537M55.1409 187.031L38.5871 182.596" stroke="#7952B8" stroke-width="2"/>
<path d="M183.311 189.625L178.876 206.179M172.817 195.684L189.37 200.12" stroke="#7952B8" stroke-width="2"/>
<path d="M225.226 97.6704L220.79 114.224M214.731 103.73L231.285 108.165" stroke="#7952B8" stroke-width="2"/>
<path d="M97.7361 230.194L102.172 213.641M108.231 224.135L91.677 219.7" stroke="#7952B8" stroke-width="2"/>
<path d="M177.724 125.096L173.288 141.65M167.229 131.155L183.783 135.591" stroke="#7952B8" stroke-width="2"/>
<path d="M145.239 202.769L149.674 186.215M155.733 196.71L139.179 192.274" stroke="#7952B8" stroke-width="2"/>
<path d="M211.361 128.506L206.925 145.06M200.866 134.565L217.42 139.001" stroke="#7952B8" stroke-width="2"/>
<path d="M258.863 101.08L254.427 117.634M248.368 107.139L264.922 111.575" stroke="#7952B8" stroke-width="2"/>
<path d="M111.602 199.359L116.037 182.805M122.096 193.3L105.542 188.864" stroke="#7952B8" stroke-width="2"/>
<path d="M64.0991 226.784L68.5347 210.23M74.5938 220.725L58.04 216.289" stroke="#7952B8" stroke-width="2"/>
<path d="M163.858 155.932L159.423 172.485M153.364 161.991L169.918 166.426" stroke="#7952B8" stroke-width="2"/>
<path d="M205.773 63.9771L201.337 80.5309M195.278 70.0362L211.832 74.4718" stroke="#7952B8" stroke-width="2"/>
<path d="M117.189 263.888L121.625 247.334M127.684 257.829L111.13 253.393" stroke="#7952B8" stroke-width="2"/>
<path d="M158.271 91.4019L153.835 107.956M147.776 97.461L164.33 101.897" stroke="#7952B8" stroke-width="2"/>
<path d="M164.691 236.462L169.127 219.908M175.186 230.403L158.632 225.967" stroke="#7952B8" stroke-width="2"/>
<path d="M138.818 57.7085L134.382 74.2623M128.323 63.7676L144.877 68.2032" stroke="#7952B8" stroke-width="2"/>
<path d="M184.145 270.156L188.58 253.602M194.639 264.097L178.085 259.662" stroke="#7952B8" stroke-width="2"/>
<path d="M191.908 94.8125L187.472 111.366M181.413 100.872L197.967 105.307" stroke="#7952B8" stroke-width="2"/>
<path d="M239.41 67.3867L234.975 83.9405M228.915 73.4458L245.469 77.8814" stroke="#7952B8" stroke-width="2"/>
<path d="M131.054 233.052L135.49 216.498M141.549 226.993L124.995 222.558" stroke="#7952B8" stroke-width="2"/>
<path d="M83.552 260.478L87.9876 243.924M94.0467 254.419L77.4929 249.983" stroke="#7952B8" stroke-width="2"/>
<path d="M144.406 122.238L139.97 138.792M133.911 128.297L150.465 132.733" stroke="#7952B8" stroke-width="2"/>
<path d="M172.455 61.1191L168.019 77.673M161.96 67.1783L178.514 71.6138" stroke="#7952B8" stroke-width="2"/>
<path d="M219.957 33.6934L215.521 50.2472M209.462 39.7525L226.016 44.1881" stroke="#7952B8" stroke-width="2"/>
<path d="M150.507 266.746L154.943 250.192M161.002 260.686L144.448 256.251" stroke="#7952B8" stroke-width="2"/>
<path d="M103.005 294.171L107.44 277.618M113.5 288.112L96.9458 283.677" stroke="#7952B8" stroke-width="2"/>
<path d="M124.952 88.5444L120.517 105.098M114.457 94.6036L131.011 99.0391" stroke="#7952B8" stroke-width="2"/>
<path d="M105.499 54.8511L101.064 71.4049M95.0046 60.9102L111.558 65.3458" stroke="#7952B8" stroke-width="2"/>
</g>
</svg>
