<svg width="60" height="61" viewBox="0 0 60 61" fill="none" xmlns="http://www.w3.org/2000/svg">
<circle cx="30" cy="30.5391" r="30" fill="white"/>
<path d="M23.8453 25.7197H18.095V43.3983H23.8453V25.7197Z" fill="#18214D"/>
<path d="M39.5087 25.927C39.4476 25.9078 39.3898 25.8869 39.3255 25.8692C39.2483 25.8515 39.1712 25.837 39.0925 25.8242C38.7871 25.7631 38.4528 25.7197 38.0607 25.7197C34.7082 25.7197 32.5819 28.1578 31.8812 29.0995V25.7197H26.1309V43.3983H31.8812V33.7554C31.8812 33.7554 36.2269 27.7029 38.0607 32.1483C38.0607 36.1163 38.0607 43.3983 38.0607 43.3983H43.8094V31.4685C43.8094 28.7974 41.9789 26.5715 39.5087 25.927Z" fill="#18214D"/>
<path d="M20.9077 23.3076C22.461 23.3076 23.7202 22.0484 23.7202 20.4951C23.7202 18.9418 22.461 17.6826 20.9077 17.6826C19.3544 17.6826 18.0952 18.9418 18.0952 20.4951C18.0952 22.0484 19.3544 23.3076 20.9077 23.3076Z" fill="#18214D"/>
</svg>
