<svg width="61" height="61" viewBox="0 0 61 61" fill="none" xmlns="http://www.w3.org/2000/svg">
<circle cx="30.4231" cy="30.9033" r="30" fill="white"/>
<path d="M24.7684 37.7971C22.6865 37.7521 20.8791 36.5713 19.9285 34.8532C19.9706 34.8537 20.0124 34.854 20.0539 34.854C20.6853 34.854 21.3054 34.7809 21.8849 34.6225L21.8423 33.3163C19.5996 32.8575 17.8231 31.0559 17.4144 28.778C18.0703 29.0059 18.7743 29.1422 19.4911 29.1558L21.7822 29.1992L19.8772 27.9256C18.3784 26.9235 17.3737 25.1922 17.3737 23.2418C17.3737 22.5492 17.5003 21.8886 17.7301 21.2732C20.9388 24.7937 25.4642 27.0751 30.5346 27.3224L31.4182 27.3655L31.2225 26.5028C31.1323 26.1051 31.093 25.676 31.093 25.2129C31.093 22.107 33.6057 19.5751 36.725 19.5751C38.3328 19.5751 39.8076 20.2569 40.843 21.3594L41.0984 21.6313L41.4643 21.5583C42.2718 21.397 43.0539 21.167 43.8039 20.8702C43.3706 21.4342 42.831 21.9135 42.2133 22.2823L42.6424 23.5255C43.1781 23.4574 43.7057 23.3603 44.2233 23.2341C43.7389 23.7319 43.2119 24.1856 42.642 24.5901L42.3413 24.8035L42.3598 25.1717C42.373 25.4327 42.3821 25.6898 42.3821 25.9533C42.3821 33.999 36.2596 43.2315 25.1 43.2315C22.6173 43.2315 20.2671 42.7156 18.1409 41.7768C20.7799 41.5396 23.204 40.534 25.1678 38.9978L26.6508 37.8378L24.7684 37.7971Z" fill="#18214D" stroke="#18214D" stroke-width="1.34359"/>
</svg>
