<svg width="61" height="61" viewBox="0 0 61 61" fill="none" xmlns="http://www.w3.org/2000/svg">
<circle cx="30.4231" cy="30.9033" r="30" fill="white"/>
<path d="M25.8841 22.3335C21.5338 23.7837 14.6437 29.4858 15.4953 36.1287C16.3468 42.7716 31.334 45.6668 38.8276 39.5357C45.1069 34.3981 41.3823 30.5078 37.4652 29.9969C40.1901 24.1382 33.8887 25.0579 30.1419 26.761C31.3341 24.8863 30.9934 20.6303 25.8841 22.3335Z" fill="#18214D" stroke="#18214D" stroke-width="0.506388"/>
<ellipse cx="27.5875" cy="35.445" rx="9.70761" ry="6.30143" fill="#E3EAF1"/>
<ellipse cx="26.4961" cy="35.3197" rx="5.10927" ry="4.2744" transform="rotate(-6.35054 26.4961 35.3197)" fill="#18214D"/>
<ellipse cx="24.7751" cy="35.9946" rx="1.8734" ry="1.36247" transform="rotate(-12.6961 24.7751 35.9946)" fill="#E3EAF1"/>
<ellipse cx="27.928" cy="34.4485" rx="0.723696" ry="0.746899" transform="rotate(-12.6961 27.928 34.4485)" fill="#E3EAF1"/>
<path d="M41.7228 26.9302C41.7228 24.2025 39.5115 21.9912 36.7838 21.9912" stroke="#18214D" stroke-width="2.02555" stroke-linecap="round"/>
<path d="M46.151 27.7822C46.151 22.3268 41.7285 17.9043 36.2731 17.9043" stroke="#18214D" stroke-width="2.02555" stroke-linecap="round"/>
</svg>
