<svg width="60" height="60" viewBox="0 0 60 60" fill="none" xmlns="http://www.w3.org/2000/svg">
<circle cx="30" cy="30" r="30" fill="white"/>
<path d="M43.5643 21.9599C42.7618 20.5325 41.891 20.2699 40.1178 20.1701C38.3465 20.0499 33.8924 20 30.0336 20C26.1675 20 21.7115 20.0499 19.942 20.1683C18.1726 20.2699 17.2999 20.5306 16.49 21.9599C15.6635 23.3854 15.2383 25.8408 15.2383 30.1637C15.2383 30.1674 15.2383 30.1693 15.2383 30.1693C15.2383 30.1729 15.2383 30.1748 15.2383 30.1748V30.1785C15.2383 34.4829 15.6635 36.9568 16.49 38.3675C17.2999 39.7949 18.1707 40.0538 19.9402 40.1739C21.7115 40.2775 26.1675 40.3385 30.0336 40.3385C33.8924 40.3385 38.3465 40.2775 40.1197 40.1758C41.8928 40.0556 42.7637 39.7968 43.5661 38.3694C44.4 36.9586 44.8216 34.4847 44.8216 30.1803C44.8216 30.1803 44.8216 30.1748 44.8216 30.1711C44.8216 30.1711 44.8216 30.1674 44.8216 30.1656C44.8216 25.8408 44.4 23.3854 43.5643 21.9599Z" fill="#18214D"/>
<path d="M26.332 35.7158V24.6221L35.5768 30.1689L26.332 35.7158Z" fill="#FAFAFA"/>
</svg>
